<?xml version="1.0" encoding="utf-8" standalone="no"?>
<!DOCTYPE svg PUBLIC "-//W3C//DTD SVG 1.1//EN"
  "http://www.w3.org/Graphics/SVG/1.1/DTD/svg11.dtd">
<!-- Created with matplotlib (https://matplotlib.org/) -->
<svg height="864pt" version="1.1" viewBox="0 0 864 864" width="864pt" xmlns="http://www.w3.org/2000/svg" xmlns:xlink="http://www.w3.org/1999/xlink">
 <metadata>
  <rdf:RDF xmlns:cc="http://creativecommons.org/ns#" xmlns:dc="http://purl.org/dc/elements/1.1/" xmlns:rdf="http://www.w3.org/1999/02/22-rdf-syntax-ns#">
   <cc:Work>
    <dc:type rdf:resource="http://purl.org/dc/dcmitype/StillImage"/>
    <dc:date>2023-05-20T23:11:05.504708</dc:date>
    <dc:format>image/svg+xml</dc:format>
    <dc:creator>
     <cc:Agent>
      <dc:title>Matplotlib v3.3.4, https://matplotlib.org/</dc:title>
     </cc:Agent>
    </dc:creator>
   </cc:Work>
  </rdf:RDF>
 </metadata>
 <defs>
  <style type="text/css">*{stroke-linecap:butt;stroke-linejoin:round;}</style>
 </defs>
 <g id="figure_1">
  <g id="patch_1">
   <path d="M 0 864 
L 864 864 
L 864 0 
L 0 0 
z
" style="fill:#ffffff;"/>
  </g>
  <g id="axes_1">
   <g id="patch_2">
    <path d="M 108 756 
L 777.6 756 
L 777.6 103.68 
L 108 103.68 
z
" style="fill:#ffffff;"/>
   </g>
   <g id="matplotlib.axis_1">
    <g id="xtick_1">
     <g id="line2d_1">
      <defs>
       <path d="M 0 0 
L 0 3.5 
" id="m7c00421bd5" style="stroke:#000000;stroke-width:0.8;"/>
      </defs>
      <g>
       <use style="stroke:#000000;stroke-width:0.8;" x="163.8" xlink:href="#m7c00421bd5" y="756"/>
      </g>
     </g>
     <g id="text_1">
      <!-- 0.0 -->
      <g transform="translate(155.848438 770.598438)scale(0.1 -0.1)">
       <defs>
        <path d="M 31.78125 66.40625 
Q 24.171875 66.40625 20.328125 58.90625 
Q 16.5 51.421875 16.5 36.375 
Q 16.5 21.390625 20.328125 13.890625 
Q 24.171875 6.390625 31.78125 6.390625 
Q 39.453125 6.390625 43.28125 13.890625 
Q 47.125 21.390625 47.125 36.375 
Q 47.125 51.421875 43.28125 58.90625 
Q 39.453125 66.40625 31.78125 66.40625 
z
M 31.78125 74.21875 
Q 44.046875 74.21875 50.515625 64.515625 
Q 56.984375 54.828125 56.984375 36.375 
Q 56.984375 17.96875 50.515625 8.265625 
Q 44.046875 -1.421875 31.78125 -1.421875 
Q 19.53125 -1.421875 13.0625 8.265625 
Q 6.59375 17.96875 6.59375 36.375 
Q 6.59375 54.828125 13.0625 64.515625 
Q 19.53125 74.21875 31.78125 74.21875 
z
" id="DejaVuSans-48"/>
        <path d="M 10.6875 12.40625 
L 21 12.40625 
L 21 0 
L 10.6875 0 
z
" id="DejaVuSans-46"/>
       </defs>
       <use xlink:href="#DejaVuSans-48"/>
       <use x="63.623047" xlink:href="#DejaVuSans-46"/>
       <use x="95.410156" xlink:href="#DejaVuSans-48"/>
      </g>
     </g>
    </g>
    <g id="xtick_2">
     <g id="line2d_2">
      <g>
       <use style="stroke:#000000;stroke-width:0.8;" x="275.4" xlink:href="#m7c00421bd5" y="756"/>
      </g>
     </g>
     <g id="text_2">
      <!-- 0.2 -->
      <g transform="translate(267.448438 770.598438)scale(0.1 -0.1)">
       <defs>
        <path d="M 19.1875 8.296875 
L 53.609375 8.296875 
L 53.609375 0 
L 7.328125 0 
L 7.328125 8.296875 
Q 12.9375 14.109375 22.625 23.890625 
Q 32.328125 33.6875 34.8125 36.53125 
Q 39.546875 41.84375 41.421875 45.53125 
Q 43.3125 49.21875 43.3125 52.78125 
Q 43.3125 58.59375 39.234375 62.25 
Q 35.15625 65.921875 28.609375 65.921875 
Q 23.96875 65.921875 18.8125 64.3125 
Q 13.671875 62.703125 7.8125 59.421875 
L 7.8125 69.390625 
Q 13.765625 71.78125 18.9375 73 
Q 24.125 74.21875 28.421875 74.21875 
Q 39.75 74.21875 46.484375 68.546875 
Q 53.21875 62.890625 53.21875 53.421875 
Q 53.21875 48.921875 51.53125 44.890625 
Q 49.859375 40.875 45.40625 35.40625 
Q 44.1875 33.984375 37.640625 27.21875 
Q 31.109375 20.453125 19.1875 8.296875 
z
" id="DejaVuSans-50"/>
       </defs>
       <use xlink:href="#DejaVuSans-48"/>
       <use x="63.623047" xlink:href="#DejaVuSans-46"/>
       <use x="95.410156" xlink:href="#DejaVuSans-50"/>
      </g>
     </g>
    </g>
    <g id="xtick_3">
     <g id="line2d_3">
      <g>
       <use style="stroke:#000000;stroke-width:0.8;" x="387" xlink:href="#m7c00421bd5" y="756"/>
      </g>
     </g>
     <g id="text_3">
      <!-- 0.4 -->
      <g transform="translate(379.048438 770.598438)scale(0.1 -0.1)">
       <defs>
        <path d="M 37.796875 64.3125 
L 12.890625 25.390625 
L 37.796875 25.390625 
z
M 35.203125 72.90625 
L 47.609375 72.90625 
L 47.609375 25.390625 
L 58.015625 25.390625 
L 58.015625 17.1875 
L 47.609375 17.1875 
L 47.609375 0 
L 37.796875 0 
L 37.796875 17.1875 
L 4.890625 17.1875 
L 4.890625 26.703125 
z
" id="DejaVuSans-52"/>
       </defs>
       <use xlink:href="#DejaVuSans-48"/>
       <use x="63.623047" xlink:href="#DejaVuSans-46"/>
       <use x="95.410156" xlink:href="#DejaVuSans-52"/>
      </g>
     </g>
    </g>
    <g id="xtick_4">
     <g id="line2d_4">
      <g>
       <use style="stroke:#000000;stroke-width:0.8;" x="498.6" xlink:href="#m7c00421bd5" y="756"/>
      </g>
     </g>
     <g id="text_4">
      <!-- 0.6 -->
      <g transform="translate(490.648438 770.598438)scale(0.1 -0.1)">
       <defs>
        <path d="M 33.015625 40.375 
Q 26.375 40.375 22.484375 35.828125 
Q 18.609375 31.296875 18.609375 23.390625 
Q 18.609375 15.53125 22.484375 10.953125 
Q 26.375 6.390625 33.015625 6.390625 
Q 39.65625 6.390625 43.53125 10.953125 
Q 47.40625 15.53125 47.40625 23.390625 
Q 47.40625 31.296875 43.53125 35.828125 
Q 39.65625 40.375 33.015625 40.375 
z
M 52.59375 71.296875 
L 52.59375 62.3125 
Q 48.875 64.0625 45.09375 64.984375 
Q 41.3125 65.921875 37.59375 65.921875 
Q 27.828125 65.921875 22.671875 59.328125 
Q 17.53125 52.734375 16.796875 39.40625 
Q 19.671875 43.65625 24.015625 45.921875 
Q 28.375 48.1875 33.59375 48.1875 
Q 44.578125 48.1875 50.953125 41.515625 
Q 57.328125 34.859375 57.328125 23.390625 
Q 57.328125 12.15625 50.6875 5.359375 
Q 44.046875 -1.421875 33.015625 -1.421875 
Q 20.359375 -1.421875 13.671875 8.265625 
Q 6.984375 17.96875 6.984375 36.375 
Q 6.984375 53.65625 15.1875 63.9375 
Q 23.390625 74.21875 37.203125 74.21875 
Q 40.921875 74.21875 44.703125 73.484375 
Q 48.484375 72.75 52.59375 71.296875 
z
" id="DejaVuSans-54"/>
       </defs>
       <use xlink:href="#DejaVuSans-48"/>
       <use x="63.623047" xlink:href="#DejaVuSans-46"/>
       <use x="95.410156" xlink:href="#DejaVuSans-54"/>
      </g>
     </g>
    </g>
    <g id="xtick_5">
     <g id="line2d_5">
      <g>
       <use style="stroke:#000000;stroke-width:0.8;" x="610.2" xlink:href="#m7c00421bd5" y="756"/>
      </g>
     </g>
     <g id="text_5">
      <!-- 0.8 -->
      <g transform="translate(602.248438 770.598438)scale(0.1 -0.1)">
       <defs>
        <path d="M 31.78125 34.625 
Q 24.75 34.625 20.71875 30.859375 
Q 16.703125 27.09375 16.703125 20.515625 
Q 16.703125 13.921875 20.71875 10.15625 
Q 24.75 6.390625 31.78125 6.390625 
Q 38.8125 6.390625 42.859375 10.171875 
Q 46.921875 13.96875 46.921875 20.515625 
Q 46.921875 27.09375 42.890625 30.859375 
Q 38.875 34.625 31.78125 34.625 
z
M 21.921875 38.8125 
Q 15.578125 40.375 12.03125 44.71875 
Q 8.5 49.078125 8.5 55.328125 
Q 8.5 64.0625 14.71875 69.140625 
Q 20.953125 74.21875 31.78125 74.21875 
Q 42.671875 74.21875 48.875 69.140625 
Q 55.078125 64.0625 55.078125 55.328125 
Q 55.078125 49.078125 51.53125 44.71875 
Q 48 40.375 41.703125 38.8125 
Q 48.828125 37.15625 52.796875 32.3125 
Q 56.78125 27.484375 56.78125 20.515625 
Q 56.78125 9.90625 50.3125 4.234375 
Q 43.84375 -1.421875 31.78125 -1.421875 
Q 19.734375 -1.421875 13.25 4.234375 
Q 6.78125 9.90625 6.78125 20.515625 
Q 6.78125 27.484375 10.78125 32.3125 
Q 14.796875 37.15625 21.921875 38.8125 
z
M 18.3125 54.390625 
Q 18.3125 48.734375 21.84375 45.5625 
Q 25.390625 42.390625 31.78125 42.390625 
Q 38.140625 42.390625 41.71875 45.5625 
Q 45.3125 48.734375 45.3125 54.390625 
Q 45.3125 60.0625 41.71875 63.234375 
Q 38.140625 66.40625 31.78125 66.40625 
Q 25.390625 66.40625 21.84375 63.234375 
Q 18.3125 60.0625 18.3125 54.390625 
z
" id="DejaVuSans-56"/>
       </defs>
       <use xlink:href="#DejaVuSans-48"/>
       <use x="63.623047" xlink:href="#DejaVuSans-46"/>
       <use x="95.410156" xlink:href="#DejaVuSans-56"/>
      </g>
     </g>
    </g>
    <g id="xtick_6">
     <g id="line2d_6">
      <g>
       <use style="stroke:#000000;stroke-width:0.8;" x="721.8" xlink:href="#m7c00421bd5" y="756"/>
      </g>
     </g>
     <g id="text_6">
      <!-- 1.0 -->
      <g transform="translate(713.848438 770.598438)scale(0.1 -0.1)">
       <defs>
        <path d="M 12.40625 8.296875 
L 28.515625 8.296875 
L 28.515625 63.921875 
L 10.984375 60.40625 
L 10.984375 69.390625 
L 28.421875 72.90625 
L 38.28125 72.90625 
L 38.28125 8.296875 
L 54.390625 8.296875 
L 54.390625 0 
L 12.40625 0 
z
" id="DejaVuSans-49"/>
       </defs>
       <use xlink:href="#DejaVuSans-49"/>
       <use x="63.623047" xlink:href="#DejaVuSans-46"/>
       <use x="95.410156" xlink:href="#DejaVuSans-48"/>
      </g>
     </g>
    </g>
   </g>
   <g id="matplotlib.axis_2">
    <g id="ytick_1">
     <g id="line2d_7">
      <defs>
       <path d="M 0 0 
L -3.5 0 
" id="m07d320de71" style="stroke:#000000;stroke-width:0.8;"/>
      </defs>
      <g>
       <use style="stroke:#000000;stroke-width:0.8;" x="108" xlink:href="#m07d320de71" y="756"/>
      </g>
     </g>
     <g id="text_7">
      <!-- −0.6 -->
      <g transform="translate(76.717187 759.799219)scale(0.1 -0.1)">
       <defs>
        <path d="M 10.59375 35.5 
L 73.1875 35.5 
L 73.1875 27.203125 
L 10.59375 27.203125 
z
" id="DejaVuSans-8722"/>
       </defs>
       <use xlink:href="#DejaVuSans-8722"/>
       <use x="83.789062" xlink:href="#DejaVuSans-48"/>
       <use x="147.412109" xlink:href="#DejaVuSans-46"/>
       <use x="179.199219" xlink:href="#DejaVuSans-54"/>
      </g>
     </g>
    </g>
    <g id="ytick_2">
     <g id="line2d_8">
      <g>
       <use style="stroke:#000000;stroke-width:0.8;" x="108" xlink:href="#m07d320de71" y="647.28"/>
      </g>
     </g>
     <g id="text_8">
      <!-- −0.4 -->
      <g transform="translate(76.717187 651.079219)scale(0.1 -0.1)">
       <use xlink:href="#DejaVuSans-8722"/>
       <use x="83.789062" xlink:href="#DejaVuSans-48"/>
       <use x="147.412109" xlink:href="#DejaVuSans-46"/>
       <use x="179.199219" xlink:href="#DejaVuSans-52"/>
      </g>
     </g>
    </g>
    <g id="ytick_3">
     <g id="line2d_9">
      <g>
       <use style="stroke:#000000;stroke-width:0.8;" x="108" xlink:href="#m07d320de71" y="538.56"/>
      </g>
     </g>
     <g id="text_9">
      <!-- −0.2 -->
      <g transform="translate(76.717187 542.359219)scale(0.1 -0.1)">
       <use xlink:href="#DejaVuSans-8722"/>
       <use x="83.789062" xlink:href="#DejaVuSans-48"/>
       <use x="147.412109" xlink:href="#DejaVuSans-46"/>
       <use x="179.199219" xlink:href="#DejaVuSans-50"/>
      </g>
     </g>
    </g>
    <g id="ytick_4">
     <g id="line2d_10">
      <g>
       <use style="stroke:#000000;stroke-width:0.8;" x="108" xlink:href="#m07d320de71" y="429.84"/>
      </g>
     </g>
     <g id="text_10">
      <!-- 0.0 -->
      <g transform="translate(85.096875 433.639219)scale(0.1 -0.1)">
       <use xlink:href="#DejaVuSans-48"/>
       <use x="63.623047" xlink:href="#DejaVuSans-46"/>
       <use x="95.410156" xlink:href="#DejaVuSans-48"/>
      </g>
     </g>
    </g>
    <g id="ytick_5">
     <g id="line2d_11">
      <g>
       <use style="stroke:#000000;stroke-width:0.8;" x="108" xlink:href="#m07d320de71" y="321.12"/>
      </g>
     </g>
     <g id="text_11">
      <!-- 0.2 -->
      <g transform="translate(85.096875 324.919219)scale(0.1 -0.1)">
       <use xlink:href="#DejaVuSans-48"/>
       <use x="63.623047" xlink:href="#DejaVuSans-46"/>
       <use x="95.410156" xlink:href="#DejaVuSans-50"/>
      </g>
     </g>
    </g>
    <g id="ytick_6">
     <g id="line2d_12">
      <g>
       <use style="stroke:#000000;stroke-width:0.8;" x="108" xlink:href="#m07d320de71" y="212.4"/>
      </g>
     </g>
     <g id="text_12">
      <!-- 0.4 -->
      <g transform="translate(85.096875 216.199219)scale(0.1 -0.1)">
       <use xlink:href="#DejaVuSans-48"/>
       <use x="63.623047" xlink:href="#DejaVuSans-46"/>
       <use x="95.410156" xlink:href="#DejaVuSans-52"/>
      </g>
     </g>
    </g>
    <g id="ytick_7">
     <g id="line2d_13">
      <g>
       <use style="stroke:#000000;stroke-width:0.8;" x="108" xlink:href="#m07d320de71" y="103.68"/>
      </g>
     </g>
     <g id="text_13">
      <!-- 0.6 -->
      <g transform="translate(85.096875 107.479219)scale(0.1 -0.1)">
       <use xlink:href="#DejaVuSans-48"/>
       <use x="63.623047" xlink:href="#DejaVuSans-46"/>
       <use x="95.410156" xlink:href="#DejaVuSans-54"/>
      </g>
     </g>
    </g>
   </g>
   <g id="line2d_14">
    <path clip-path="url(#pc77eb1f816)" d="M 721.8 429.839992 
L 721.48162 441.940387 
L 720.718357 454.007252 
L 719.328832 466.022752 
L 717.382208 477.959138 
L 714.926432 489.785444 
L 711.937553 501.477835 
L 708.411361 513.014288 
L 704.379746 524.364783 
L 699.852568 535.504558 
L 694.830521 546.414802 
L 689.335195 557.074081 
L 683.39089 567.453883 
L 677.004357 577.539192 
L 670.193233 587.31587 
L 662.986882 596.756224 
L 655.397441 605.846186 
L 647.43913 614.576072 
L 639.148346 622.926402 
L 630.543339 630.886025 
L 621.639714 638.451903 
L 612.466211 645.601937 
L 603.045727 652.328525 
L 593.395745 658.63664 
L 583.549384 664.512584 
L 573.527035 669.948649 
L 563.345433 674.956193 
L 553.03726 679.519465 
L 542.621873 683.640106 
L 532.116989 687.337085 
L 521.55246 690.58273 
L 510.944942 693.397997 
L 500.315239 695.803498 
L 489.689288 697.764715 
L 479.07943 699.337663 
L 468.509679 700.498472 
L 457.997063 701.204137 
L 447.555439 701.581727 
L 437.208203 701.562527 
L 426.963291 701.175257 
L 416.841502 700.475273 
L 406.853874 699.379041 
L 397.01243 697.949782 
L 387.333331 696.217647 
L 377.820246 694.155464 
L 368.491923 691.824659 
L 359.348764 689.190231 
L 350.408201 686.306122 
L 341.669894 683.150929 
L 333.146927 679.76659 
L 324.839438 676.14571 
L 316.755948 672.318968 
L 308.897878 668.286792 
L 301.272137 664.070217 
L 293.878052 659.675525 
L 286.719309 655.125193 
L 279.794464 650.422285 
L 273.10965 645.587734 
L 266.658432 640.622475 
L 260.449595 635.550592 
L 254.470964 630.369541 
L 248.732376 625.10708 
L 243.217951 619.758654 
L 237.939664 614.348217 
L 232.881209 608.874672 
L 228.049769 603.353375 
L 223.440635 597.792161 
L 219.04371 592.195152 
L 214.867961 586.580478 
L 210.891605 580.944875 
L 207.124939 575.3052 
L 203.554678 569.665487 
L 200.173312 564.029514 
L 196.992623 558.410648 
L 193.986678 552.805987 
L 191.161996 547.226175 
L 188.518567 541.679525 
L 186.031116 536.163447 
L 183.714182 530.688382 
L 181.559978 525.258239 
L 179.546114 519.871838 
L 177.689457 514.538349 
L 174.393022 504.036383 
L 172.946462 498.873955 
L 170.428665 488.740784 
L 169.341235 483.772318 
L 167.515221 474.046988 
L 166.085001 464.605497 
L 165.02565 455.460065 
L 164.61611 450.998567 
L 164.13443 442.3077 
L 163.84356 433.918064 
L 163.843545 425.762744 
L 164.134104 417.379722 
L 164.614467 408.702447 
L 165.524142 399.725124 
L 166.728567 390.461543 
L 168.366318 380.911099 
L 169.31484 376.035535 
L 171.592833 366.079565 
L 172.892334 361.009065 
L 174.325251 355.875785 
L 177.590938 345.437208 
L 179.426978 340.138562 
L 181.418857 334.788434 
L 183.549542 329.395917 
L 185.837327 323.960778 
L 188.294067 318.485588 
L 190.904216 312.980968 
L 193.68974 307.445141 
L 196.654734 301.884624 
L 199.789642 296.311079 
L 203.120237 290.721408 
L 206.638193 285.127203 
L 210.34439 279.535155 
L 214.25739 273.945814 
L 218.365029 268.376942 
L 222.686875 262.826135 
L 227.219104 257.3076 
L 231.963452 251.831085 
L 236.932828 246.39809 
L 242.11487 241.027815 
L 247.527536 235.716433 
L 253.159711 230.48732 
L 259.023661 225.338297 
L 265.115017 220.290256 
L 271.438408 215.350149 
L 277.994735 210.528983 
L 284.77965 205.842404 
L 291.798594 201.293777 
L 299.041956 196.904486 
L 306.516614 192.674557 
L 314.212989 188.633526 
L 322.135831 184.776675 
L 330.272489 181.132545 
L 338.62611 177.697493 
L 347.185349 174.50172 
L 355.949382 171.544965 
L 364.907801 168.849259 
L 374.054067 166.427271 
L 383.380328 164.275656 
L 392.87365 162.439105 
L 402.52947 160.874812 
L 412.329735 159.674299 
L 422.270716 158.754015 
L 432.330956 158.274711 
L 442.502915 158.044263 
L 452.769232 158.255935 
L 463.113398 158.739922 
L 473.524552 159.703095 
L 483.977374 161.007717 
L 494.461226 162.749405 
L 504.954211 164.8773 
L 515.436278 167.412435 
L 525.893416 170.382685 
L 536.296486 173.757458 
L 546.629707 177.565396 
L 556.872959 181.805522 
L 566.998906 186.46074 
L 576.992623 191.550856 
L 586.82674 197.065397 
L 596.477794 202.995618 
L 605.931221 209.349554 
L 615.156339 216.112022 
L 624.129208 223.278247 
L 632.835501 230.849236 
L 641.248017 238.801697 
L 649.344909 247.126959 
L 657.113711 255.820223 
L 664.522087 264.862961 
L 671.549529 274.239703 
L 678.188239 283.939864 
L 684.416602 293.939358 
L 690.206996 304.220152 
L 695.555154 314.768131 
L 700.449171 325.559932 
L 704.8564 336.570649 
L 708.775934 347.782664 
L 712.208533 359.174373 
L 715.118029 370.715176 
L 717.504713 382.383748 
L 719.396069 394.158212 
L 720.750796 406.008863 
L 721.489215 417.908221 
L 721.8 429.839992 
L 721.8 429.839992 
" style="fill:none;stroke:#8000ff;stroke-linecap:square;stroke-width:1.5;"/>
   </g>
   <g id="line2d_15">
    <path clip-path="url(#pc77eb1f816)" d="M 108 429.84 
L 777.6 429.84 
" style="fill:none;stroke:#000000;stroke-dasharray:5.55,2.4;stroke-dashoffset:0;stroke-width:1.5;"/>
   </g>
   <g id="line2d_16">
    <path clip-path="url(#pc77eb1f816)" d="M 721.8 429.758112 
L 718.354415 440.802796 
L 699.278226 459.457238 
L 689.810131 470.107299 
L 662.167214 502.794156 
L 643.483089 523.900041 
L 633.902893 534.069341 
L 624.121672 543.921096 
L 614.120251 553.415904 
L 603.828858 562.456859 
L 593.308375 571.096023 
L 582.553927 579.280307 
L 571.569022 586.982245 
L 560.389587 594.212043 
L 549.055856 600.972044 
L 537.606095 607.279247 
L 526.036858 613.081494 
L 514.538195 618.336137 
L 503.348295 623.153737 
L 492.127388 627.367724 
L 480.952742 631.184695 
L 469.800474 634.394502 
L 458.718963 637.143581 
L 447.736563 639.472683 
L 436.865938 641.343593 
L 426.120366 642.700196 
L 415.527667 643.741157 
L 405.099546 644.242966 
L 394.850317 644.403105 
L 384.794291 644.191642 
L 374.941899 643.667411 
L 365.314496 642.685537 
L 355.916198 641.378706 
L 346.741725 639.839877 
L 337.816156 637.985379 
L 329.144127 635.830507 
L 320.718184 633.476564 
L 312.574225 630.773736 
L 304.670342 627.927254 
L 297.057364 624.800984 
L 289.700897 621.501932 
L 282.622331 618.022564 
L 275.831195 614.332945 
L 269.290681 610.550285 
L 263.051476 606.569073 
L 257.069515 602.499537 
L 251.373884 598.289106 
L 245.95117 593.983902 
L 240.773465 589.630052 
L 235.880738 585.181781 
L 231.214077 580.724657 
L 226.771821 576.267273 
L 222.559332 571.800237 
L 218.547798 567.365293 
L 214.805281 562.880622 
L 207.863239 554.057147 
L 204.720389 549.667422 
L 201.762132 545.313602 
L 196.336774 536.786907 
L 193.821315 532.641147 
L 189.263061 524.516767 
L 185.181156 516.695009 
L 181.625064 509.114263 
L 178.544162 501.786404 
L 175.89456 494.71538 
L 173.623813 487.923889 
L 171.62082 481.422297 
L 169.93114 475.184248 
L 167.803947 466.320447 
L 166.690593 460.716022 
L 165.398794 452.758274 
L 164.793469 447.741504 
L 164.084909 440.64594 
L 163.840815 434.026987 
L 163.818041 427.8142 
L 163.973025 423.566148 
L 164.412698 416.804644 
L 165.183217 409.56115 
L 166.360326 401.813787 
L 167.398959 396.361364 
L 169.364778 387.745419 
L 170.946667 381.697891 
L 173.853377 372.150576 
L 176.116562 365.445289 
L 178.753235 358.468324 
L 181.818932 351.250653 
L 185.371801 343.806852 
L 189.426009 336.135564 
L 193.965062 328.205534 
L 199.064435 320.043618 
L 201.806798 315.86104 
L 204.731933 311.63806 
L 207.84321 307.387179 
L 211.131218 303.09359 
L 218.246418 294.388004 
L 222.097801 289.994679 
L 226.176306 285.609104 
L 230.462961 281.202344 
L 234.955397 276.781517 
L 239.680903 272.371817 
L 244.651368 268.005559 
L 249.879064 263.688938 
L 255.368757 259.44876 
L 261.138038 255.313723 
L 267.145988 251.230974 
L 273.457699 247.331296 
L 280.015818 243.510216 
L 286.859126 239.867386 
L 293.970217 236.36966 
L 301.363306 233.089222 
L 309.020742 229.974338 
L 316.943915 227.093045 
L 325.139481 224.446434 
L 333.606701 222.155995 
L 342.334856 220.134903 
L 351.307393 218.44835 
L 360.514933 217.031308 
L 369.953729 216.022399 
L 379.605001 215.333494 
L 389.465256 215.054738 
L 399.513033 215.107179 
L 409.740119 215.629906 
L 420.130663 216.57053 
L 430.672275 217.785701 
L 441.337411 219.605656 
L 452.129802 221.726324 
L 463.021124 224.292259 
L 473.996057 227.309781 
L 485.035975 230.782135 
L 496.362144 234.660218 
L 507.913153 239.019958 
L 519.46277 243.80258 
L 530.96539 249.073129 
L 542.444038 254.731624 
L 553.857317 260.808507 
L 565.200603 267.278397 
L 576.464082 274.121459 
L 587.574754 281.427893 
L 598.582932 289.056106 
L 609.391983 297.147616 
L 620.059698 305.554645 
L 630.544303 314.299041 
L 640.819205 323.454648 
L 650.841333 333.206027 
L 660.651256 343.178048 
L 670.20931 353.368619 
L 679.435758 363.79002 
L 688.410114 374.36456 
L 697.06451 385.094701 
L 705.395037 395.953121 
L 713.208958 406.963252 
L 719.951718 418.571946 
L 721.8 429.758112 
L 721.8 429.758112 
" style="fill:none;stroke:#6032fe;stroke-linecap:square;stroke-width:1.5;"/>
   </g>
   <g id="line2d_17">
    <path clip-path="url(#pc77eb1f816)" d="M 108 429.84 
L 777.6 429.84 
" style="fill:none;stroke:#000000;stroke-dasharray:5.55,2.4;stroke-dashoffset:0;stroke-width:1.5;"/>
   </g>
   <g id="line2d_18">
    <path clip-path="url(#pc77eb1f816)" d="M 721.8 429.735156 
L 711.983371 436.531097 
L 696.976555 439.865442 
L 682.164703 444.251597 
L 667.760621 449.720681 
L 653.756115 455.910195 
L 640.077868 462.555327 
L 626.680365 469.510301 
L 613.467821 476.57703 
L 562.349198 505.208691 
L 549.762016 511.957496 
L 537.234542 518.4609 
L 524.745397 524.648731 
L 512.286391 530.474146 
L 499.875928 535.930114 
L 487.530793 541.010133 
L 475.275422 545.725884 
L 463.101864 550.015744 
L 451.07503 553.841199 
L 439.308014 557.308666 
L 427.663353 560.252003 
L 416.207017 562.870586 
L 404.909238 564.962755 
L 393.812758 566.653233 
L 382.936904 567.987438 
L 372.291502 568.935635 
L 361.886881 569.444254 
L 351.742704 569.713641 
L 341.867241 569.534685 
L 332.269452 569.086244 
L 322.956001 568.360615 
L 313.934548 567.391006 
L 305.218662 566.073195 
L 296.807299 564.532269 
L 288.69107 562.815071 
L 280.886506 560.88022 
L 273.395607 558.736319 
L 266.202925 556.4585 
L 259.339463 553.953503 
L 252.758583 551.381086 
L 246.503559 548.619625 
L 240.537667 545.77702 
L 234.875108 542.823773 
L 229.523643 539.753401 
L 224.438561 536.651161 
L 219.669324 533.438386 
L 215.164824 530.199579 
L 210.952179 526.897475 
L 207.013957 523.56129 
L 203.320355 520.231882 
L 199.907333 516.86646 
L 196.714892 513.53606 
L 193.737885 510.243616 
L 188.409383 503.784082 
L 183.947897 497.454896 
L 181.935085 494.41944 
L 178.520052 488.468377 
L 175.671064 482.828986 
L 173.268929 477.542692 
L 171.280646 472.592855 
L 169.634909 467.979942 
L 168.320615 463.677422 
L 167.297718 459.674851 
L 166.510835 455.968972 
L 165.399446 449.40962 
L 164.34182 440.288798 
L 164.039121 436.18509 
L 163.8 429.84 
L 163.956796 426.96571 
L 164.43542 420.54191 
L 164.969205 415.912584 
L 165.875872 408.901063 
L 167.038856 402.139812 
L 168.430123 396.32609 
L 169.708607 392.089221 
L 171.310768 387.552845 
L 173.214674 382.679721 
L 175.524152 377.484153 
L 178.216487 371.922143 
L 179.766408 369.026726 
L 183.33836 363.031748 
L 187.538678 356.743473 
L 189.906219 353.505429 
L 192.489043 350.231891 
L 195.270672 346.905314 
L 198.254663 343.527945 
L 201.467103 340.122994 
L 204.924827 336.709467 
L 208.642279 333.302989 
L 212.631074 329.921305 
L 216.907978 326.591769 
L 221.437304 323.262995 
L 226.285542 320.049226 
L 231.400641 316.860255 
L 236.825224 313.782886 
L 242.545606 310.795612 
L 248.581038 307.94856 
L 254.915424 305.215098 
L 261.55714 302.626591 
L 268.513849 300.217265 
L 275.792451 298.038006 
L 283.38423 296.080614 
L 291.278949 294.336132 
L 299.472959 292.81201 
L 307.966106 291.547142 
L 316.748855 290.525606 
L 325.821143 289.791008 
L 335.169375 289.2906 
L 344.792204 289.146274 
L 354.678544 289.299213 
L 364.826721 289.626665 
L 375.214323 290.424013 
L 385.851687 291.411462 
L 396.720398 292.72744 
L 407.809973 294.368116 
L 419.111517 296.338829 
L 430.702091 298.596177 
L 442.547229 301.205676 
L 454.573488 304.113848 
L 466.750564 307.382791 
L 479.098819 310.9107 
L 491.59092 314.736569 
L 504.227699 318.834105 
L 517.002096 323.183159 
L 529.862916 327.877649 
L 542.853749 332.77866 
L 555.895412 338.029887 
L 569.036089 343.494123 
L 582.246828 349.197641 
L 595.503545 355.156986 
L 608.769894 361.404253 
L 622.084664 367.832502 
L 635.411819 374.472352 
L 661.968038 388.477031 
L 675.214819 395.732343 
L 688.418091 403.137122 
L 701.443138 410.837046 
L 714.159426 418.923788 
L 721.8 429.735156 
L 721.8 429.735156 
" style="fill:none;stroke:#4062fa;stroke-linecap:square;stroke-width:1.5;"/>
   </g>
   <g id="line2d_19">
    <path clip-path="url(#pc77eb1f816)" d="M 108 429.84 
L 777.6 429.84 
" style="fill:none;stroke:#000000;stroke-dasharray:5.55,2.4;stroke-dashoffset:0;stroke-width:1.5;"/>
   </g>
   <g id="line2d_20">
    <path clip-path="url(#pc77eb1f816)" d="M 721.8 429.983522 
L 708.025304 432.099524 
L 693.337741 432.951957 
L 678.80402 435.332621 
L 664.379755 437.402469 
L 650.115941 440.520721 
L 636.059296 444.526408 
L 622.240475 449.210144 
L 608.660288 454.331699 
L 595.335049 459.822308 
L 582.257052 465.548256 
L 569.428171 471.445973 
L 520.193393 494.726132 
L 508.31477 500.114361 
L 496.584223 505.237658 
L 484.996888 510.069704 
L 473.555272 514.604964 
L 462.256863 518.803886 
L 450.956924 522.643655 
L 439.543206 526.162001 
L 428.26996 529.290529 
L 417.177957 532.098864 
L 406.251574 534.504279 
L 395.516761 536.539421 
L 384.988549 538.222037 
L 374.677441 539.553745 
L 364.593494 540.523211 
L 354.751726 541.211417 
L 345.160061 541.55072 
L 335.826537 541.611254 
L 326.757586 541.399148 
L 317.959737 540.924596 
L 309.442439 540.180031 
L 301.206644 539.185203 
L 293.248344 537.963081 
L 285.577617 536.506563 
L 278.196056 534.812301 
L 271.09497 532.890396 
L 264.29136 530.694491 
L 257.758597 528.208194 
L 251.519947 525.295874 
L 245.553496 521.735126 
L 239.867486 519.9035 
L 234.464526 517.995909 
L 229.31802 516.011593 
L 224.454581 513.944738 
L 219.84305 511.818332 
L 215.496749 509.634721 
L 211.405046 507.400008 
L 207.549524 505.125424 
L 203.949272 502.808768 
L 200.568635 500.465187 
L 197.402429 498.101576 
L 194.451245 495.721811 
L 191.693354 493.336649 
L 189.163246 490.94662 
L 184.615122 486.20577 
L 180.783373 481.548713 
L 177.548646 477.014027 
L 174.822061 472.63102 
L 172.559917 468.423798 
L 170.684762 464.427638 
L 169.154835 460.663895 
L 167.923727 457.13683 
L 166.956515 453.83381 
L 165.882294 449.289498 
L 165.203013 445.221338 
L 164.436369 439.470246 
L 164.089689 435.677279 
L 163.8 429.84 
L 164.06125 425.630103 
L 164.369054 422.170515 
L 165.198325 415.742812 
L 165.989013 410.454384 
L 166.926229 405.919077 
L 167.818134 402.624924 
L 168.967127 399.110542 
L 170.404063 395.351434 
L 172.164168 391.346298 
L 174.263114 387.102816 
L 176.795452 382.64694 
L 179.771809 377.991823 
L 183.328244 373.17504 
L 185.341028 370.715148 
L 187.521918 368.230865 
L 189.868893 365.727902 
L 192.406505 363.214246 
L 195.152492 360.700428 
L 198.102303 358.196497 
L 201.260341 355.709365 
L 204.643295 353.247813 
L 208.262139 350.818965 
L 212.129535 348.441179 
L 216.254179 346.126301 
L 220.646127 343.883037 
L 225.285695 341.709194 
L 230.212228 339.630852 
L 235.397138 337.643418 
L 240.866282 334.483926 
L 246.612498 331.409125 
L 252.646801 328.825982 
L 258.95971 326.573428 
L 265.555956 324.589718 
L 272.439488 322.850619 
L 279.613502 321.350957 
L 287.072038 320.07388 
L 294.808758 319.013641 
L 302.820861 318.172766 
L 311.107662 317.54236 
L 319.663035 317.13749 
L 328.486299 316.964959 
L 337.568934 317.00737 
L 346.909241 317.308781 
L 356.500134 317.848037 
L 366.340045 318.57875 
L 376.414844 319.601996 
L 386.729419 320.826003 
L 397.272218 322.293098 
L 408.036101 323.997717 
L 419.014855 325.937179 
L 430.008411 328.097173 
L 441.02453 330.492188 
L 452.244912 333.098169 
L 463.662596 335.932289 
L 475.27707 338.947749 
L 487.079629 342.159737 
L 511.232386 349.101614 
L 536.064016 356.729899 
L 561.511016 364.989291 
L 587.507372 373.781021 
L 613.967353 383.082035 
L 640.81032 392.80928 
L 667.962172 402.855316 
L 681.636322 407.96591 
L 695.349625 413.222726 
L 709.098516 418.816685 
L 721.8 424.246294 
L 721.8 424.246294 
" style="fill:none;stroke:#208ef4;stroke-linecap:square;stroke-width:1.5;"/>
   </g>
   <g id="line2d_21">
    <path clip-path="url(#pc77eb1f816)" d="M 108 429.84 
L 777.6 429.84 
" style="fill:none;stroke:#000000;stroke-dasharray:5.55,2.4;stroke-dashoffset:0;stroke-width:1.5;"/>
   </g>
   <g id="line2d_22">
    <path clip-path="url(#pc77eb1f816)" d="M 721.8 431.964812 
L 681.837848 431.920964 
L 668.527737 431.996442 
L 655.309182 432.742931 
L 642.239039 434.288683 
L 629.354387 436.478791 
L 616.670434 439.195412 
L 604.198088 442.356173 
L 591.946452 445.896155 
L 579.918731 449.758352 
L 568.101589 453.854168 
L 556.484797 458.122768 
L 533.784599 466.888197 
L 500.884479 479.812581 
L 479.640515 487.839925 
L 469.243514 491.600826 
L 459.027395 495.168206 
L 448.95192 498.533834 
L 439.015962 501.679135 
L 429.225002 504.597299 
L 419.575982 507.257997 
L 410.076423 509.660647 
L 400.734102 511.81105 
L 391.557352 513.719326 
L 382.552167 515.384701 
L 373.725188 516.821929 
L 365.081717 518.030972 
L 356.62749 519.023846 
L 348.366427 519.800052 
L 340.302094 520.390491 
L 332.437511 520.772117 
L 317.323992 521.150901 
L 310.078134 521.21407 
L 303.042222 521.042588 
L 296.21464 520.659487 
L 289.598836 520.07915 
L 283.190851 519.342002 
L 276.991733 518.513087 
L 271.002025 517.41869 
L 265.218493 516.213175 
L 259.642614 514.90835 
L 254.269175 513.507348 
L 249.098071 512.023461 
L 244.124288 510.462625 
L 239.348208 508.827528 
L 234.769227 507.126665 
L 230.383046 505.362003 
L 226.191029 503.540507 
L 222.189723 501.668758 
L 218.375502 499.753713 
L 211.290772 495.818529 
L 204.898111 491.793713 
L 199.145633 487.72836 
L 194.010504 483.65417 
L 189.46292 479.602694 
L 185.46037 475.601389 
L 181.940734 471.684866 
L 178.837327 467.880501 
L 176.107769 464.200364 
L 173.747251 460.646372 
L 171.735699 457.221573 
L 170.054833 453.929344 
L 168.667296 450.774436 
L 166.991465 446.32296 
L 165.686159 442.213729 
L 164.78574 438.419207 
L 164.253945 434.938423 
L 163.851211 430.795331 
L 163.845356 428.892636 
L 164.256794 424.757877 
L 164.780614 421.281965 
L 165.296158 418.785328 
L 166.419352 414.783793 
L 168.419778 408.916865 
L 169.675917 405.746074 
L 171.190709 402.428029 
L 173.020293 398.967513 
L 175.205043 395.379627 
L 177.768645 391.669933 
L 180.679667 387.830227 
L 183.977118 383.871234 
L 187.716864 379.810646 
L 191.956744 375.679221 
L 196.742387 371.501353 
L 202.110783 367.306756 
L 208.105446 363.133716 
L 211.357465 361.073306 
L 214.783147 359.036511 
L 218.387694 357.031829 
L 222.181326 355.070842 
L 226.167333 353.157701 
L 230.346906 351.299813 
L 234.72061 349.498214 
L 239.295606 347.769407 
L 244.074524 346.119397 
L 249.056754 344.556386 
L 254.245757 343.080027 
L 259.639168 341.703238 
L 265.242362 340.431644 
L 271.055067 339.371172 
L 277.07905 338.417943 
L 283.312562 337.58832 
L 289.755981 336.914096 
L 296.408123 336.413892 
L 303.267139 336.09693 
L 310.330731 335.962621 
L 317.597107 336.006432 
L 325.065635 336.228179 
L 332.734386 336.628852 
L 356.926996 338.438861 
L 365.381846 339.288508 
L 374.028995 340.290118 
L 382.867421 341.441518 
L 391.895002 342.742634 
L 401.110512 344.186973 
L 420.093752 347.515621 
L 439.801955 351.392183 
L 460.311517 355.781943 
L 481.5334 360.632043 
L 503.409148 365.890355 
L 525.903913 371.507664 
L 560.716844 380.477118 
L 608.859451 393.18563 
L 671.111757 409.618693 
L 709.123476 419.528946 
L 721.8 422.896868 
L 721.8 422.896868 
" style="fill:none;stroke:#00b5eb;stroke-linecap:square;stroke-width:1.5;"/>
   </g>
   <g id="line2d_23">
    <path clip-path="url(#pc77eb1f816)" d="M 108 429.84 
L 777.6 429.84 
" style="fill:none;stroke:#000000;stroke-dasharray:5.55,2.4;stroke-dashoffset:0;stroke-width:1.5;"/>
   </g>
   <g id="line2d_24">
    <path clip-path="url(#pc77eb1f816)" d="M 721.8 436.594374 
L 711.993415 434.262237 
L 702.041872 432.491324 
L 691.993019 431.369755 
L 681.913596 430.821961 
L 671.837071 430.70017 
L 661.788034 431.037093 
L 651.789802 431.797244 
L 641.862088 432.951495 
L 632.021397 434.470244 
L 622.275946 436.299308 
L 612.635922 438.415289 
L 603.105728 440.78108 
L 593.69557 443.389974 
L 584.406421 446.208029 
L 575.236765 449.201066 
L 566.181964 452.332906 
L 557.238621 455.576051 
L 539.66894 462.294218 
L 513.997078 472.522947 
L 489.01267 482.426506 
L 472.683904 488.621931 
L 456.596161 494.367422 
L 440.752054 499.600412 
L 432.924238 502.008648 
L 425.162671 504.274767 
L 417.467694 506.388169 
L 409.843168 508.349883 
L 402.288149 510.142882 
L 387.410146 513.302361 
L 380.094478 514.681888 
L 372.865062 515.872981 
L 365.727531 516.888387 
L 358.684036 517.721017 
L 351.739208 518.381588 
L 338.156527 519.28913 
L 331.524929 519.570906 
L 325.003909 519.721028 
L 318.595964 519.732229 
L 312.30358 519.618775 
L 306.1291 519.377597 
L 300.075203 519.011675 
L 294.143057 518.534322 
L 288.335005 517.940381 
L 282.652698 517.236866 
L 277.09773 516.426154 
L 271.670484 515.518695 
L 266.373767 514.509284 
L 261.206972 513.409564 
L 256.170933 512.223115 
L 251.269336 510.942337 
L 246.501245 509.577813 
L 241.867222 508.133623 
L 237.369127 506.60947 
L 228.777493 503.349936 
L 220.7314 499.821907 
L 216.914603 497.964258 
L 213.236592 496.047165 
L 209.69844 494.072849 
L 206.299947 492.04538 
L 203.040696 489.968984 
L 199.921014 487.84617 
L 194.096603 483.484789 
L 188.812765 479.002749 
L 184.075832 474.419252 
L 181.908826 472.098998 
L 177.987479 467.414031 
L 174.591538 462.704898 
L 171.68092 458.021267 
L 169.250556 453.384886 
L 167.337789 448.802608 
L 165.91416 444.312466 
L 164.936434 439.953861 
L 164.220225 435.772825 
L 163.865695 431.77045 
L 163.8 429.84 
L 164.015291 425.932552 
L 164.222464 423.91227 
L 164.915955 419.737257 
L 165.815689 415.376307 
L 167.046863 410.853776 
L 167.845846 408.549396 
L 168.768763 406.22816 
L 171.022278 401.543727 
L 173.745936 396.800213 
L 176.942177 392.017088 
L 180.63688 387.229859 
L 184.861402 382.481645 
L 189.623593 377.801888 
L 192.210749 375.501927 
L 194.936283 373.232897 
L 197.799326 370.997212 
L 200.806157 368.80643 
L 203.954061 366.662769 
L 207.244428 364.571962 
L 210.678287 362.540008 
L 214.255351 360.571298 
L 217.973538 358.667668 
L 221.833037 356.834879 
L 225.832489 355.076289 
L 229.973496 353.401908 
L 234.253814 351.813428 
L 238.66927 350.306627 
L 243.220316 348.890105 
L 247.904995 347.565311 
L 252.721893 346.335775 
L 257.671998 345.215684 
L 262.750825 344.197032 
L 267.956602 343.282298 
L 273.287833 342.476153 
L 278.743006 341.782538 
L 284.318606 341.194115 
L 295.825084 340.344163 
L 307.792129 339.912071 
L 320.206627 339.901214 
L 333.056442 340.306699 
L 346.331499 340.977812 
L 360.020766 342.09004 
L 374.114479 343.643356 
L 388.60255 345.612481 
L 403.475604 347.965321 
L 426.484416 352.038108 
L 442.276122 355.093291 
L 458.420845 358.40921 
L 483.270715 363.840812 
L 508.839851 369.756744 
L 535.072276 376.101029 
L 561.905757 382.80633 
L 607.773706 394.592896 
L 664.295823 409.168914 
L 692.991189 416.335618 
L 721.8 423.501989 
L 721.8 423.501989 
" style="fill:none;stroke:#20d5e1;stroke-linecap:square;stroke-width:1.5;"/>
   </g>
   <g id="line2d_25">
    <path clip-path="url(#pc77eb1f816)" d="M 108 429.84 
L 777.6 429.84 
" style="fill:none;stroke:#000000;stroke-dasharray:5.55,2.4;stroke-dashoffset:0;stroke-width:1.5;"/>
   </g>
   <g id="line2d_26">
    <path clip-path="url(#pc77eb1f816)" d="M 721.8 435.786605 
L 709.710091 433.15498 
L 697.488587 431.283006 
L 685.194484 430.384114 
L 672.895993 430.16677 
L 660.643363 430.545281 
L 648.47618 431.508987 
L 636.425495 432.999423 
L 624.517298 434.963643 
L 612.773807 437.36538 
L 601.211917 440.155966 
L 589.832595 443.256454 
L 578.636926 446.610189 
L 567.627514 450.178261 
L 556.797811 453.903448 
L 535.638056 461.604547 
L 495.07106 476.799783 
L 475.558715 483.754093 
L 465.986516 486.991586 
L 456.538658 490.051596 
L 447.217097 492.923395 
L 438.022937 495.596033 
L 428.962435 498.072161 
L 420.037099 500.342272 
L 411.252268 502.408328 
L 402.612453 504.273614 
L 394.12196 505.938249 
L 385.784626 507.406313 
L 377.604701 508.682428 
L 369.585111 509.77044 
L 361.729314 510.67929 
L 354.038539 511.406839 
L 346.517149 511.953627 
L 339.166632 512.372598 
L 331.989725 512.623468 
L 324.987552 512.712355 
L 311.513457 512.562607 
L 298.7503 512.144404 
L 292.63585 511.367199 
L 275.352543 508.543925 
L 269.940527 507.554305 
L 259.629662 505.327149 
L 249.988323 502.818094 
L 240.99518 500.07184 
L 232.627566 497.133039 
L 224.859427 494.041983 
L 217.670695 490.819378 
L 211.036279 487.49749 
L 204.934626 484.098892 
L 199.342128 480.64558 
L 194.239015 477.153691 
L 189.611098 473.633264 
L 185.440776 470.100194 
L 181.705625 466.57432 
L 178.385918 463.073831 
L 175.465191 459.609971 
L 172.93026 456.193304 
L 170.761965 452.838298 
L 168.934082 449.565031 
L 167.391549 446.397421 
L 166.182465 443.323392 
L 165.287602 440.354817 
L 164.669503 437.510266 
L 164.066787 433.513717 
L 163.8 429.84 
L 164.065884 426.18601 
L 164.64193 422.196495 
L 165.192231 419.347665 
L 165.984056 416.365288 
L 167.088696 413.273889 
L 168.511364 410.081654 
L 170.206075 406.77687 
L 172.227153 403.379733 
L 174.592174 399.903227 
L 177.327666 396.366918 
L 180.452812 392.782911 
L 183.990095 389.171366 
L 187.964325 385.554508 
L 192.398654 381.957127 
L 197.31536 378.40267 
L 202.729274 374.909887 
L 208.661823 371.508198 
L 215.128225 368.213149 
L 222.149868 365.054506 
L 229.747312 362.06848 
L 237.935049 359.272849 
L 246.734229 356.705071 
L 256.160811 354.389363 
L 266.231931 352.351845 
L 276.962287 350.627052 
L 288.364766 349.112173 
L 294.321557 348.61779 
L 306.751172 348.016378 
L 319.872049 347.641875 
L 333.684352 347.628341 
L 340.849129 347.787767 
L 348.186089 348.073404 
L 355.694326 348.509294 
L 371.222955 349.753075 
L 387.427795 351.447494 
L 404.303045 353.587063 
L 421.83729 356.172409 
L 440.017087 359.192033 
L 458.825074 362.628148 
L 478.24002 366.464549 
L 498.239748 370.662223 
L 518.795253 375.192467 
L 539.871549 380.029685 
L 572.37549 387.788436 
L 605.811176 396.031024 
L 663.168028 410.275808 
L 686.534105 415.916543 
L 721.8 424.14597 
L 721.8 424.14597 
" style="fill:none;stroke:#40ecd4;stroke-linecap:square;stroke-width:1.5;"/>
   </g>
   <g id="line2d_27">
    <path clip-path="url(#pc77eb1f816)" d="M 108 429.84 
L 777.6 429.84 
" style="fill:none;stroke:#000000;stroke-dasharray:5.55,2.4;stroke-dashoffset:0;stroke-width:1.5;"/>
   </g>
   <g id="line2d_28">
    <path clip-path="url(#pc77eb1f816)" d="M 721.8 434.637072 
L 707.980738 432.053515 
L 694.042594 430.273928 
L 680.051845 429.590479 
L 666.07666 429.566338 
L 652.179523 430.364527 
L 638.411202 431.791345 
L 624.80851 433.819086 
L 611.40207 436.376618 
L 598.218305 439.430982 
L 585.280763 442.934109 
L 572.583768 446.765341 
L 560.126245 450.854313 
L 547.904903 455.136707 
L 535.907533 459.53749 
L 478.782526 481.084462 
L 467.856362 484.962882 
L 457.08267 488.611779 
L 446.464681 492.016547 
L 436.005486 495.161654 
L 425.709071 498.033282 
L 415.581736 500.624696 
L 405.632118 502.93837 
L 395.868682 504.978489 
L 386.298565 506.74568 
L 376.929169 508.245232 
L 367.768974 509.506018 
L 358.823427 510.512608 
L 350.099349 511.279633 
L 341.601595 511.814627 
L 333.335194 512.132927 
L 325.303218 512.248651 
L 317.508708 512.171573 
L 309.953965 511.893859 
L 302.639752 511.28231 
L 288.736623 509.601709 
L 275.797183 507.632415 
L 269.685939 506.532991 
L 263.810548 505.359317 
L 258.169109 504.111256 
L 252.758742 502.793036 
L 247.574508 501.37069 
L 242.611888 499.778516 
L 237.867443 498.123916 
L 233.336015 496.416446 
L 224.888022 492.882855 
L 217.225535 489.234574 
L 210.297413 485.532469 
L 204.054457 481.82175 
L 198.449867 478.137346 
L 193.433912 474.513954 
L 188.966625 470.968432 
L 185.002591 467.522348 
L 181.50015 464.191851 
L 178.424116 460.984017 
L 175.742703 457.904194 
L 173.422869 454.957791 
L 171.435899 452.148331 
L 169.745021 449.482402 
L 168.338035 446.953438 
L 166.677546 443.430788 
L 165.473671 440.232338 
L 164.878867 438.280018 
L 164.333872 435.591314 
L 163.951545 431.76475 
L 163.847273 429.220144 
L 164.296669 424.088684 
L 164.783394 421.404222 
L 165.307061 419.447381 
L 166.833095 415.09413 
L 168.498241 411.438953 
L 169.904041 408.813092 
L 171.582767 406.037407 
L 173.565815 403.117687 
L 175.886953 400.058639 
L 178.584362 396.872067 
L 181.696009 393.569469 
L 185.25381 390.160512 
L 189.296601 386.660589 
L 193.864604 383.089128 
L 199.003114 379.475849 
L 204.754363 375.84906 
L 211.158702 372.238716 
L 218.264306 368.695026 
L 222.092459 366.961273 
L 226.112957 365.265869 
L 230.329581 363.613027 
L 234.746311 362.008802 
L 239.368849 360.463584 
L 244.200067 358.981918 
L 249.24494 357.575001 
L 254.505919 356.322743 
L 259.986871 355.206193 
L 265.690276 354.170554 
L 271.61884 353.224189 
L 277.773384 352.365842 
L 284.155642 351.6039 
L 290.766376 350.939463 
L 297.605815 350.37196 
L 304.674363 349.902169 
L 311.972386 349.531658 
L 327.256978 349.123801 
L 335.242773 349.273999 
L 343.456798 349.595077 
L 351.898604 350.057049 
L 360.567297 350.658024 
L 369.461408 351.402595 
L 378.579734 352.293632 
L 387.920556 353.329969 
L 397.481188 354.517708 
L 407.260476 355.845623 
L 427.462926 358.925698 
L 448.501251 362.561002 
L 470.349982 366.695552 
L 492.973298 371.289807 
L 516.324957 376.314299 
L 540.351718 381.729653 
L 564.991276 387.496778 
L 602.956616 396.662515 
L 668.337027 412.523169 
L 721.8 425.035345 
L 721.8 425.035345 
" style="fill:none;stroke:#60fac5;stroke-linecap:square;stroke-width:1.5;"/>
   </g>
   <g id="line2d_29">
    <path clip-path="url(#pc77eb1f816)" d="M 108 429.84 
L 777.6 429.84 
" style="fill:none;stroke:#000000;stroke-dasharray:5.55,2.4;stroke-dashoffset:0;stroke-width:1.5;"/>
   </g>
   <g id="line2d_30">
    <path clip-path="url(#pc77eb1f816)" d="M 721.8 433.596259 
L 710.110896 431.582733 
L 698.370291 430.079759 
L 686.592077 429.147639 
L 674.808274 428.7046 
L 663.049663 428.791463 
L 651.346869 429.270543 
L 639.726294 430.153905 
L 628.209418 431.391243 
L 616.814254 433.104209 
L 605.55953 435.193425 
L 594.458781 437.614589 
L 583.526326 440.352288 
L 572.761893 443.339204 
L 562.161889 446.516785 
L 551.725009 449.846493 
L 541.445417 453.281979 
L 521.338549 460.325294 
L 482.720242 474.047547 
L 464.120559 480.263928 
L 454.989137 483.138303 
L 445.971446 485.841964 
L 437.069436 488.366097 
L 428.283735 490.696879 
L 419.61881 492.843118 
L 411.079389 495.082969 
L 402.668631 497.0967 
L 394.392809 498.888454 
L 386.255175 500.447832 
L 378.263014 501.794504 
L 370.417189 502.911456 
L 362.724098 503.817023 
L 355.18635 504.507676 
L 347.806986 504.869033 
L 340.589742 505.014364 
L 333.536666 505.032795 
L 326.649942 504.918669 
L 319.931126 504.673314 
L 313.381688 504.297248 
L 307.002363 503.789134 
L 300.793892 503.152247 
L 288.889487 501.569474 
L 283.192566 500.78302 
L 272.30659 498.942128 
L 262.088959 496.785661 
L 252.527552 494.357061 
L 243.604894 491.703398 
L 235.299054 488.874172 
L 227.590278 485.900662 
L 220.452542 482.823848 
L 213.861148 479.674172 
L 207.786242 476.4881 
L 202.204249 473.283135 
L 197.091081 470.078164 
L 192.421741 466.890649 
L 188.169075 463.739849 
L 184.28822 460.665954 
L 180.775519 457.650729 
L 177.620994 454.691169 
L 174.808517 451.789287 
L 172.329683 448.944687 
L 170.150781 446.173634 
L 168.30951 443.449325 
L 166.795962 440.783282 
L 165.581112 438.191367 
L 164.657336 435.67576 
L 164.327007 434.452437 
L 163.844742 430.938322 
L 163.840593 428.735114 
L 164.205058 425.20909 
L 164.761374 422.689437 
L 165.556336 420.054882 
L 166.661246 417.320912 
L 168.105618 414.509175 
L 169.859541 411.618225 
L 171.929674 408.65463 
L 174.347818 405.636228 
L 177.131936 402.579187 
L 181.924991 397.833172 
L 185.590879 394.607616 
L 189.684204 391.377905 
L 194.213706 388.147564 
L 199.198193 384.929743 
L 204.659094 381.740853 
L 210.617376 378.60375 
L 217.092857 375.535395 
L 224.108792 372.565822 
L 231.686715 369.724485 
L 239.844709 367.037521 
L 248.604485 364.550305 
L 257.979174 362.285272 
L 267.985097 360.288953 
L 278.632461 358.594683 
L 289.927416 357.216552 
L 301.876345 355.955456 
L 308.097056 355.470132 
L 314.482174 355.113817 
L 321.031413 354.876313 
L 327.744428 354.767658 
L 334.621106 354.77548 
L 341.660558 354.902649 
L 356.225253 355.503825 
L 371.432599 356.538541 
L 387.274321 358.304297 
L 420.817136 362.750833 
L 438.490493 365.443514 
L 456.745111 368.508764 
L 475.559056 371.935695 
L 494.909525 375.696572 
L 514.770068 379.761936 
L 535.110028 384.102855 
L 566.444165 391.053304 
L 609.560242 400.916706 
L 665.124059 413.608068 
L 676.400211 416.122708 
L 710.431349 423.400741 
L 721.8 425.893464 
L 721.8 425.893464 
" style="fill:none;stroke:#80ffb4;stroke-linecap:square;stroke-width:1.5;"/>
   </g>
   <g id="line2d_31">
    <path clip-path="url(#pc77eb1f816)" d="M 108 429.84 
L 777.6 429.84 
" style="fill:none;stroke:#000000;stroke-dasharray:5.55,2.4;stroke-dashoffset:0;stroke-width:1.5;"/>
   </g>
   <g id="line2d_32">
    <path clip-path="url(#pc77eb1f816)" d="M 721.8 432.601114 
L 709.947561 430.804439 
L 698.059916 429.386545 
L 686.145409 428.353781 
L 674.225938 427.705704 
L 662.328758 427.579973 
L 650.482912 427.994423 
L 638.71426 428.874416 
L 627.044433 430.161519 
L 615.493915 431.747336 
L 604.082993 433.690085 
L 592.829198 435.978387 
L 581.746523 438.586824 
L 570.836005 441.449181 
L 560.096831 444.511426 
L 549.528745 447.733352 
L 539.126278 451.066437 
L 518.797398 457.908013 
L 479.836246 471.216638 
L 461.116849 477.210186 
L 451.938383 479.965961 
L 442.882113 482.544833 
L 433.950754 484.941072 
L 425.145487 487.142544 
L 416.471064 489.146105 
L 407.932046 490.827039 
L 399.531598 492.317709 
L 391.275598 493.634014 
L 383.167252 494.781968 
L 375.213016 495.781209 
L 367.413636 496.626026 
L 359.774692 497.338395 
L 352.298312 497.914016 
L 337.843273 498.701697 
L 324.065104 499.051359 
L 310.973207 499.010606 
L 298.570995 498.618346 
L 292.627767 498.314576 
L 286.85606 497.852676 
L 275.822186 496.250809 
L 265.45747 494.335322 
L 255.748956 492.142826 
L 246.679989 489.716683 
L 238.22853 487.106548 
L 230.372293 484.350234 
L 223.08705 481.482614 
L 216.348381 478.533523 
L 210.127309 475.536777 
L 204.398624 472.516033 
L 199.135824 469.492216 
L 194.316288 466.478653 
L 189.91843 463.485688 
L 184.030161 459.103443 
L 180.552065 456.25583 
L 177.426749 453.453343 
L 174.64022 450.696975 
L 172.185386 447.988971 
L 170.02148 445.355958 
L 168.189109 442.765998 
L 166.70409 440.22321 
L 165.534148 437.75263 
L 164.661771 435.361601 
L 164.145531 433.069374 
L 163.854657 430.879904 
L 163.849617 428.800631 
L 164.22103 425.467068 
L 164.745332 423.078357 
L 165.490763 420.573226 
L 166.542948 417.965783 
L 167.923621 415.274905 
L 169.613727 412.503645 
L 171.615391 409.661408 
L 173.963641 406.76756 
L 176.669044 403.833052 
L 179.698263 400.816818 
L 183.075469 397.733356 
L 186.860221 394.638027 
L 191.065895 391.539608 
L 195.711009 388.450589 
L 200.810179 385.379383 
L 206.384025 382.341997 
L 212.455804 379.36168 
L 219.048373 376.463222 
L 226.179831 373.663675 
L 233.874214 370.996566 
L 242.150572 368.488374 
L 251.029765 366.179291 
L 260.526502 364.090105 
L 270.657474 362.262263 
L 281.435497 360.730331 
L 287.069459 360.070577 
L 292.868888 359.647867 
L 304.967763 359.179648 
L 317.738102 358.920551 
L 331.182641 358.896593 
L 345.30241 359.133478 
L 360.095512 359.680838 
L 375.557661 360.570539 
L 391.68078 361.878748 
L 399.986753 362.744156 
L 417.081247 364.880047 
L 434.805883 367.428651 
L 453.14558 370.364287 
L 472.078894 373.673929 
L 491.582891 377.329324 
L 511.629302 381.306557 
L 532.186786 385.573962 
L 563.904752 392.431709 
L 675.59876 416.996482 
L 710.227875 424.303299 
L 721.8 426.692627 
L 721.8 426.692627 
" style="fill:none;stroke:#a0faa1;stroke-linecap:square;stroke-width:1.5;"/>
   </g>
   <g id="line2d_33">
    <path clip-path="url(#pc77eb1f816)" d="M 108 429.84 
L 777.6 429.84 
" style="fill:none;stroke:#000000;stroke-dasharray:5.55,2.4;stroke-dashoffset:0;stroke-width:1.5;"/>
   </g>
   <g id="line2d_34">
    <path clip-path="url(#pc77eb1f816)" d="M 721.8 431.687748 
L 708.262801 429.7494 
L 694.690849 428.285778 
L 681.109967 427.337582 
L 667.538355 426.846866 
L 654.013428 426.926459 
L 640.572319 427.558124 
L 627.245781 428.642443 
L 614.061285 430.155211 
L 601.050548 432.13043 
L 588.240643 434.553156 
L 575.647611 437.353207 
L 563.275397 440.447197 
L 551.12652 443.773469 
L 539.201962 447.279439 
L 527.495223 450.899611 
L 493.585004 461.839326 
L 471.898692 468.702049 
L 461.314964 471.89144 
L 450.900934 474.880716 
L 440.659355 477.656913 
L 430.590583 480.196664 
L 420.697867 482.485969 
L 410.986868 484.518778 
L 401.466115 486.304865 
L 392.142072 487.844982 
L 383.021965 489.154377 
L 374.112182 490.315291 
L 365.417276 491.245804 
L 356.94246 491.961814 
L 348.691789 492.478879 
L 340.668285 492.80896 
L 332.873732 492.962281 
L 325.309653 492.963496 
L 317.976779 492.801095 
L 310.874348 492.509095 
L 304.001966 492.088981 
L 297.357789 491.553533 
L 290.939653 490.91435 
L 284.745614 490.176043 
L 273.017299 488.438424 
L 262.145635 486.407964 
L 252.097565 484.143604 
L 242.836102 481.700344 
L 234.319346 479.137271 
L 226.508485 476.490409 
L 219.360094 473.799122 
L 212.830146 471.099641 
L 206.878659 468.413807 
L 201.463397 465.765815 
L 196.550002 463.164355 
L 190.033102 459.389981 
L 184.444818 455.785138 
L 179.691837 452.352666 
L 175.68682 449.097266 
L 172.347377 446.025505 
L 169.644836 443.097438 
L 168.17567 441.225599 
L 165.833022 437.774526 
L 165.082594 436.117318 
L 164.605613 434.530213 
L 163.990186 431.037498 
L 163.8 429.84 
L 164.758522 423.521844 
L 165.621135 420.895817 
L 166.966439 418.040139 
L 168.122019 415.999449 
L 170.339227 412.763321 
L 172.142736 410.477638 
L 174.236997 408.094822 
L 176.648353 405.622751 
L 179.4106 403.075714 
L 182.547593 400.458541 
L 186.077503 397.766306 
L 190.034511 395.012532 
L 194.452543 392.21259 
L 199.361552 389.37304 
L 204.795657 386.50873 
L 210.793276 383.640958 
L 217.391002 380.789832 
L 224.628543 377.986917 
L 232.543919 375.25902 
L 241.174713 372.6387 
L 250.561157 370.180014 
L 260.73643 367.917832 
L 271.734279 365.910057 
L 277.551181 365.017384 
L 283.584068 364.207682 
L 289.835347 363.48477 
L 296.307743 362.855458 
L 303.003505 362.32819 
L 309.924211 361.907354 
L 317.071306 361.604117 
L 324.445981 361.430721 
L 332.048361 361.384515 
L 339.878644 361.460961 
L 347.936429 361.699035 
L 356.221505 362.073207 
L 373.469424 363.188954 
L 382.430115 363.941562 
L 391.613988 364.826502 
L 401.018657 365.848716 
L 420.481535 368.299348 
L 440.797576 371.276502 
L 461.94132 374.748034 
L 483.879582 378.682841 
L 506.571036 383.049656 
L 529.969195 387.799842 
L 566.287462 395.452117 
L 629.563009 408.932018 
L 668.762767 417.020992 
L 721.8 427.459397 
L 721.8 427.459397 
" style="fill:none;stroke:#c0eb8d;stroke-linecap:square;stroke-width:1.5;"/>
   </g>
   <g id="line2d_35">
    <path clip-path="url(#pc77eb1f816)" d="M 108 429.84 
L 777.6 429.84 
" style="fill:none;stroke:#000000;stroke-dasharray:5.55,2.4;stroke-dashoffset:0;stroke-width:1.5;"/>
   </g>
   <g id="line2d_36">
    <path clip-path="url(#pc77eb1f816)" d="M 721.8 430.764167 
L 708.272653 429.111779 
L 694.715605 427.862436 
L 681.153362 427.048821 
L 667.60225 426.623644 
L 654.098282 426.683412 
L 640.677345 427.237839 
L 627.369456 428.273047 
L 614.201164 429.783332 
L 601.202695 431.669497 
L 588.399838 433.946679 
L 575.807578 436.559486 
L 563.431238 439.439984 
L 551.274353 442.537018 
L 539.338915 445.806113 
L 527.619817 449.187923 
L 504.797587 456.061961 
L 482.740865 462.753509 
L 461.398661 468.931547 
L 450.988515 471.755968 
L 440.754007 474.38066 
L 430.694528 476.773791 
L 420.812718 478.917001 
L 411.11418 480.80467 
L 401.60688 482.442487 
L 392.297419 483.834966 
L 383.192884 484.986327 
L 374.299747 485.702339 
L 365.622541 486.233165 
L 357.166128 486.584585 
L 348.934555 486.776763 
L 340.930591 486.811781 
L 325.611958 486.462308 
L 318.299145 486.093707 
L 311.216678 485.620184 
L 297.738712 484.385468 
L 285.162695 482.825586 
L 273.466596 481.003555 
L 262.622664 478.969511 
L 252.5971 476.783229 
L 243.352672 474.4891 
L 234.847084 472.139054 
L 227.041516 469.758951 
L 219.892946 467.377224 
L 213.358193 465.01642 
L 204.618714 461.586096 
L 197.037916 458.396579 
L 190.489231 455.334388 
L 184.864233 452.397324 
L 180.069207 449.591427 
L 176.01782 446.915043 
L 172.628837 444.368017 
L 169.868796 441.93209 
L 168.358572 440.354378 
L 165.940093 437.378021 
L 165.154847 435.876682 
L 164.653609 434.380941 
L 164.137394 431.619665 
L 163.8 429.84 
L 164.193419 427.400829 
L 164.627952 424.50084 
L 165.084864 422.91748 
L 165.736266 421.262359 
L 167.132927 418.646373 
L 168.319856 416.783452 
L 170.57928 413.843983 
L 172.409558 411.778751 
L 174.528774 409.632228 
L 176.962593 407.408865 
L 179.741984 405.105934 
L 182.891557 402.728733 
L 186.430852 400.278769 
L 190.393678 397.764664 
L 194.812699 395.188679 
L 199.71847 392.558221 
L 205.145595 389.88766 
L 211.132356 387.192469 
L 217.715638 384.489996 
L 224.934089 381.790796 
L 232.827441 379.133501 
L 241.434073 376.553442 
L 250.792197 373.999403 
L 260.939089 371.576044 
L 271.906941 369.344085 
L 283.72714 367.377009 
L 289.963432 366.495178 
L 296.421915 365.71281 
L 303.104649 365.036026 
L 310.012948 364.462321 
L 317.148189 363.998301 
L 324.51147 363.642845 
L 332.103173 363.430625 
L 339.923486 363.329877 
L 347.971751 363.369136 
L 356.247643 363.539927 
L 364.750204 363.885437 
L 373.4785 364.453613 
L 382.430963 365.170729 
L 401.00418 367.01871 
L 420.452374 369.442082 
L 440.754204 372.422035 
L 461.886608 375.892795 
L 483.814671 379.847385 
L 506.497287 384.250737 
L 529.888307 389.049374 
L 566.202255 396.756135 
L 616.597411 407.51094 
L 655.562053 415.528939 
L 695.193592 423.392122 
L 721.8 428.425394 
L 721.8 428.425394 
" style="fill:none;stroke:#e0d377;stroke-linecap:square;stroke-width:1.5;"/>
   </g>
   <g id="line2d_37">
    <path clip-path="url(#pc77eb1f816)" d="M 108 429.84 
L 777.6 429.84 
" style="fill:none;stroke:#000000;stroke-dasharray:5.55,2.4;stroke-dashoffset:0;stroke-width:1.5;"/>
   </g>
   <g id="line2d_38">
    <path clip-path="url(#pc77eb1f816)" d="M 721.8 430.084417 
L 708.404098 428.721007 
L 695.003467 427.675563 
L 681.615256 426.962901 
L 668.246684 426.559336 
L 654.926331 426.608684 
L 641.683519 427.088452 
L 628.544382 427.965551 
L 615.53062 429.204556 
L 602.664533 430.784333 
L 589.965216 432.684951 
L 577.442504 434.841424 
L 565.109028 437.227662 
L 552.973285 439.809261 
L 541.04218 442.555229 
L 529.317793 445.423462 
L 506.484792 451.351261 
L 473.727622 460.111213 
L 452.842037 465.44237 
L 442.682807 467.886237 
L 432.707109 470.13051 
L 422.91433 472.147904 
L 413.309597 473.932558 
L 403.897802 475.479048 
L 394.685967 476.7949 
L 385.680382 477.889011 
L 376.887822 478.779643 
L 368.312661 479.478607 
L 359.958068 479.986935 
L 351.828 480.332451 
L 343.92414 480.519152 
L 328.799557 480.451699 
L 321.578987 480.234096 
L 307.815783 479.484115 
L 294.941579 478.396365 
L 282.933245 477.032504 
L 271.761228 475.453369 
L 261.394317 473.69427 
L 251.793772 471.817217 
L 242.921707 469.853401 
L 234.735633 467.848668 
L 227.197472 465.819957 
L 220.269518 463.781611 
L 210.93445 460.753244 
L 202.757764 457.819267 
L 195.61896 454.988202 
L 189.416065 452.256622 
L 184.054355 449.628583 
L 179.446212 447.109108 
L 175.515725 444.693826 
L 172.203514 442.371733 
L 170.306298 440.879911 
L 167.209696 437.99607 
L 166.050467 436.558387 
L 165.222942 435.086513 
L 164.724822 433.625071 
L 163.8 429.84 
L 164.441549 426.736134 
L 164.949195 424.531594 
L 165.56458 422.967534 
L 166.419065 421.34283 
L 168.133887 418.788753 
L 169.525802 416.973366 
L 172.077985 414.115986 
L 174.100901 412.113652 
L 177.672681 408.97026 
L 181.954055 405.659352 
L 185.239903 403.357527 
L 188.902666 400.985904 
L 192.973637 398.551716 
L 197.478714 396.052893 
L 202.45108 393.497573 
L 207.926966 390.900265 
L 213.943258 388.274864 
L 220.537435 385.638254 
L 227.741976 382.993401 
L 235.603942 380.383969 
L 244.164617 377.84777 
L 253.450874 375.360505 
L 263.519048 373.034655 
L 274.39248 370.877603 
L 286.11141 368.973376 
L 292.292496 368.10667 
L 298.698538 367.350992 
L 305.330521 366.712733 
L 312.188385 366.184265 
L 326.585164 365.443181 
L 334.126257 365.301715 
L 341.896448 365.290678 
L 349.893755 365.417481 
L 366.567012 366.174056 
L 375.240392 366.772859 
L 384.135748 367.527589 
L 402.590718 369.44495 
L 421.911116 371.950678 
L 442.074755 375.023838 
L 452.473983 376.708129 
L 473.865832 380.488647 
L 496.031651 384.708422 
L 518.921786 389.358824 
L 554.537116 396.872548 
L 604.145846 407.357602 
L 629.722233 412.54393 
L 655.701171 417.611441 
L 681.992241 422.485828 
L 708.499119 427.080389 
L 721.8 429.273614 
L 721.8 429.273614 
" style="fill:none;stroke:#ffb360;stroke-linecap:square;stroke-width:1.5;"/>
   </g>
   <g id="line2d_39">
    <path clip-path="url(#pc77eb1f816)" d="M 108 429.84 
L 777.6 429.84 
" style="fill:none;stroke:#000000;stroke-dasharray:5.55,2.4;stroke-dashoffset:0;stroke-width:1.5;"/>
   </g>
   <g id="line2d_40">
    <path clip-path="url(#pc77eb1f816)" d="M 721.8 430.042036 
L 708.417803 428.699853 
L 695.033482 427.668925 
L 681.663416 426.962563 
L 668.313877 426.559087 
L 655.012668 426.608388 
L 641.788429 427.082832 
L 628.666887 427.945455 
L 615.669237 429.164855 
L 602.816953 430.719079 
L 590.128432 432.58744 
L 577.612971 434.705783 
L 565.283965 437.051668 
L 553.150426 439.591768 
L 541.219773 442.295989 
L 529.494835 445.123752 
L 506.660711 450.978878 
L 463.377034 462.375835 
L 442.883915 467.397699 
L 432.916953 469.637095 
L 423.133457 471.652325 
L 413.538505 473.437463 
L 404.136668 474.986115 
L 394.935012 476.305834 
L 385.939744 477.405193 
L 377.157671 478.304066 
L 368.59315 479.012825 
L 360.249173 479.531848 
L 352.129689 479.889196 
L 344.236266 480.088779 
L 329.131916 480.048128 
L 321.920964 479.845631 
L 308.175702 479.126643 
L 295.317198 478.072227 
L 283.321811 476.743602 
L 272.159603 475.200863 
L 261.799338 473.477963 
L 252.20187 471.637155 
L 243.32958 469.708364 
L 235.139765 467.737406 
L 227.594737 465.740324 
L 220.65716 463.731114 
L 211.303263 460.740957 
L 203.103333 457.812651 
L 195.937427 454.982762 
L 189.705266 452.252221 
L 184.312317 449.6251 
L 179.671 447.106438 
L 175.706581 444.691855 
L 172.357625 442.370378 
L 170.434162 440.878924 
L 167.28896 437.995634 
L 166.1065 436.558137 
L 165.259452 435.086375 
L 164.749041 433.624985 
L 163.8 429.84 
L 165.264804 423.757865 
L 166.017855 422.159808 
L 167.029042 420.516792 
L 168.913665 417.889254 
L 170.453927 416.043496 
L 173.219876 413.123829 
L 176.602378 410.037646 
L 180.667194 406.784732 
L 183.789865 404.520287 
L 187.273761 402.182623 
L 191.148556 399.778778 
L 195.443823 397.313399 
L 200.185917 394.785061 
L 205.411488 392.207093 
L 211.157043 389.59438 
L 217.460357 386.962897 
L 224.354472 384.31955 
L 231.880034 381.688436 
L 240.08264 379.112855 
L 248.995533 376.603891 
L 253.728084 375.377169 
L 263.788051 373.070273 
L 274.651638 370.930907 
L 286.360008 369.043547 
L 292.535338 368.183928 
L 298.935913 367.436062 
L 305.562605 366.806285 
L 312.41521 366.286457 
L 326.80138 365.560032 
L 334.337197 365.427035 
L 342.102162 365.424765 
L 350.094155 365.558753 
L 366.756443 366.332649 
L 375.424098 366.939049 
L 384.313499 367.701423 
L 402.75614 369.632327 
L 422.063214 372.150333 
L 442.212444 375.234413 
L 452.60483 376.921257 
L 473.981796 380.707363 
L 496.132507 384.929159 
L 519.006811 389.579653 
L 554.599065 397.086453 
L 604.180704 407.546969 
L 629.746169 412.713328 
L 655.715676 417.756458 
L 681.998768 422.601603 
L 708.500244 427.158394 
L 721.8 429.32992 
L 721.8 429.32992 
" style="fill:none;stroke:#ff8c49;stroke-linecap:square;stroke-width:1.5;"/>
   </g>
   <g id="line2d_41">
    <path clip-path="url(#pc77eb1f816)" d="M 108 429.84 
L 777.6 429.84 
" style="fill:none;stroke:#000000;stroke-dasharray:5.55,2.4;stroke-dashoffset:0;stroke-width:1.5;"/>
   </g>
   <g id="line2d_42">
    <path clip-path="url(#pc77eb1f816)" d="M 721.8 430.042036 
L 708.417803 428.699853 
L 695.033482 427.668925 
L 681.663416 426.962563 
L 668.313877 426.559087 
L 655.012668 426.608388 
L 641.788429 427.082832 
L 628.666887 427.945455 
L 615.669237 429.164855 
L 602.816953 430.719079 
L 590.128432 432.58744 
L 577.612971 434.705783 
L 565.283965 437.051668 
L 553.150426 439.591768 
L 541.219773 442.295989 
L 529.494835 445.123752 
L 506.660711 450.978878 
L 463.377034 462.375835 
L 442.883915 467.397699 
L 432.916953 469.637095 
L 423.133457 471.652325 
L 413.538505 473.437463 
L 404.136668 474.986115 
L 394.935012 476.305834 
L 385.939744 477.405193 
L 377.157671 478.304066 
L 368.59315 479.012825 
L 360.249173 479.531848 
L 352.129689 479.889196 
L 344.236266 480.088779 
L 329.131916 480.048128 
L 321.920964 479.845631 
L 308.175702 479.126643 
L 295.317198 478.072227 
L 283.321811 476.743602 
L 272.159603 475.200863 
L 261.799338 473.477963 
L 252.20187 471.637155 
L 243.32958 469.708364 
L 235.139765 467.737406 
L 227.594737 465.740324 
L 220.65716 463.731114 
L 211.303263 460.740957 
L 203.103333 457.812651 
L 195.937427 454.982762 
L 189.705266 452.252221 
L 184.312317 449.6251 
L 179.671 447.106438 
L 175.706581 444.691855 
L 172.357625 442.370378 
L 170.434162 440.878924 
L 167.28896 437.995634 
L 166.1065 436.558137 
L 165.259452 435.086375 
L 164.749041 433.624985 
L 163.8 429.84 
L 165.264804 423.757865 
L 166.017855 422.159808 
L 167.029042 420.516792 
L 168.913665 417.889254 
L 170.453927 416.043496 
L 173.219876 413.123829 
L 176.602378 410.037646 
L 180.667194 406.784732 
L 183.789865 404.520287 
L 187.273761 402.182623 
L 191.148556 399.778778 
L 195.443823 397.313399 
L 200.185917 394.785061 
L 205.411488 392.207093 
L 211.157043 389.59438 
L 217.460357 386.962897 
L 224.354472 384.31955 
L 231.880034 381.688436 
L 240.08264 379.112855 
L 248.995533 376.603891 
L 253.728084 375.377169 
L 263.788051 373.070273 
L 274.651638 370.930907 
L 286.360008 369.043547 
L 292.535338 368.183928 
L 298.935913 367.436062 
L 305.562605 366.806285 
L 312.41521 366.286457 
L 326.80138 365.560032 
L 334.337197 365.427035 
L 342.102162 365.424765 
L 350.094155 365.558753 
L 366.756443 366.332649 
L 375.424098 366.939049 
L 384.313499 367.701423 
L 402.75614 369.632327 
L 422.063214 372.150333 
L 442.212444 375.234413 
L 452.60483 376.921257 
L 473.981796 380.707363 
L 496.132507 384.929159 
L 519.006811 389.579653 
L 554.599065 397.086453 
L 604.180704 407.546969 
L 629.746169 412.713328 
L 655.715676 417.756458 
L 681.998768 422.601603 
L 708.500244 427.158394 
L 721.8 429.32992 
L 721.8 429.32992 
" style="fill:none;stroke:#ff5f30;stroke-linecap:square;stroke-width:1.5;"/>
   </g>
   <g id="line2d_43">
    <path clip-path="url(#pc77eb1f816)" d="M 108 429.84 
L 777.6 429.84 
" style="fill:none;stroke:#000000;stroke-dasharray:5.55,2.4;stroke-dashoffset:0;stroke-width:1.5;"/>
   </g>
   <g id="line2d_44">
    <path clip-path="url(#pc77eb1f816)" d="M 721.8 430.042036 
L 708.417803 428.699853 
L 695.033482 427.668925 
L 681.663416 426.962563 
L 668.313877 426.559087 
L 655.012668 426.608388 
L 641.788429 427.082832 
L 628.666887 427.945455 
L 615.669237 429.164855 
L 602.816953 430.719079 
L 590.128432 432.58744 
L 577.612971 434.705783 
L 565.283965 437.051668 
L 553.150426 439.591768 
L 541.219773 442.295989 
L 529.494835 445.123752 
L 506.660711 450.978878 
L 463.377034 462.375835 
L 442.883915 467.397699 
L 432.916953 469.637095 
L 423.133457 471.652325 
L 413.538505 473.437463 
L 404.136668 474.986115 
L 394.935012 476.305834 
L 385.939744 477.405193 
L 377.157671 478.304066 
L 368.59315 479.012825 
L 360.249173 479.531848 
L 352.129689 479.889196 
L 344.236266 480.088779 
L 329.131916 480.048128 
L 321.920964 479.845631 
L 308.175702 479.126643 
L 295.317198 478.072227 
L 283.321811 476.743602 
L 272.159603 475.200863 
L 261.799338 473.477963 
L 252.20187 471.637155 
L 243.32958 469.708364 
L 235.139765 467.737406 
L 227.594737 465.740324 
L 220.65716 463.731114 
L 211.303263 460.740957 
L 203.103333 457.812651 
L 195.937427 454.982762 
L 189.705266 452.252221 
L 184.312317 449.6251 
L 179.671 447.106438 
L 175.706581 444.691855 
L 172.357625 442.370378 
L 170.434162 440.878924 
L 167.28896 437.995634 
L 166.1065 436.558137 
L 165.259452 435.086375 
L 164.749041 433.624985 
L 163.8 429.84 
L 165.264804 423.757865 
L 166.017855 422.159808 
L 167.029042 420.516792 
L 168.913665 417.889254 
L 170.453927 416.043496 
L 173.219876 413.123829 
L 176.602378 410.037646 
L 180.667194 406.784732 
L 183.789865 404.520287 
L 187.273761 402.182623 
L 191.148556 399.778778 
L 195.443823 397.313399 
L 200.185917 394.785061 
L 205.411488 392.207093 
L 211.157043 389.59438 
L 217.460357 386.962897 
L 224.354472 384.31955 
L 231.880034 381.688436 
L 240.08264 379.112855 
L 248.995533 376.603891 
L 253.728084 375.377169 
L 263.788051 373.070273 
L 274.651638 370.930907 
L 286.360008 369.043547 
L 292.535338 368.183928 
L 298.935913 367.436062 
L 305.562605 366.806285 
L 312.41521 366.286457 
L 326.80138 365.560032 
L 334.337197 365.427035 
L 342.102162 365.424765 
L 350.094155 365.558753 
L 366.756443 366.332649 
L 375.424098 366.939049 
L 384.313499 367.701423 
L 402.75614 369.632327 
L 422.063214 372.150333 
L 442.212444 375.234413 
L 452.60483 376.921257 
L 473.981796 380.707363 
L 496.132507 384.929159 
L 519.006811 389.579653 
L 554.599065 397.086453 
L 604.180704 407.546969 
L 629.746169 412.713328 
L 655.715676 417.756458 
L 681.998768 422.601603 
L 708.500244 427.158394 
L 721.8 429.32992 
L 721.8 429.32992 
" style="fill:none;stroke:#ff2f18;stroke-linecap:square;stroke-width:1.5;"/>
   </g>
   <g id="line2d_45">
    <path clip-path="url(#pc77eb1f816)" d="M 108 429.84 
L 777.6 429.84 
" style="fill:none;stroke:#000000;stroke-dasharray:5.55,2.4;stroke-dashoffset:0;stroke-width:1.5;"/>
   </g>
   <g id="line2d_46">
    <path clip-path="url(#pc77eb1f816)" d="M 721.8 430.042036 
L 708.417803 428.699853 
L 695.033482 427.668925 
L 681.663416 426.962563 
L 668.313877 426.559087 
L 655.012668 426.608388 
L 641.788429 427.082832 
L 628.666887 427.945455 
L 615.669237 429.164855 
L 602.816953 430.719079 
L 590.128432 432.58744 
L 577.612971 434.705783 
L 565.283965 437.051668 
L 553.150426 439.591768 
L 541.219773 442.295989 
L 529.494835 445.123752 
L 506.660711 450.978878 
L 463.377034 462.375835 
L 442.883915 467.397699 
L 432.916953 469.637095 
L 423.133457 471.652325 
L 413.538505 473.437463 
L 404.136668 474.986115 
L 394.935012 476.305834 
L 385.939744 477.405193 
L 377.157671 478.304066 
L 368.59315 479.012825 
L 360.249173 479.531848 
L 352.129689 479.889196 
L 344.236266 480.088779 
L 329.131916 480.048128 
L 321.920964 479.845631 
L 308.175702 479.126643 
L 295.317198 478.072227 
L 283.321811 476.743602 
L 272.159603 475.200863 
L 261.799338 473.477963 
L 252.20187 471.637155 
L 243.32958 469.708364 
L 235.139765 467.737406 
L 227.594737 465.740324 
L 220.65716 463.731114 
L 211.303263 460.740957 
L 203.103333 457.812651 
L 195.937427 454.982762 
L 189.705266 452.252221 
L 184.312317 449.6251 
L 179.671 447.106438 
L 175.706581 444.691855 
L 172.357625 442.370378 
L 170.434162 440.878924 
L 167.28896 437.995634 
L 166.1065 436.558137 
L 165.259452 435.086375 
L 164.749041 433.624985 
L 163.8 429.84 
L 165.264804 423.757865 
L 166.017855 422.159808 
L 167.029042 420.516792 
L 168.913665 417.889254 
L 170.453927 416.043496 
L 173.219876 413.123829 
L 176.602378 410.037646 
L 180.667194 406.784732 
L 183.789865 404.520287 
L 187.273761 402.182623 
L 191.148556 399.778778 
L 195.443823 397.313399 
L 200.185917 394.785061 
L 205.411488 392.207093 
L 211.157043 389.59438 
L 217.460357 386.962897 
L 224.354472 384.31955 
L 231.880034 381.688436 
L 240.08264 379.112855 
L 248.995533 376.603891 
L 253.728084 375.377169 
L 263.788051 373.070273 
L 274.651638 370.930907 
L 286.360008 369.043547 
L 292.535338 368.183928 
L 298.935913 367.436062 
L 305.562605 366.806285 
L 312.41521 366.286457 
L 326.80138 365.560032 
L 334.337197 365.427035 
L 342.102162 365.424765 
L 350.094155 365.558753 
L 366.756443 366.332649 
L 375.424098 366.939049 
L 384.313499 367.701423 
L 402.75614 369.632327 
L 422.063214 372.150333 
L 442.212444 375.234413 
L 452.60483 376.921257 
L 473.981796 380.707363 
L 496.132507 384.929159 
L 519.006811 389.579653 
L 554.599065 397.086453 
L 604.180704 407.546969 
L 629.746169 412.713328 
L 655.715676 417.756458 
L 681.998768 422.601603 
L 708.500244 427.158394 
L 721.8 429.32992 
L 721.8 429.32992 
" style="fill:none;stroke:#ff0000;stroke-linecap:square;stroke-width:1.5;"/>
   </g>
   <g id="line2d_47">
    <path clip-path="url(#pc77eb1f816)" d="M 108 429.84 
L 777.6 429.84 
" style="fill:none;stroke:#000000;stroke-dasharray:5.55,2.4;stroke-dashoffset:0;stroke-width:1.5;"/>
   </g>
   <g id="patch_3">
    <path d="M 108 756 
L 108 103.68 
" style="fill:none;stroke:#000000;stroke-linecap:square;stroke-linejoin:miter;stroke-width:0.8;"/>
   </g>
   <g id="patch_4">
    <path d="M 777.6 756 
L 777.6 103.68 
" style="fill:none;stroke:#000000;stroke-linecap:square;stroke-linejoin:miter;stroke-width:0.8;"/>
   </g>
   <g id="patch_5">
    <path d="M 108 756 
L 777.6 756 
" style="fill:none;stroke:#000000;stroke-linecap:square;stroke-linejoin:miter;stroke-width:0.8;"/>
   </g>
   <g id="patch_6">
    <path d="M 108 103.68 
L 777.6 103.68 
" style="fill:none;stroke:#000000;stroke-linecap:square;stroke-linejoin:miter;stroke-width:0.8;"/>
   </g>
   <g id="text_14">
    <!-- Overlay Plot of Profiles -->
    <g transform="translate(273.002344 97.440937)scale(0.3 -0.3)">
     <defs>
      <path d="M 39.40625 66.21875 
Q 28.65625 66.21875 22.328125 58.203125 
Q 16.015625 50.203125 16.015625 36.375 
Q 16.015625 22.609375 22.328125 14.59375 
Q 28.65625 6.59375 39.40625 6.59375 
Q 50.140625 6.59375 56.421875 14.59375 
Q 62.703125 22.609375 62.703125 36.375 
Q 62.703125 50.203125 56.421875 58.203125 
Q 50.140625 66.21875 39.40625 66.21875 
z
M 39.40625 74.21875 
Q 54.734375 74.21875 63.90625 63.9375 
Q 73.09375 53.65625 73.09375 36.375 
Q 73.09375 19.140625 63.90625 8.859375 
Q 54.734375 -1.421875 39.40625 -1.421875 
Q 24.03125 -1.421875 14.8125 8.828125 
Q 5.609375 19.09375 5.609375 36.375 
Q 5.609375 53.65625 14.8125 63.9375 
Q 24.03125 74.21875 39.40625 74.21875 
z
" id="DejaVuSans-79"/>
      <path d="M 2.984375 54.6875 
L 12.5 54.6875 
L 29.59375 8.796875 
L 46.6875 54.6875 
L 56.203125 54.6875 
L 35.6875 0 
L 23.484375 0 
z
" id="DejaVuSans-118"/>
      <path d="M 56.203125 29.59375 
L 56.203125 25.203125 
L 14.890625 25.203125 
Q 15.484375 15.921875 20.484375 11.0625 
Q 25.484375 6.203125 34.421875 6.203125 
Q 39.59375 6.203125 44.453125 7.46875 
Q 49.3125 8.734375 54.109375 11.28125 
L 54.109375 2.78125 
Q 49.265625 0.734375 44.1875 -0.34375 
Q 39.109375 -1.421875 33.890625 -1.421875 
Q 20.796875 -1.421875 13.15625 6.1875 
Q 5.515625 13.8125 5.515625 26.8125 
Q 5.515625 40.234375 12.765625 48.109375 
Q 20.015625 56 32.328125 56 
Q 43.359375 56 49.78125 48.890625 
Q 56.203125 41.796875 56.203125 29.59375 
z
M 47.21875 32.234375 
Q 47.125 39.59375 43.09375 43.984375 
Q 39.0625 48.390625 32.421875 48.390625 
Q 24.90625 48.390625 20.390625 44.140625 
Q 15.875 39.890625 15.1875 32.171875 
z
" id="DejaVuSans-101"/>
      <path d="M 41.109375 46.296875 
Q 39.59375 47.171875 37.8125 47.578125 
Q 36.03125 48 33.890625 48 
Q 26.265625 48 22.1875 43.046875 
Q 18.109375 38.09375 18.109375 28.8125 
L 18.109375 0 
L 9.078125 0 
L 9.078125 54.6875 
L 18.109375 54.6875 
L 18.109375 46.1875 
Q 20.953125 51.171875 25.484375 53.578125 
Q 30.03125 56 36.53125 56 
Q 37.453125 56 38.578125 55.875 
Q 39.703125 55.765625 41.0625 55.515625 
z
" id="DejaVuSans-114"/>
      <path d="M 9.421875 75.984375 
L 18.40625 75.984375 
L 18.40625 0 
L 9.421875 0 
z
" id="DejaVuSans-108"/>
      <path d="M 34.28125 27.484375 
Q 23.390625 27.484375 19.1875 25 
Q 14.984375 22.515625 14.984375 16.5 
Q 14.984375 11.71875 18.140625 8.90625 
Q 21.296875 6.109375 26.703125 6.109375 
Q 34.1875 6.109375 38.703125 11.40625 
Q 43.21875 16.703125 43.21875 25.484375 
L 43.21875 27.484375 
z
M 52.203125 31.203125 
L 52.203125 0 
L 43.21875 0 
L 43.21875 8.296875 
Q 40.140625 3.328125 35.546875 0.953125 
Q 30.953125 -1.421875 24.3125 -1.421875 
Q 15.921875 -1.421875 10.953125 3.296875 
Q 6 8.015625 6 15.921875 
Q 6 25.140625 12.171875 29.828125 
Q 18.359375 34.515625 30.609375 34.515625 
L 43.21875 34.515625 
L 43.21875 35.40625 
Q 43.21875 41.609375 39.140625 45 
Q 35.0625 48.390625 27.6875 48.390625 
Q 23 48.390625 18.546875 47.265625 
Q 14.109375 46.140625 10.015625 43.890625 
L 10.015625 52.203125 
Q 14.9375 54.109375 19.578125 55.046875 
Q 24.21875 56 28.609375 56 
Q 40.484375 56 46.34375 49.84375 
Q 52.203125 43.703125 52.203125 31.203125 
z
" id="DejaVuSans-97"/>
      <path d="M 32.171875 -5.078125 
Q 28.375 -14.84375 24.75 -17.8125 
Q 21.140625 -20.796875 15.09375 -20.796875 
L 7.90625 -20.796875 
L 7.90625 -13.28125 
L 13.1875 -13.28125 
Q 16.890625 -13.28125 18.9375 -11.515625 
Q 21 -9.765625 23.484375 -3.21875 
L 25.09375 0.875 
L 2.984375 54.6875 
L 12.5 54.6875 
L 29.59375 11.921875 
L 46.6875 54.6875 
L 56.203125 54.6875 
z
" id="DejaVuSans-121"/>
      <path id="DejaVuSans-32"/>
      <path d="M 19.671875 64.796875 
L 19.671875 37.40625 
L 32.078125 37.40625 
Q 38.96875 37.40625 42.71875 40.96875 
Q 46.484375 44.53125 46.484375 51.125 
Q 46.484375 57.671875 42.71875 61.234375 
Q 38.96875 64.796875 32.078125 64.796875 
z
M 9.8125 72.90625 
L 32.078125 72.90625 
Q 44.34375 72.90625 50.609375 67.359375 
Q 56.890625 61.8125 56.890625 51.125 
Q 56.890625 40.328125 50.609375 34.8125 
Q 44.34375 29.296875 32.078125 29.296875 
L 19.671875 29.296875 
L 19.671875 0 
L 9.8125 0 
z
" id="DejaVuSans-80"/>
      <path d="M 30.609375 48.390625 
Q 23.390625 48.390625 19.1875 42.75 
Q 14.984375 37.109375 14.984375 27.296875 
Q 14.984375 17.484375 19.15625 11.84375 
Q 23.34375 6.203125 30.609375 6.203125 
Q 37.796875 6.203125 41.984375 11.859375 
Q 46.1875 17.53125 46.1875 27.296875 
Q 46.1875 37.015625 41.984375 42.703125 
Q 37.796875 48.390625 30.609375 48.390625 
z
M 30.609375 56 
Q 42.328125 56 49.015625 48.375 
Q 55.71875 40.765625 55.71875 27.296875 
Q 55.71875 13.875 49.015625 6.21875 
Q 42.328125 -1.421875 30.609375 -1.421875 
Q 18.84375 -1.421875 12.171875 6.21875 
Q 5.515625 13.875 5.515625 27.296875 
Q 5.515625 40.765625 12.171875 48.375 
Q 18.84375 56 30.609375 56 
z
" id="DejaVuSans-111"/>
      <path d="M 18.3125 70.21875 
L 18.3125 54.6875 
L 36.8125 54.6875 
L 36.8125 47.703125 
L 18.3125 47.703125 
L 18.3125 18.015625 
Q 18.3125 11.328125 20.140625 9.421875 
Q 21.96875 7.515625 27.59375 7.515625 
L 36.8125 7.515625 
L 36.8125 0 
L 27.59375 0 
Q 17.1875 0 13.234375 3.875 
Q 9.28125 7.765625 9.28125 18.015625 
L 9.28125 47.703125 
L 2.6875 47.703125 
L 2.6875 54.6875 
L 9.28125 54.6875 
L 9.28125 70.21875 
z
" id="DejaVuSans-116"/>
      <path d="M 37.109375 75.984375 
L 37.109375 68.5 
L 28.515625 68.5 
Q 23.6875 68.5 21.796875 66.546875 
Q 19.921875 64.59375 19.921875 59.515625 
L 19.921875 54.6875 
L 34.71875 54.6875 
L 34.71875 47.703125 
L 19.921875 47.703125 
L 19.921875 0 
L 10.890625 0 
L 10.890625 47.703125 
L 2.296875 47.703125 
L 2.296875 54.6875 
L 10.890625 54.6875 
L 10.890625 58.5 
Q 10.890625 67.625 15.140625 71.796875 
Q 19.390625 75.984375 28.609375 75.984375 
z
" id="DejaVuSans-102"/>
      <path d="M 9.421875 54.6875 
L 18.40625 54.6875 
L 18.40625 0 
L 9.421875 0 
z
M 9.421875 75.984375 
L 18.40625 75.984375 
L 18.40625 64.59375 
L 9.421875 64.59375 
z
" id="DejaVuSans-105"/>
      <path d="M 44.28125 53.078125 
L 44.28125 44.578125 
Q 40.484375 46.53125 36.375 47.5 
Q 32.28125 48.484375 27.875 48.484375 
Q 21.1875 48.484375 17.84375 46.4375 
Q 14.5 44.390625 14.5 40.28125 
Q 14.5 37.15625 16.890625 35.375 
Q 19.28125 33.59375 26.515625 31.984375 
L 29.59375 31.296875 
Q 39.15625 29.25 43.1875 25.515625 
Q 47.21875 21.78125 47.21875 15.09375 
Q 47.21875 7.46875 41.1875 3.015625 
Q 35.15625 -1.421875 24.609375 -1.421875 
Q 20.21875 -1.421875 15.453125 -0.5625 
Q 10.6875 0.296875 5.421875 2 
L 5.421875 11.28125 
Q 10.40625 8.6875 15.234375 7.390625 
Q 20.0625 6.109375 24.8125 6.109375 
Q 31.15625 6.109375 34.5625 8.28125 
Q 37.984375 10.453125 37.984375 14.40625 
Q 37.984375 18.0625 35.515625 20.015625 
Q 33.0625 21.96875 24.703125 23.78125 
L 21.578125 24.515625 
Q 13.234375 26.265625 9.515625 29.90625 
Q 5.8125 33.546875 5.8125 39.890625 
Q 5.8125 47.609375 11.28125 51.796875 
Q 16.75 56 26.8125 56 
Q 31.78125 56 36.171875 55.265625 
Q 40.578125 54.546875 44.28125 53.078125 
z
" id="DejaVuSans-115"/>
     </defs>
     <use xlink:href="#DejaVuSans-79"/>
     <use x="78.710938" xlink:href="#DejaVuSans-118"/>
     <use x="137.890625" xlink:href="#DejaVuSans-101"/>
     <use x="199.414062" xlink:href="#DejaVuSans-114"/>
     <use x="240.527344" xlink:href="#DejaVuSans-108"/>
     <use x="268.310547" xlink:href="#DejaVuSans-97"/>
     <use x="329.589844" xlink:href="#DejaVuSans-121"/>
     <use x="388.769531" xlink:href="#DejaVuSans-32"/>
     <use x="420.556641" xlink:href="#DejaVuSans-80"/>
     <use x="480.859375" xlink:href="#DejaVuSans-108"/>
     <use x="508.642578" xlink:href="#DejaVuSans-111"/>
     <use x="569.824219" xlink:href="#DejaVuSans-116"/>
     <use x="609.033203" xlink:href="#DejaVuSans-32"/>
     <use x="640.820312" xlink:href="#DejaVuSans-111"/>
     <use x="702.001953" xlink:href="#DejaVuSans-102"/>
     <use x="737.207031" xlink:href="#DejaVuSans-32"/>
     <use x="768.994141" xlink:href="#DejaVuSans-80"/>
     <use x="827.546875" xlink:href="#DejaVuSans-114"/>
     <use x="866.410156" xlink:href="#DejaVuSans-111"/>
     <use x="927.591797" xlink:href="#DejaVuSans-102"/>
     <use x="962.796875" xlink:href="#DejaVuSans-105"/>
     <use x="990.580078" xlink:href="#DejaVuSans-108"/>
     <use x="1018.363281" xlink:href="#DejaVuSans-101"/>
     <use x="1079.886719" xlink:href="#DejaVuSans-115"/>
    </g>
   </g>
   <g id="legend_1">
    <g id="patch_7">
     <path d="M 725.875 361.208125 
L 770.6 361.208125 
Q 772.6 361.208125 772.6 359.208125 
L 772.6 110.68 
Q 772.6 108.68 770.6 108.68 
L 725.875 108.68 
Q 723.875 108.68 723.875 110.68 
L 723.875 359.208125 
Q 723.875 361.208125 725.875 361.208125 
z
" style="fill:#ffffff;opacity:0.8;stroke:#cccccc;stroke-linejoin:miter;"/>
    </g>
    <g id="line2d_48">
     <path d="M 727.875 116.778437 
L 747.875 116.778437 
" style="fill:none;stroke:#8000ff;stroke-linecap:square;stroke-width:1.5;"/>
    </g>
    <g id="line2d_49"/>
    <g id="text_15">
     <!-- 42 -->
     <g transform="translate(755.875 120.278437)scale(0.1 -0.1)">
      <use xlink:href="#DejaVuSans-52"/>
      <use x="63.623047" xlink:href="#DejaVuSans-50"/>
     </g>
    </g>
    <g id="line2d_50">
     <path d="M 727.875 131.456562 
L 747.875 131.456562 
" style="fill:none;stroke:#6032fe;stroke-linecap:square;stroke-width:1.5;"/>
    </g>
    <g id="line2d_51"/>
    <g id="text_16">
     <!-- 46 -->
     <g transform="translate(755.875 134.956562)scale(0.1 -0.1)">
      <use xlink:href="#DejaVuSans-52"/>
      <use x="63.623047" xlink:href="#DejaVuSans-54"/>
     </g>
    </g>
    <g id="line2d_52">
     <path d="M 727.875 146.134687 
L 747.875 146.134687 
" style="fill:none;stroke:#4062fa;stroke-linecap:square;stroke-width:1.5;"/>
    </g>
    <g id="line2d_53"/>
    <g id="text_17">
     <!-- 4 -->
     <g transform="translate(755.875 149.634687)scale(0.1 -0.1)">
      <use xlink:href="#DejaVuSans-52"/>
     </g>
    </g>
    <g id="line2d_54">
     <path d="M 727.875 160.812812 
L 747.875 160.812812 
" style="fill:none;stroke:#208ef4;stroke-linecap:square;stroke-width:1.5;"/>
    </g>
    <g id="line2d_55"/>
    <g id="text_18">
     <!-- 24 -->
     <g transform="translate(755.875 164.312812)scale(0.1 -0.1)">
      <use xlink:href="#DejaVuSans-50"/>
      <use x="63.623047" xlink:href="#DejaVuSans-52"/>
     </g>
    </g>
    <g id="line2d_56">
     <path d="M 727.875 175.490937 
L 747.875 175.490937 
" style="fill:none;stroke:#00b5eb;stroke-linecap:square;stroke-width:1.5;"/>
    </g>
    <g id="line2d_57"/>
    <g id="text_19">
     <!-- 12 -->
     <g transform="translate(755.875 178.990937)scale(0.1 -0.1)">
      <use xlink:href="#DejaVuSans-49"/>
      <use x="63.623047" xlink:href="#DejaVuSans-50"/>
     </g>
    </g>
    <g id="line2d_58">
     <path d="M 727.875 190.169062 
L 747.875 190.169062 
" style="fill:none;stroke:#20d5e1;stroke-linecap:square;stroke-width:1.5;"/>
    </g>
    <g id="line2d_59"/>
    <g id="text_20">
     <!-- 36 -->
     <g transform="translate(755.875 193.669062)scale(0.1 -0.1)">
      <defs>
       <path d="M 40.578125 39.3125 
Q 47.65625 37.796875 51.625 33 
Q 55.609375 28.21875 55.609375 21.1875 
Q 55.609375 10.40625 48.1875 4.484375 
Q 40.765625 -1.421875 27.09375 -1.421875 
Q 22.515625 -1.421875 17.65625 -0.515625 
Q 12.796875 0.390625 7.625 2.203125 
L 7.625 11.71875 
Q 11.71875 9.328125 16.59375 8.109375 
Q 21.484375 6.890625 26.8125 6.890625 
Q 36.078125 6.890625 40.9375 10.546875 
Q 45.796875 14.203125 45.796875 21.1875 
Q 45.796875 27.640625 41.28125 31.265625 
Q 36.765625 34.90625 28.71875 34.90625 
L 20.21875 34.90625 
L 20.21875 43.015625 
L 29.109375 43.015625 
Q 36.375 43.015625 40.234375 45.921875 
Q 44.09375 48.828125 44.09375 54.296875 
Q 44.09375 59.90625 40.109375 62.90625 
Q 36.140625 65.921875 28.71875 65.921875 
Q 24.65625 65.921875 20.015625 65.03125 
Q 15.375 64.15625 9.8125 62.3125 
L 9.8125 71.09375 
Q 15.4375 72.65625 20.34375 73.4375 
Q 25.25 74.21875 29.59375 74.21875 
Q 40.828125 74.21875 47.359375 69.109375 
Q 53.90625 64.015625 53.90625 55.328125 
Q 53.90625 49.265625 50.4375 45.09375 
Q 46.96875 40.921875 40.578125 39.3125 
z
" id="DejaVuSans-51"/>
      </defs>
      <use xlink:href="#DejaVuSans-51"/>
      <use x="63.623047" xlink:href="#DejaVuSans-54"/>
     </g>
    </g>
    <g id="line2d_60">
     <path d="M 727.875 204.847187 
L 747.875 204.847187 
" style="fill:none;stroke:#40ecd4;stroke-linecap:square;stroke-width:1.5;"/>
    </g>
    <g id="line2d_61"/>
    <g id="text_21">
     <!-- 26 -->
     <g transform="translate(755.875 208.347187)scale(0.1 -0.1)">
      <use xlink:href="#DejaVuSans-50"/>
      <use x="63.623047" xlink:href="#DejaVuSans-54"/>
     </g>
    </g>
    <g id="line2d_62">
     <path d="M 727.875 219.525312 
L 747.875 219.525312 
" style="fill:none;stroke:#60fac5;stroke-linecap:square;stroke-width:1.5;"/>
    </g>
    <g id="line2d_63"/>
    <g id="text_22">
     <!-- 48 -->
     <g transform="translate(755.875 223.025312)scale(0.1 -0.1)">
      <use xlink:href="#DejaVuSans-52"/>
      <use x="63.623047" xlink:href="#DejaVuSans-56"/>
     </g>
    </g>
    <g id="line2d_64">
     <path d="M 727.875 234.203437 
L 747.875 234.203437 
" style="fill:none;stroke:#80ffb4;stroke-linecap:square;stroke-width:1.5;"/>
    </g>
    <g id="line2d_65"/>
    <g id="text_23">
     <!-- 13 -->
     <g transform="translate(755.875 237.703437)scale(0.1 -0.1)">
      <use xlink:href="#DejaVuSans-49"/>
      <use x="63.623047" xlink:href="#DejaVuSans-51"/>
     </g>
    </g>
    <g id="line2d_66">
     <path d="M 727.875 248.881562 
L 747.875 248.881562 
" style="fill:none;stroke:#a0faa1;stroke-linecap:square;stroke-width:1.5;"/>
    </g>
    <g id="line2d_67"/>
    <g id="text_24">
     <!-- 34 -->
     <g transform="translate(755.875 252.381562)scale(0.1 -0.1)">
      <use xlink:href="#DejaVuSans-51"/>
      <use x="63.623047" xlink:href="#DejaVuSans-52"/>
     </g>
    </g>
    <g id="line2d_68">
     <path d="M 727.875 263.559687 
L 747.875 263.559687 
" style="fill:none;stroke:#c0eb8d;stroke-linecap:square;stroke-width:1.5;"/>
    </g>
    <g id="line2d_69"/>
    <g id="text_25">
     <!-- 33 -->
     <g transform="translate(755.875 267.059687)scale(0.1 -0.1)">
      <use xlink:href="#DejaVuSans-51"/>
      <use x="63.623047" xlink:href="#DejaVuSans-51"/>
     </g>
    </g>
    <g id="line2d_70">
     <path d="M 727.875 278.237812 
L 747.875 278.237812 
" style="fill:none;stroke:#e0d377;stroke-linecap:square;stroke-width:1.5;"/>
    </g>
    <g id="line2d_71"/>
    <g id="text_26">
     <!-- 3 -->
     <g transform="translate(755.875 281.737812)scale(0.1 -0.1)">
      <use xlink:href="#DejaVuSans-51"/>
     </g>
    </g>
    <g id="line2d_72">
     <path d="M 727.875 292.915937 
L 747.875 292.915937 
" style="fill:none;stroke:#ffb360;stroke-linecap:square;stroke-width:1.5;"/>
    </g>
    <g id="line2d_73"/>
    <g id="text_27">
     <!-- 11 -->
     <g transform="translate(755.875 296.415937)scale(0.1 -0.1)">
      <use xlink:href="#DejaVuSans-49"/>
      <use x="63.623047" xlink:href="#DejaVuSans-49"/>
     </g>
    </g>
    <g id="line2d_74">
     <path d="M 727.875 307.594062 
L 747.875 307.594062 
" style="fill:none;stroke:#ff8c49;stroke-linecap:square;stroke-width:1.5;"/>
    </g>
    <g id="line2d_75"/>
    <g id="text_28">
     <!-- 45 -->
     <g transform="translate(755.875 311.094062)scale(0.1 -0.1)">
      <defs>
       <path d="M 10.796875 72.90625 
L 49.515625 72.90625 
L 49.515625 64.59375 
L 19.828125 64.59375 
L 19.828125 46.734375 
Q 21.96875 47.46875 24.109375 47.828125 
Q 26.265625 48.1875 28.421875 48.1875 
Q 40.625 48.1875 47.75 41.5 
Q 54.890625 34.8125 54.890625 23.390625 
Q 54.890625 11.625 47.5625 5.09375 
Q 40.234375 -1.421875 26.90625 -1.421875 
Q 22.3125 -1.421875 17.546875 -0.640625 
Q 12.796875 0.140625 7.71875 1.703125 
L 7.71875 11.625 
Q 12.109375 9.234375 16.796875 8.0625 
Q 21.484375 6.890625 26.703125 6.890625 
Q 35.15625 6.890625 40.078125 11.328125 
Q 45.015625 15.765625 45.015625 23.390625 
Q 45.015625 31 40.078125 35.4375 
Q 35.15625 39.890625 26.703125 39.890625 
Q 22.75 39.890625 18.8125 39.015625 
Q 14.890625 38.140625 10.796875 36.28125 
z
" id="DejaVuSans-53"/>
      </defs>
      <use xlink:href="#DejaVuSans-52"/>
      <use x="63.623047" xlink:href="#DejaVuSans-53"/>
     </g>
    </g>
    <g id="line2d_76">
     <path d="M 727.875 322.272187 
L 747.875 322.272187 
" style="fill:none;stroke:#ff5f30;stroke-linecap:square;stroke-width:1.5;"/>
    </g>
    <g id="line2d_77"/>
    <g id="text_29">
     <!-- 15 -->
     <g transform="translate(755.875 325.772187)scale(0.1 -0.1)">
      <use xlink:href="#DejaVuSans-49"/>
      <use x="63.623047" xlink:href="#DejaVuSans-53"/>
     </g>
    </g>
    <g id="line2d_78">
     <path d="M 727.875 336.950312 
L 747.875 336.950312 
" style="fill:none;stroke:#ff2f18;stroke-linecap:square;stroke-width:1.5;"/>
    </g>
    <g id="line2d_79"/>
    <g id="text_30">
     <!-- 23 -->
     <g transform="translate(755.875 340.450312)scale(0.1 -0.1)">
      <use xlink:href="#DejaVuSans-50"/>
      <use x="63.623047" xlink:href="#DejaVuSans-51"/>
     </g>
    </g>
    <g id="line2d_80">
     <path d="M 727.875 351.628437 
L 747.875 351.628437 
" style="fill:none;stroke:#ff0000;stroke-linecap:square;stroke-width:1.5;"/>
    </g>
    <g id="line2d_81"/>
    <g id="text_31">
     <!-- 38 -->
     <g transform="translate(755.875 355.128437)scale(0.1 -0.1)">
      <use xlink:href="#DejaVuSans-51"/>
      <use x="63.623047" xlink:href="#DejaVuSans-56"/>
     </g>
    </g>
   </g>
  </g>
 </g>
 <defs>
  <clipPath id="pc77eb1f816">
   <rect height="652.32" width="669.6" x="108" y="103.68"/>
  </clipPath>
 </defs>
</svg>
