<?xml version="1.0" encoding="utf-8" standalone="no"?>
<!DOCTYPE svg PUBLIC "-//W3C//DTD SVG 1.1//EN"
  "http://www.w3.org/Graphics/SVG/1.1/DTD/svg11.dtd">
<!-- Created with matplotlib (https://matplotlib.org/) -->
<svg height="432pt" version="1.1" viewBox="0 0 432 432" width="432pt" xmlns="http://www.w3.org/2000/svg" xmlns:xlink="http://www.w3.org/1999/xlink">
 <metadata>
  <rdf:RDF xmlns:cc="http://creativecommons.org/ns#" xmlns:dc="http://purl.org/dc/elements/1.1/" xmlns:rdf="http://www.w3.org/1999/02/22-rdf-syntax-ns#">
   <cc:Work>
    <dc:type rdf:resource="http://purl.org/dc/dcmitype/StillImage"/>
    <dc:date>2023-05-20T23:11:01.030204</dc:date>
    <dc:format>image/svg+xml</dc:format>
    <dc:creator>
     <cc:Agent>
      <dc:title>Matplotlib v3.3.4, https://matplotlib.org/</dc:title>
     </cc:Agent>
    </dc:creator>
   </cc:Work>
  </rdf:RDF>
 </metadata>
 <defs>
  <style type="text/css">*{stroke-linecap:butt;stroke-linejoin:round;}</style>
 </defs>
 <g id="figure_1">
  <g id="patch_1">
   <path d="M 0 432 
L 432 432 
L 432 0 
L 0 0 
z
" style="fill:#ffffff;"/>
  </g>
  <g id="axes_1">
   <g id="patch_2">
    <path d="M 54 378 
L 388.8 378 
L 388.8 51.84 
L 54 51.84 
z
" style="fill:#ffffff;"/>
   </g>
   <g id="matplotlib.axis_1">
    <g id="xtick_1">
     <g id="line2d_1">
      <defs>
       <path d="M 0 0 
L 0 3.5 
" id="m47b23455a6" style="stroke:#000000;stroke-width:0.8;"/>
      </defs>
      <g>
       <use style="stroke:#000000;stroke-width:0.8;" x="83.711688" xlink:href="#m47b23455a6" y="378"/>
      </g>
     </g>
     <g id="text_1">
      <!-- 4 -->
      <g transform="translate(80.530438 392.598437)scale(0.1 -0.1)">
       <defs>
        <path d="M 37.796875 64.3125 
L 12.890625 25.390625 
L 37.796875 25.390625 
z
M 35.203125 72.90625 
L 47.609375 72.90625 
L 47.609375 25.390625 
L 58.015625 25.390625 
L 58.015625 17.1875 
L 47.609375 17.1875 
L 47.609375 0 
L 37.796875 0 
L 37.796875 17.1875 
L 4.890625 17.1875 
L 4.890625 26.703125 
z
" id="DejaVuSans-52"/>
       </defs>
       <use xlink:href="#DejaVuSans-52"/>
      </g>
     </g>
    </g>
    <g id="xtick_2">
     <g id="line2d_2">
      <g>
       <use style="stroke:#000000;stroke-width:0.8;" x="141.685714" xlink:href="#m47b23455a6" y="378"/>
      </g>
     </g>
     <g id="text_2">
      <!-- 6 -->
      <g transform="translate(138.504464 392.598437)scale(0.1 -0.1)">
       <defs>
        <path d="M 33.015625 40.375 
Q 26.375 40.375 22.484375 35.828125 
Q 18.609375 31.296875 18.609375 23.390625 
Q 18.609375 15.53125 22.484375 10.953125 
Q 26.375 6.390625 33.015625 6.390625 
Q 39.65625 6.390625 43.53125 10.953125 
Q 47.40625 15.53125 47.40625 23.390625 
Q 47.40625 31.296875 43.53125 35.828125 
Q 39.65625 40.375 33.015625 40.375 
z
M 52.59375 71.296875 
L 52.59375 62.3125 
Q 48.875 64.0625 45.09375 64.984375 
Q 41.3125 65.921875 37.59375 65.921875 
Q 27.828125 65.921875 22.671875 59.328125 
Q 17.53125 52.734375 16.796875 39.40625 
Q 19.671875 43.65625 24.015625 45.921875 
Q 28.375 48.1875 33.59375 48.1875 
Q 44.578125 48.1875 50.953125 41.515625 
Q 57.328125 34.859375 57.328125 23.390625 
Q 57.328125 12.15625 50.6875 5.359375 
Q 44.046875 -1.421875 33.015625 -1.421875 
Q 20.359375 -1.421875 13.671875 8.265625 
Q 6.984375 17.96875 6.984375 36.375 
Q 6.984375 53.65625 15.1875 63.9375 
Q 23.390625 74.21875 37.203125 74.21875 
Q 40.921875 74.21875 44.703125 73.484375 
Q 48.484375 72.75 52.59375 71.296875 
z
" id="DejaVuSans-54"/>
       </defs>
       <use xlink:href="#DejaVuSans-54"/>
      </g>
     </g>
    </g>
    <g id="xtick_3">
     <g id="line2d_3">
      <g>
       <use style="stroke:#000000;stroke-width:0.8;" x="199.65974" xlink:href="#m47b23455a6" y="378"/>
      </g>
     </g>
     <g id="text_3">
      <!-- 8 -->
      <g transform="translate(196.47849 392.598437)scale(0.1 -0.1)">
       <defs>
        <path d="M 31.78125 34.625 
Q 24.75 34.625 20.71875 30.859375 
Q 16.703125 27.09375 16.703125 20.515625 
Q 16.703125 13.921875 20.71875 10.15625 
Q 24.75 6.390625 31.78125 6.390625 
Q 38.8125 6.390625 42.859375 10.171875 
Q 46.921875 13.96875 46.921875 20.515625 
Q 46.921875 27.09375 42.890625 30.859375 
Q 38.875 34.625 31.78125 34.625 
z
M 21.921875 38.8125 
Q 15.578125 40.375 12.03125 44.71875 
Q 8.5 49.078125 8.5 55.328125 
Q 8.5 64.0625 14.71875 69.140625 
Q 20.953125 74.21875 31.78125 74.21875 
Q 42.671875 74.21875 48.875 69.140625 
Q 55.078125 64.0625 55.078125 55.328125 
Q 55.078125 49.078125 51.53125 44.71875 
Q 48 40.375 41.703125 38.8125 
Q 48.828125 37.15625 52.796875 32.3125 
Q 56.78125 27.484375 56.78125 20.515625 
Q 56.78125 9.90625 50.3125 4.234375 
Q 43.84375 -1.421875 31.78125 -1.421875 
Q 19.734375 -1.421875 13.25 4.234375 
Q 6.78125 9.90625 6.78125 20.515625 
Q 6.78125 27.484375 10.78125 32.3125 
Q 14.796875 37.15625 21.921875 38.8125 
z
M 18.3125 54.390625 
Q 18.3125 48.734375 21.84375 45.5625 
Q 25.390625 42.390625 31.78125 42.390625 
Q 38.140625 42.390625 41.71875 45.5625 
Q 45.3125 48.734375 45.3125 54.390625 
Q 45.3125 60.0625 41.71875 63.234375 
Q 38.140625 66.40625 31.78125 66.40625 
Q 25.390625 66.40625 21.84375 63.234375 
Q 18.3125 60.0625 18.3125 54.390625 
z
" id="DejaVuSans-56"/>
       </defs>
       <use xlink:href="#DejaVuSans-56"/>
      </g>
     </g>
    </g>
    <g id="xtick_4">
     <g id="line2d_4">
      <g>
       <use style="stroke:#000000;stroke-width:0.8;" x="257.633766" xlink:href="#m47b23455a6" y="378"/>
      </g>
     </g>
     <g id="text_4">
      <!-- 10 -->
      <g transform="translate(251.271266 392.598437)scale(0.1 -0.1)">
       <defs>
        <path d="M 12.40625 8.296875 
L 28.515625 8.296875 
L 28.515625 63.921875 
L 10.984375 60.40625 
L 10.984375 69.390625 
L 28.421875 72.90625 
L 38.28125 72.90625 
L 38.28125 8.296875 
L 54.390625 8.296875 
L 54.390625 0 
L 12.40625 0 
z
" id="DejaVuSans-49"/>
        <path d="M 31.78125 66.40625 
Q 24.171875 66.40625 20.328125 58.90625 
Q 16.5 51.421875 16.5 36.375 
Q 16.5 21.390625 20.328125 13.890625 
Q 24.171875 6.390625 31.78125 6.390625 
Q 39.453125 6.390625 43.28125 13.890625 
Q 47.125 21.390625 47.125 36.375 
Q 47.125 51.421875 43.28125 58.90625 
Q 39.453125 66.40625 31.78125 66.40625 
z
M 31.78125 74.21875 
Q 44.046875 74.21875 50.515625 64.515625 
Q 56.984375 54.828125 56.984375 36.375 
Q 56.984375 17.96875 50.515625 8.265625 
Q 44.046875 -1.421875 31.78125 -1.421875 
Q 19.53125 -1.421875 13.0625 8.265625 
Q 6.59375 17.96875 6.59375 36.375 
Q 6.59375 54.828125 13.0625 64.515625 
Q 19.53125 74.21875 31.78125 74.21875 
z
" id="DejaVuSans-48"/>
       </defs>
       <use xlink:href="#DejaVuSans-49"/>
       <use x="63.623047" xlink:href="#DejaVuSans-48"/>
      </g>
     </g>
    </g>
    <g id="xtick_5">
     <g id="line2d_5">
      <g>
       <use style="stroke:#000000;stroke-width:0.8;" x="315.607792" xlink:href="#m47b23455a6" y="378"/>
      </g>
     </g>
     <g id="text_5">
      <!-- 12 -->
      <g transform="translate(309.245292 392.598437)scale(0.1 -0.1)">
       <defs>
        <path d="M 19.1875 8.296875 
L 53.609375 8.296875 
L 53.609375 0 
L 7.328125 0 
L 7.328125 8.296875 
Q 12.9375 14.109375 22.625 23.890625 
Q 32.328125 33.6875 34.8125 36.53125 
Q 39.546875 41.84375 41.421875 45.53125 
Q 43.3125 49.21875 43.3125 52.78125 
Q 43.3125 58.59375 39.234375 62.25 
Q 35.15625 65.921875 28.609375 65.921875 
Q 23.96875 65.921875 18.8125 64.3125 
Q 13.671875 62.703125 7.8125 59.421875 
L 7.8125 69.390625 
Q 13.765625 71.78125 18.9375 73 
Q 24.125 74.21875 28.421875 74.21875 
Q 39.75 74.21875 46.484375 68.546875 
Q 53.21875 62.890625 53.21875 53.421875 
Q 53.21875 48.921875 51.53125 44.890625 
Q 49.859375 40.875 45.40625 35.40625 
Q 44.1875 33.984375 37.640625 27.21875 
Q 31.109375 20.453125 19.1875 8.296875 
z
" id="DejaVuSans-50"/>
       </defs>
       <use xlink:href="#DejaVuSans-49"/>
       <use x="63.623047" xlink:href="#DejaVuSans-50"/>
      </g>
     </g>
    </g>
    <g id="xtick_6">
     <g id="line2d_6">
      <g>
       <use style="stroke:#000000;stroke-width:0.8;" x="373.581818" xlink:href="#m47b23455a6" y="378"/>
      </g>
     </g>
     <g id="text_6">
      <!-- 14 -->
      <g transform="translate(367.219318 392.598437)scale(0.1 -0.1)">
       <use xlink:href="#DejaVuSans-49"/>
       <use x="63.623047" xlink:href="#DejaVuSans-52"/>
      </g>
     </g>
    </g>
    <g id="text_7">
     <!-- $\lambda$ = $\Omega$R/V$_0$ (Tip Speed Ratio) -->
     <g transform="translate(151.35 406.278125)scale(0.1 -0.1)">
      <defs>
       <path d="M 36.71875 67.4375 
L 48.828125 0 
L 39.3125 0 
L 31.84375 40.4375 
L 5.125 0 
L -4.390625 0 
L 29.734375 52.4375 
L 28.03125 62.109375 
Q 26.953125 68.265625 21.734375 68.265625 
L 17.046875 68.265625 
L 18.5 75.984375 
L 24.21875 75.875 
Q 35.203125 75.734375 36.71875 67.4375 
z
" id="DejaVuSans-Oblique-955"/>
       <path id="DejaVuSans-32"/>
       <path d="M 10.59375 45.40625 
L 73.1875 45.40625 
L 73.1875 37.203125 
L 10.59375 37.203125 
z
M 10.59375 25.484375 
L 73.1875 25.484375 
L 73.1875 17.1875 
L 10.59375 17.1875 
z
" id="DejaVuSans-61"/>
       <path d="M 72.609375 8.6875 
L 72.609375 0 
L 43.3125 0 
L 43.3125 8.6875 
Q 51.953125 13.421875 56.78125 21.53125 
Q 61.625 29.640625 61.625 39.5 
Q 61.625 51.21875 55.171875 58.296875 
Q 48.734375 65.375 38.1875 65.375 
Q 27.640625 65.375 21.171875 58.265625 
Q 14.703125 51.171875 14.703125 39.5 
Q 14.703125 29.640625 19.53125 21.53125 
Q 24.421875 13.421875 33.109375 8.6875 
L 33.109375 0 
L 3.8125 0 
L 3.8125 8.6875 
L 19.390625 8.6875 
Q 11.671875 15.484375 8.109375 22.75 
Q 4.59375 30.03125 4.59375 39.015625 
Q 4.59375 54.546875 13.96875 64.15625 
Q 23.296875 73.78125 38.1875 73.78125 
Q 52.984375 73.78125 62.40625 64.15625 
Q 71.78125 54.59375 71.78125 39.5 
Q 71.78125 30.03125 68.3125 22.796875 
Q 64.84375 15.578125 56.984375 8.6875 
z
" id="DejaVuSans-937"/>
       <path d="M 44.390625 34.1875 
Q 47.5625 33.109375 50.5625 29.59375 
Q 53.5625 26.078125 56.59375 19.921875 
L 66.609375 0 
L 56 0 
L 46.6875 18.703125 
Q 43.0625 26.03125 39.671875 28.421875 
Q 36.28125 30.8125 30.421875 30.8125 
L 19.671875 30.8125 
L 19.671875 0 
L 9.8125 0 
L 9.8125 72.90625 
L 32.078125 72.90625 
Q 44.578125 72.90625 50.734375 67.671875 
Q 56.890625 62.453125 56.890625 51.90625 
Q 56.890625 45.015625 53.6875 40.46875 
Q 50.484375 35.9375 44.390625 34.1875 
z
M 19.671875 64.796875 
L 19.671875 38.921875 
L 32.078125 38.921875 
Q 39.203125 38.921875 42.84375 42.21875 
Q 46.484375 45.515625 46.484375 51.90625 
Q 46.484375 58.296875 42.84375 61.546875 
Q 39.203125 64.796875 32.078125 64.796875 
z
" id="DejaVuSans-82"/>
       <path d="M 25.390625 72.90625 
L 33.6875 72.90625 
L 8.296875 -9.28125 
L 0 -9.28125 
z
" id="DejaVuSans-47"/>
       <path d="M 28.609375 0 
L 0.78125 72.90625 
L 11.078125 72.90625 
L 34.1875 11.53125 
L 57.328125 72.90625 
L 67.578125 72.90625 
L 39.796875 0 
z
" id="DejaVuSans-86"/>
       <path d="M 31 75.875 
Q 24.46875 64.65625 21.28125 53.65625 
Q 18.109375 42.671875 18.109375 31.390625 
Q 18.109375 20.125 21.3125 9.0625 
Q 24.515625 -2 31 -13.1875 
L 23.1875 -13.1875 
Q 15.875 -1.703125 12.234375 9.375 
Q 8.59375 20.453125 8.59375 31.390625 
Q 8.59375 42.28125 12.203125 53.3125 
Q 15.828125 64.359375 23.1875 75.875 
z
" id="DejaVuSans-40"/>
       <path d="M -0.296875 72.90625 
L 61.375 72.90625 
L 61.375 64.59375 
L 35.5 64.59375 
L 35.5 0 
L 25.59375 0 
L 25.59375 64.59375 
L -0.296875 64.59375 
z
" id="DejaVuSans-84"/>
       <path d="M 9.421875 54.6875 
L 18.40625 54.6875 
L 18.40625 0 
L 9.421875 0 
z
M 9.421875 75.984375 
L 18.40625 75.984375 
L 18.40625 64.59375 
L 9.421875 64.59375 
z
" id="DejaVuSans-105"/>
       <path d="M 18.109375 8.203125 
L 18.109375 -20.796875 
L 9.078125 -20.796875 
L 9.078125 54.6875 
L 18.109375 54.6875 
L 18.109375 46.390625 
Q 20.953125 51.265625 25.265625 53.625 
Q 29.59375 56 35.59375 56 
Q 45.5625 56 51.78125 48.09375 
Q 58.015625 40.1875 58.015625 27.296875 
Q 58.015625 14.40625 51.78125 6.484375 
Q 45.5625 -1.421875 35.59375 -1.421875 
Q 29.59375 -1.421875 25.265625 0.953125 
Q 20.953125 3.328125 18.109375 8.203125 
z
M 48.6875 27.296875 
Q 48.6875 37.203125 44.609375 42.84375 
Q 40.53125 48.484375 33.40625 48.484375 
Q 26.265625 48.484375 22.1875 42.84375 
Q 18.109375 37.203125 18.109375 27.296875 
Q 18.109375 17.390625 22.1875 11.75 
Q 26.265625 6.109375 33.40625 6.109375 
Q 40.53125 6.109375 44.609375 11.75 
Q 48.6875 17.390625 48.6875 27.296875 
z
" id="DejaVuSans-112"/>
       <path d="M 53.515625 70.515625 
L 53.515625 60.890625 
Q 47.90625 63.578125 42.921875 64.890625 
Q 37.9375 66.21875 33.296875 66.21875 
Q 25.25 66.21875 20.875 63.09375 
Q 16.5 59.96875 16.5 54.203125 
Q 16.5 49.359375 19.40625 46.890625 
Q 22.3125 44.4375 30.421875 42.921875 
L 36.375 41.703125 
Q 47.40625 39.59375 52.65625 34.296875 
Q 57.90625 29 57.90625 20.125 
Q 57.90625 9.515625 50.796875 4.046875 
Q 43.703125 -1.421875 29.984375 -1.421875 
Q 24.8125 -1.421875 18.96875 -0.25 
Q 13.140625 0.921875 6.890625 3.21875 
L 6.890625 13.375 
Q 12.890625 10.015625 18.65625 8.296875 
Q 24.421875 6.59375 29.984375 6.59375 
Q 38.421875 6.59375 43.015625 9.90625 
Q 47.609375 13.234375 47.609375 19.390625 
Q 47.609375 24.75 44.3125 27.78125 
Q 41.015625 30.8125 33.5 32.328125 
L 27.484375 33.5 
Q 16.453125 35.6875 11.515625 40.375 
Q 6.59375 45.0625 6.59375 53.421875 
Q 6.59375 63.09375 13.40625 68.65625 
Q 20.21875 74.21875 32.171875 74.21875 
Q 37.3125 74.21875 42.625 73.28125 
Q 47.953125 72.359375 53.515625 70.515625 
z
" id="DejaVuSans-83"/>
       <path d="M 56.203125 29.59375 
L 56.203125 25.203125 
L 14.890625 25.203125 
Q 15.484375 15.921875 20.484375 11.0625 
Q 25.484375 6.203125 34.421875 6.203125 
Q 39.59375 6.203125 44.453125 7.46875 
Q 49.3125 8.734375 54.109375 11.28125 
L 54.109375 2.78125 
Q 49.265625 0.734375 44.1875 -0.34375 
Q 39.109375 -1.421875 33.890625 -1.421875 
Q 20.796875 -1.421875 13.15625 6.1875 
Q 5.515625 13.8125 5.515625 26.8125 
Q 5.515625 40.234375 12.765625 48.109375 
Q 20.015625 56 32.328125 56 
Q 43.359375 56 49.78125 48.890625 
Q 56.203125 41.796875 56.203125 29.59375 
z
M 47.21875 32.234375 
Q 47.125 39.59375 43.09375 43.984375 
Q 39.0625 48.390625 32.421875 48.390625 
Q 24.90625 48.390625 20.390625 44.140625 
Q 15.875 39.890625 15.1875 32.171875 
z
" id="DejaVuSans-101"/>
       <path d="M 45.40625 46.390625 
L 45.40625 75.984375 
L 54.390625 75.984375 
L 54.390625 0 
L 45.40625 0 
L 45.40625 8.203125 
Q 42.578125 3.328125 38.25 0.953125 
Q 33.9375 -1.421875 27.875 -1.421875 
Q 17.96875 -1.421875 11.734375 6.484375 
Q 5.515625 14.40625 5.515625 27.296875 
Q 5.515625 40.1875 11.734375 48.09375 
Q 17.96875 56 27.875 56 
Q 33.9375 56 38.25 53.625 
Q 42.578125 51.265625 45.40625 46.390625 
z
M 14.796875 27.296875 
Q 14.796875 17.390625 18.875 11.75 
Q 22.953125 6.109375 30.078125 6.109375 
Q 37.203125 6.109375 41.296875 11.75 
Q 45.40625 17.390625 45.40625 27.296875 
Q 45.40625 37.203125 41.296875 42.84375 
Q 37.203125 48.484375 30.078125 48.484375 
Q 22.953125 48.484375 18.875 42.84375 
Q 14.796875 37.203125 14.796875 27.296875 
z
" id="DejaVuSans-100"/>
       <path d="M 34.28125 27.484375 
Q 23.390625 27.484375 19.1875 25 
Q 14.984375 22.515625 14.984375 16.5 
Q 14.984375 11.71875 18.140625 8.90625 
Q 21.296875 6.109375 26.703125 6.109375 
Q 34.1875 6.109375 38.703125 11.40625 
Q 43.21875 16.703125 43.21875 25.484375 
L 43.21875 27.484375 
z
M 52.203125 31.203125 
L 52.203125 0 
L 43.21875 0 
L 43.21875 8.296875 
Q 40.140625 3.328125 35.546875 0.953125 
Q 30.953125 -1.421875 24.3125 -1.421875 
Q 15.921875 -1.421875 10.953125 3.296875 
Q 6 8.015625 6 15.921875 
Q 6 25.140625 12.171875 29.828125 
Q 18.359375 34.515625 30.609375 34.515625 
L 43.21875 34.515625 
L 43.21875 35.40625 
Q 43.21875 41.609375 39.140625 45 
Q 35.0625 48.390625 27.6875 48.390625 
Q 23 48.390625 18.546875 47.265625 
Q 14.109375 46.140625 10.015625 43.890625 
L 10.015625 52.203125 
Q 14.9375 54.109375 19.578125 55.046875 
Q 24.21875 56 28.609375 56 
Q 40.484375 56 46.34375 49.84375 
Q 52.203125 43.703125 52.203125 31.203125 
z
" id="DejaVuSans-97"/>
       <path d="M 18.3125 70.21875 
L 18.3125 54.6875 
L 36.8125 54.6875 
L 36.8125 47.703125 
L 18.3125 47.703125 
L 18.3125 18.015625 
Q 18.3125 11.328125 20.140625 9.421875 
Q 21.96875 7.515625 27.59375 7.515625 
L 36.8125 7.515625 
L 36.8125 0 
L 27.59375 0 
Q 17.1875 0 13.234375 3.875 
Q 9.28125 7.765625 9.28125 18.015625 
L 9.28125 47.703125 
L 2.6875 47.703125 
L 2.6875 54.6875 
L 9.28125 54.6875 
L 9.28125 70.21875 
z
" id="DejaVuSans-116"/>
       <path d="M 30.609375 48.390625 
Q 23.390625 48.390625 19.1875 42.75 
Q 14.984375 37.109375 14.984375 27.296875 
Q 14.984375 17.484375 19.15625 11.84375 
Q 23.34375 6.203125 30.609375 6.203125 
Q 37.796875 6.203125 41.984375 11.859375 
Q 46.1875 17.53125 46.1875 27.296875 
Q 46.1875 37.015625 41.984375 42.703125 
Q 37.796875 48.390625 30.609375 48.390625 
z
M 30.609375 56 
Q 42.328125 56 49.015625 48.375 
Q 55.71875 40.765625 55.71875 27.296875 
Q 55.71875 13.875 49.015625 6.21875 
Q 42.328125 -1.421875 30.609375 -1.421875 
Q 18.84375 -1.421875 12.171875 6.21875 
Q 5.515625 13.875 5.515625 27.296875 
Q 5.515625 40.765625 12.171875 48.375 
Q 18.84375 56 30.609375 56 
z
" id="DejaVuSans-111"/>
       <path d="M 8.015625 75.875 
L 15.828125 75.875 
Q 23.140625 64.359375 26.78125 53.3125 
Q 30.421875 42.28125 30.421875 31.390625 
Q 30.421875 20.453125 26.78125 9.375 
Q 23.140625 -1.703125 15.828125 -13.1875 
L 8.015625 -13.1875 
Q 14.5 -2 17.703125 9.0625 
Q 20.90625 20.125 20.90625 31.390625 
Q 20.90625 42.671875 17.703125 53.65625 
Q 14.5 64.65625 8.015625 75.875 
z
" id="DejaVuSans-41"/>
      </defs>
      <use transform="translate(0 0.015625)" xlink:href="#DejaVuSans-Oblique-955"/>
      <use transform="translate(59.179688 0.015625)" xlink:href="#DejaVuSans-32"/>
      <use transform="translate(90.966797 0.015625)" xlink:href="#DejaVuSans-61"/>
      <use transform="translate(174.755859 0.015625)" xlink:href="#DejaVuSans-32"/>
      <use transform="translate(206.542969 0.015625)" xlink:href="#DejaVuSans-937"/>
      <use transform="translate(282.958984 0.015625)" xlink:href="#DejaVuSans-82"/>
      <use transform="translate(352.441406 0.015625)" xlink:href="#DejaVuSans-47"/>
      <use transform="translate(386.132812 0.015625)" xlink:href="#DejaVuSans-86"/>
      <use transform="translate(455.498047 -16.390625)scale(0.7)" xlink:href="#DejaVuSans-48"/>
      <use transform="translate(502.768555 0.015625)" xlink:href="#DejaVuSans-32"/>
      <use transform="translate(534.555664 0.015625)" xlink:href="#DejaVuSans-40"/>
      <use transform="translate(573.569336 0.015625)" xlink:href="#DejaVuSans-84"/>
      <use transform="translate(634.65332 0.015625)" xlink:href="#DejaVuSans-105"/>
      <use transform="translate(662.436523 0.015625)" xlink:href="#DejaVuSans-112"/>
      <use transform="translate(725.913086 0.015625)" xlink:href="#DejaVuSans-32"/>
      <use transform="translate(757.700195 0.015625)" xlink:href="#DejaVuSans-83"/>
      <use transform="translate(821.176758 0.015625)" xlink:href="#DejaVuSans-112"/>
      <use transform="translate(884.65332 0.015625)" xlink:href="#DejaVuSans-101"/>
      <use transform="translate(946.176758 0.015625)" xlink:href="#DejaVuSans-101"/>
      <use transform="translate(1007.700195 0.015625)" xlink:href="#DejaVuSans-100"/>
      <use transform="translate(1071.176758 0.015625)" xlink:href="#DejaVuSans-32"/>
      <use transform="translate(1102.963867 0.015625)" xlink:href="#DejaVuSans-82"/>
      <use transform="translate(1172.446289 0.015625)" xlink:href="#DejaVuSans-97"/>
      <use transform="translate(1233.725586 0.015625)" xlink:href="#DejaVuSans-116"/>
      <use transform="translate(1272.93457 0.015625)" xlink:href="#DejaVuSans-105"/>
      <use transform="translate(1300.717773 0.015625)" xlink:href="#DejaVuSans-111"/>
      <use transform="translate(1361.899414 0.015625)" xlink:href="#DejaVuSans-41"/>
     </g>
    </g>
   </g>
   <g id="matplotlib.axis_2">
    <g id="ytick_1">
     <g id="line2d_7">
      <defs>
       <path d="M 0 0 
L -3.5 0 
" id="mb4fee2e169" style="stroke:#000000;stroke-width:0.8;"/>
      </defs>
      <g>
       <use style="stroke:#000000;stroke-width:0.8;" x="54" xlink:href="#mb4fee2e169" y="378"/>
      </g>
     </g>
     <g id="text_8">
      <!-- 0.0 -->
      <g transform="translate(31.096875 381.799219)scale(0.1 -0.1)">
       <defs>
        <path d="M 10.6875 12.40625 
L 21 12.40625 
L 21 0 
L 10.6875 0 
z
" id="DejaVuSans-46"/>
       </defs>
       <use xlink:href="#DejaVuSans-48"/>
       <use x="63.623047" xlink:href="#DejaVuSans-46"/>
       <use x="95.410156" xlink:href="#DejaVuSans-48"/>
      </g>
     </g>
    </g>
    <g id="ytick_2">
     <g id="line2d_8">
      <g>
       <use style="stroke:#000000;stroke-width:0.8;" x="54" xlink:href="#mb4fee2e169" y="312.768"/>
      </g>
     </g>
     <g id="text_9">
      <!-- 0.2 -->
      <g transform="translate(31.096875 316.567219)scale(0.1 -0.1)">
       <use xlink:href="#DejaVuSans-48"/>
       <use x="63.623047" xlink:href="#DejaVuSans-46"/>
       <use x="95.410156" xlink:href="#DejaVuSans-50"/>
      </g>
     </g>
    </g>
    <g id="ytick_3">
     <g id="line2d_9">
      <g>
       <use style="stroke:#000000;stroke-width:0.8;" x="54" xlink:href="#mb4fee2e169" y="247.536"/>
      </g>
     </g>
     <g id="text_10">
      <!-- 0.4 -->
      <g transform="translate(31.096875 251.335219)scale(0.1 -0.1)">
       <use xlink:href="#DejaVuSans-48"/>
       <use x="63.623047" xlink:href="#DejaVuSans-46"/>
       <use x="95.410156" xlink:href="#DejaVuSans-52"/>
      </g>
     </g>
    </g>
    <g id="ytick_4">
     <g id="line2d_10">
      <g>
       <use style="stroke:#000000;stroke-width:0.8;" x="54" xlink:href="#mb4fee2e169" y="182.304"/>
      </g>
     </g>
     <g id="text_11">
      <!-- 0.6 -->
      <g transform="translate(31.096875 186.103219)scale(0.1 -0.1)">
       <use xlink:href="#DejaVuSans-48"/>
       <use x="63.623047" xlink:href="#DejaVuSans-46"/>
       <use x="95.410156" xlink:href="#DejaVuSans-54"/>
      </g>
     </g>
    </g>
    <g id="ytick_5">
     <g id="line2d_11">
      <g>
       <use style="stroke:#000000;stroke-width:0.8;" x="54" xlink:href="#mb4fee2e169" y="117.072"/>
      </g>
     </g>
     <g id="text_12">
      <!-- 0.8 -->
      <g transform="translate(31.096875 120.871219)scale(0.1 -0.1)">
       <use xlink:href="#DejaVuSans-48"/>
       <use x="63.623047" xlink:href="#DejaVuSans-46"/>
       <use x="95.410156" xlink:href="#DejaVuSans-56"/>
      </g>
     </g>
    </g>
    <g id="ytick_6">
     <g id="line2d_12">
      <g>
       <use style="stroke:#000000;stroke-width:0.8;" x="54" xlink:href="#mb4fee2e169" y="51.84"/>
      </g>
     </g>
     <g id="text_13">
      <!-- 1.0 -->
      <g transform="translate(31.096875 55.639219)scale(0.1 -0.1)">
       <use xlink:href="#DejaVuSans-49"/>
       <use x="63.623047" xlink:href="#DejaVuSans-46"/>
       <use x="95.410156" xlink:href="#DejaVuSans-48"/>
      </g>
     </g>
    </g>
    <g id="text_14">
     <!-- C$_p$ $\times$ 27/16 (Normalised Power Coefficient) -->
     <g transform="translate(23.996875 321.87)rotate(-90)scale(0.1 -0.1)">
      <defs>
       <path d="M 64.40625 67.28125 
L 64.40625 56.890625 
Q 59.421875 61.53125 53.78125 63.8125 
Q 48.140625 66.109375 41.796875 66.109375 
Q 29.296875 66.109375 22.65625 58.46875 
Q 16.015625 50.828125 16.015625 36.375 
Q 16.015625 21.96875 22.65625 14.328125 
Q 29.296875 6.6875 41.796875 6.6875 
Q 48.140625 6.6875 53.78125 8.984375 
Q 59.421875 11.28125 64.40625 15.921875 
L 64.40625 5.609375 
Q 59.234375 2.09375 53.4375 0.328125 
Q 47.65625 -1.421875 41.21875 -1.421875 
Q 24.65625 -1.421875 15.125 8.703125 
Q 5.609375 18.84375 5.609375 36.375 
Q 5.609375 53.953125 15.125 64.078125 
Q 24.65625 74.21875 41.21875 74.21875 
Q 47.75 74.21875 53.53125 72.484375 
Q 59.328125 70.75 64.40625 67.28125 
z
" id="DejaVuSans-67"/>
       <path d="M 49.609375 33.6875 
Q 49.609375 40.875 46.484375 44.671875 
Q 43.359375 48.484375 37.5 48.484375 
Q 33.5 48.484375 29.859375 46.4375 
Q 26.21875 44.390625 23.390625 40.484375 
Q 20.609375 36.625 18.9375 31.15625 
Q 17.28125 25.6875 17.28125 20.3125 
Q 17.28125 13.484375 20.40625 9.796875 
Q 23.53125 6.109375 29.296875 6.109375 
Q 33.546875 6.109375 37.1875 8.109375 
Q 40.828125 10.109375 43.40625 13.921875 
Q 46.1875 17.921875 47.890625 23.34375 
Q 49.609375 28.765625 49.609375 33.6875 
z
M 21.78125 46.390625 
Q 25.390625 51.125 30.296875 53.5625 
Q 35.203125 56 41.21875 56 
Q 49.609375 56 54.25 50.5 
Q 58.890625 45.015625 58.890625 35.109375 
Q 58.890625 27 56 19.65625 
Q 53.125 12.3125 47.703125 6.5 
Q 44.09375 2.640625 39.546875 0.609375 
Q 35.015625 -1.421875 29.984375 -1.421875 
Q 24.171875 -1.421875 20.21875 1 
Q 16.265625 3.421875 14.3125 8.203125 
L 8.6875 -20.796875 
L -0.296875 -20.796875 
L 14.40625 54.6875 
L 23.390625 54.6875 
z
" id="DejaVuSans-Oblique-112"/>
       <path d="M 70.125 53.71875 
L 47.796875 31.296875 
L 70.125 8.984375 
L 64.3125 3.078125 
L 41.890625 25.484375 
L 19.484375 3.078125 
L 13.71875 8.984375 
L 35.984375 31.296875 
L 13.71875 53.71875 
L 19.484375 59.625 
L 41.890625 37.203125 
L 64.3125 59.625 
z
" id="DejaVuSans-215"/>
       <path d="M 8.203125 72.90625 
L 55.078125 72.90625 
L 55.078125 68.703125 
L 28.609375 0 
L 18.3125 0 
L 43.21875 64.59375 
L 8.203125 64.59375 
z
" id="DejaVuSans-55"/>
       <path d="M 9.8125 72.90625 
L 23.09375 72.90625 
L 55.421875 11.921875 
L 55.421875 72.90625 
L 64.984375 72.90625 
L 64.984375 0 
L 51.703125 0 
L 19.390625 60.984375 
L 19.390625 0 
L 9.8125 0 
z
" id="DejaVuSans-78"/>
       <path d="M 41.109375 46.296875 
Q 39.59375 47.171875 37.8125 47.578125 
Q 36.03125 48 33.890625 48 
Q 26.265625 48 22.1875 43.046875 
Q 18.109375 38.09375 18.109375 28.8125 
L 18.109375 0 
L 9.078125 0 
L 9.078125 54.6875 
L 18.109375 54.6875 
L 18.109375 46.1875 
Q 20.953125 51.171875 25.484375 53.578125 
Q 30.03125 56 36.53125 56 
Q 37.453125 56 38.578125 55.875 
Q 39.703125 55.765625 41.0625 55.515625 
z
" id="DejaVuSans-114"/>
       <path d="M 52 44.1875 
Q 55.375 50.25 60.0625 53.125 
Q 64.75 56 71.09375 56 
Q 79.640625 56 84.28125 50.015625 
Q 88.921875 44.046875 88.921875 33.015625 
L 88.921875 0 
L 79.890625 0 
L 79.890625 32.71875 
Q 79.890625 40.578125 77.09375 44.375 
Q 74.3125 48.1875 68.609375 48.1875 
Q 61.625 48.1875 57.5625 43.546875 
Q 53.515625 38.921875 53.515625 30.90625 
L 53.515625 0 
L 44.484375 0 
L 44.484375 32.71875 
Q 44.484375 40.625 41.703125 44.40625 
Q 38.921875 48.1875 33.109375 48.1875 
Q 26.21875 48.1875 22.15625 43.53125 
Q 18.109375 38.875 18.109375 30.90625 
L 18.109375 0 
L 9.078125 0 
L 9.078125 54.6875 
L 18.109375 54.6875 
L 18.109375 46.1875 
Q 21.1875 51.21875 25.484375 53.609375 
Q 29.78125 56 35.6875 56 
Q 41.65625 56 45.828125 52.96875 
Q 50 49.953125 52 44.1875 
z
" id="DejaVuSans-109"/>
       <path d="M 9.421875 75.984375 
L 18.40625 75.984375 
L 18.40625 0 
L 9.421875 0 
z
" id="DejaVuSans-108"/>
       <path d="M 44.28125 53.078125 
L 44.28125 44.578125 
Q 40.484375 46.53125 36.375 47.5 
Q 32.28125 48.484375 27.875 48.484375 
Q 21.1875 48.484375 17.84375 46.4375 
Q 14.5 44.390625 14.5 40.28125 
Q 14.5 37.15625 16.890625 35.375 
Q 19.28125 33.59375 26.515625 31.984375 
L 29.59375 31.296875 
Q 39.15625 29.25 43.1875 25.515625 
Q 47.21875 21.78125 47.21875 15.09375 
Q 47.21875 7.46875 41.1875 3.015625 
Q 35.15625 -1.421875 24.609375 -1.421875 
Q 20.21875 -1.421875 15.453125 -0.5625 
Q 10.6875 0.296875 5.421875 2 
L 5.421875 11.28125 
Q 10.40625 8.6875 15.234375 7.390625 
Q 20.0625 6.109375 24.8125 6.109375 
Q 31.15625 6.109375 34.5625 8.28125 
Q 37.984375 10.453125 37.984375 14.40625 
Q 37.984375 18.0625 35.515625 20.015625 
Q 33.0625 21.96875 24.703125 23.78125 
L 21.578125 24.515625 
Q 13.234375 26.265625 9.515625 29.90625 
Q 5.8125 33.546875 5.8125 39.890625 
Q 5.8125 47.609375 11.28125 51.796875 
Q 16.75 56 26.8125 56 
Q 31.78125 56 36.171875 55.265625 
Q 40.578125 54.546875 44.28125 53.078125 
z
" id="DejaVuSans-115"/>
       <path d="M 19.671875 64.796875 
L 19.671875 37.40625 
L 32.078125 37.40625 
Q 38.96875 37.40625 42.71875 40.96875 
Q 46.484375 44.53125 46.484375 51.125 
Q 46.484375 57.671875 42.71875 61.234375 
Q 38.96875 64.796875 32.078125 64.796875 
z
M 9.8125 72.90625 
L 32.078125 72.90625 
Q 44.34375 72.90625 50.609375 67.359375 
Q 56.890625 61.8125 56.890625 51.125 
Q 56.890625 40.328125 50.609375 34.8125 
Q 44.34375 29.296875 32.078125 29.296875 
L 19.671875 29.296875 
L 19.671875 0 
L 9.8125 0 
z
" id="DejaVuSans-80"/>
       <path d="M 4.203125 54.6875 
L 13.1875 54.6875 
L 24.421875 12.015625 
L 35.59375 54.6875 
L 46.1875 54.6875 
L 57.421875 12.015625 
L 68.609375 54.6875 
L 77.59375 54.6875 
L 63.28125 0 
L 52.6875 0 
L 40.921875 44.828125 
L 29.109375 0 
L 18.5 0 
z
" id="DejaVuSans-119"/>
       <path d="M 37.109375 75.984375 
L 37.109375 68.5 
L 28.515625 68.5 
Q 23.6875 68.5 21.796875 66.546875 
Q 19.921875 64.59375 19.921875 59.515625 
L 19.921875 54.6875 
L 34.71875 54.6875 
L 34.71875 47.703125 
L 19.921875 47.703125 
L 19.921875 0 
L 10.890625 0 
L 10.890625 47.703125 
L 2.296875 47.703125 
L 2.296875 54.6875 
L 10.890625 54.6875 
L 10.890625 58.5 
Q 10.890625 67.625 15.140625 71.796875 
Q 19.390625 75.984375 28.609375 75.984375 
z
" id="DejaVuSans-102"/>
       <path d="M 48.78125 52.59375 
L 48.78125 44.1875 
Q 44.96875 46.296875 41.140625 47.34375 
Q 37.3125 48.390625 33.40625 48.390625 
Q 24.65625 48.390625 19.8125 42.84375 
Q 14.984375 37.3125 14.984375 27.296875 
Q 14.984375 17.28125 19.8125 11.734375 
Q 24.65625 6.203125 33.40625 6.203125 
Q 37.3125 6.203125 41.140625 7.25 
Q 44.96875 8.296875 48.78125 10.40625 
L 48.78125 2.09375 
Q 45.015625 0.34375 40.984375 -0.53125 
Q 36.96875 -1.421875 32.421875 -1.421875 
Q 20.0625 -1.421875 12.78125 6.34375 
Q 5.515625 14.109375 5.515625 27.296875 
Q 5.515625 40.671875 12.859375 48.328125 
Q 20.21875 56 33.015625 56 
Q 37.15625 56 41.109375 55.140625 
Q 45.0625 54.296875 48.78125 52.59375 
z
" id="DejaVuSans-99"/>
       <path d="M 54.890625 33.015625 
L 54.890625 0 
L 45.90625 0 
L 45.90625 32.71875 
Q 45.90625 40.484375 42.875 44.328125 
Q 39.84375 48.1875 33.796875 48.1875 
Q 26.515625 48.1875 22.3125 43.546875 
Q 18.109375 38.921875 18.109375 30.90625 
L 18.109375 0 
L 9.078125 0 
L 9.078125 54.6875 
L 18.109375 54.6875 
L 18.109375 46.1875 
Q 21.34375 51.125 25.703125 53.5625 
Q 30.078125 56 35.796875 56 
Q 45.21875 56 50.046875 50.171875 
Q 54.890625 44.34375 54.890625 33.015625 
z
" id="DejaVuSans-110"/>
      </defs>
      <use transform="translate(0 0.015625)" xlink:href="#DejaVuSans-67"/>
      <use transform="translate(70.78125 -16.390625)scale(0.7)" xlink:href="#DejaVuSans-Oblique-112"/>
      <use transform="translate(117.949219 0.015625)" xlink:href="#DejaVuSans-32"/>
      <use transform="translate(149.736328 0.015625)" xlink:href="#DejaVuSans-215"/>
      <use transform="translate(233.525391 0.015625)" xlink:href="#DejaVuSans-32"/>
      <use transform="translate(265.3125 0.015625)" xlink:href="#DejaVuSans-50"/>
      <use transform="translate(328.935547 0.015625)" xlink:href="#DejaVuSans-55"/>
      <use transform="translate(392.558594 0.015625)" xlink:href="#DejaVuSans-47"/>
      <use transform="translate(426.25 0.015625)" xlink:href="#DejaVuSans-49"/>
      <use transform="translate(489.873047 0.015625)" xlink:href="#DejaVuSans-54"/>
      <use transform="translate(553.496094 0.015625)" xlink:href="#DejaVuSans-32"/>
      <use transform="translate(585.283203 0.015625)" xlink:href="#DejaVuSans-40"/>
      <use transform="translate(624.296875 0.015625)" xlink:href="#DejaVuSans-78"/>
      <use transform="translate(699.101562 0.015625)" xlink:href="#DejaVuSans-111"/>
      <use transform="translate(760.283203 0.015625)" xlink:href="#DejaVuSans-114"/>
      <use transform="translate(801.396484 0.015625)" xlink:href="#DejaVuSans-109"/>
      <use transform="translate(898.808594 0.015625)" xlink:href="#DejaVuSans-97"/>
      <use transform="translate(960.087891 0.015625)" xlink:href="#DejaVuSans-108"/>
      <use transform="translate(987.871094 0.015625)" xlink:href="#DejaVuSans-105"/>
      <use transform="translate(1015.654297 0.015625)" xlink:href="#DejaVuSans-115"/>
      <use transform="translate(1067.753906 0.015625)" xlink:href="#DejaVuSans-101"/>
      <use transform="translate(1129.277344 0.015625)" xlink:href="#DejaVuSans-100"/>
      <use transform="translate(1192.753906 0.015625)" xlink:href="#DejaVuSans-32"/>
      <use transform="translate(1224.541016 0.015625)" xlink:href="#DejaVuSans-80"/>
      <use transform="translate(1284.84375 0.015625)" xlink:href="#DejaVuSans-111"/>
      <use transform="translate(1346.025391 0.015625)" xlink:href="#DejaVuSans-119"/>
      <use transform="translate(1427.8125 0.015625)" xlink:href="#DejaVuSans-101"/>
      <use transform="translate(1489.335938 0.015625)" xlink:href="#DejaVuSans-114"/>
      <use transform="translate(1530.449219 0.015625)" xlink:href="#DejaVuSans-32"/>
      <use transform="translate(1562.236328 0.015625)" xlink:href="#DejaVuSans-67"/>
      <use transform="translate(1632.060547 0.015625)" xlink:href="#DejaVuSans-111"/>
      <use transform="translate(1693.242188 0.015625)" xlink:href="#DejaVuSans-101"/>
      <use transform="translate(1754.765625 0.015625)" xlink:href="#DejaVuSans-102"/>
      <use transform="translate(1789.970703 0.015625)" xlink:href="#DejaVuSans-102"/>
      <use transform="translate(1825.175781 0.015625)" xlink:href="#DejaVuSans-105"/>
      <use transform="translate(1852.958984 0.015625)" xlink:href="#DejaVuSans-99"/>
      <use transform="translate(1907.939453 0.015625)" xlink:href="#DejaVuSans-105"/>
      <use transform="translate(1935.722656 0.015625)" xlink:href="#DejaVuSans-101"/>
      <use transform="translate(1997.246094 0.015625)" xlink:href="#DejaVuSans-110"/>
      <use transform="translate(2060.625 0.015625)" xlink:href="#DejaVuSans-116"/>
      <use transform="translate(2099.833984 0.015625)" xlink:href="#DejaVuSans-41"/>
     </g>
    </g>
   </g>
   <g id="line2d_13">
    <path clip-path="url(#paf877b4d8e)" d="M 373.581818 278.66234 
L 336.689256 223.971216 
L 305.945455 186.196472 
L 279.931469 159.808634 
L 257.633766 141.392858 
L 238.309091 128.638675 
L 221.4 120.126405 
L 206.480214 114.697334 
L 193.218182 111.46284 
L 181.352153 110.13951 
L 170.672727 110.194461 
L 161.01039 111.721143 
L 152.226446 114.799122 
L 144.206324 119.304397 
L 136.854545 125.186088 
L 130.090909 132.146953 
L 123.847552 140.348387 
L 118.066667 150.139719 
L 112.698701 160.936592 
L 107.70094 172.397343 
L 103.036364 183.521936 
L 98.672727 194.413087 
L 94.581818 204.796313 
L 90.738843 214.529015 
L 87.121925 223.779549 
L 83.711688 232.643226 
L 80.490909 241.612402 
L 77.444226 250.285524 
L 74.557895 258.695548 
L 71.81958 267.059321 
L 69.218182 275.191711 
" style="fill:none;stroke:#1f77b4;stroke-linecap:square;stroke-width:1.5;"/>
    <defs>
     <path d="M 0 3 
C 0.795609 3 1.55874 2.683901 2.12132 2.12132 
C 2.683901 1.55874 3 0.795609 3 0 
C 3 -0.795609 2.683901 -1.55874 2.12132 -2.12132 
C 1.55874 -2.683901 0.795609 -3 0 -3 
C -0.795609 -3 -1.55874 -2.683901 -2.12132 -2.12132 
C -2.683901 -1.55874 -3 -0.795609 -3 0 
C -3 0.795609 -2.683901 1.55874 -2.12132 2.12132 
C -1.55874 2.683901 -0.795609 3 0 3 
z
" id="m1c68c269d7" style="stroke:#1f77b4;"/>
    </defs>
    <g clip-path="url(#paf877b4d8e)">
     <use style="fill:#1f77b4;stroke:#1f77b4;" x="373.581818" xlink:href="#m1c68c269d7" y="278.66234"/>
     <use style="fill:#1f77b4;stroke:#1f77b4;" x="336.689256" xlink:href="#m1c68c269d7" y="223.971216"/>
     <use style="fill:#1f77b4;stroke:#1f77b4;" x="305.945455" xlink:href="#m1c68c269d7" y="186.196472"/>
     <use style="fill:#1f77b4;stroke:#1f77b4;" x="279.931469" xlink:href="#m1c68c269d7" y="159.808634"/>
     <use style="fill:#1f77b4;stroke:#1f77b4;" x="257.633766" xlink:href="#m1c68c269d7" y="141.392858"/>
     <use style="fill:#1f77b4;stroke:#1f77b4;" x="238.309091" xlink:href="#m1c68c269d7" y="128.638675"/>
     <use style="fill:#1f77b4;stroke:#1f77b4;" x="221.4" xlink:href="#m1c68c269d7" y="120.126405"/>
     <use style="fill:#1f77b4;stroke:#1f77b4;" x="206.480214" xlink:href="#m1c68c269d7" y="114.697334"/>
     <use style="fill:#1f77b4;stroke:#1f77b4;" x="193.218182" xlink:href="#m1c68c269d7" y="111.46284"/>
     <use style="fill:#1f77b4;stroke:#1f77b4;" x="181.352153" xlink:href="#m1c68c269d7" y="110.13951"/>
     <use style="fill:#1f77b4;stroke:#1f77b4;" x="170.672727" xlink:href="#m1c68c269d7" y="110.194461"/>
     <use style="fill:#1f77b4;stroke:#1f77b4;" x="161.01039" xlink:href="#m1c68c269d7" y="111.721143"/>
     <use style="fill:#1f77b4;stroke:#1f77b4;" x="152.226446" xlink:href="#m1c68c269d7" y="114.799122"/>
     <use style="fill:#1f77b4;stroke:#1f77b4;" x="144.206324" xlink:href="#m1c68c269d7" y="119.304397"/>
     <use style="fill:#1f77b4;stroke:#1f77b4;" x="136.854545" xlink:href="#m1c68c269d7" y="125.186088"/>
     <use style="fill:#1f77b4;stroke:#1f77b4;" x="130.090909" xlink:href="#m1c68c269d7" y="132.146953"/>
     <use style="fill:#1f77b4;stroke:#1f77b4;" x="123.847552" xlink:href="#m1c68c269d7" y="140.348387"/>
     <use style="fill:#1f77b4;stroke:#1f77b4;" x="118.066667" xlink:href="#m1c68c269d7" y="150.139719"/>
     <use style="fill:#1f77b4;stroke:#1f77b4;" x="112.698701" xlink:href="#m1c68c269d7" y="160.936592"/>
     <use style="fill:#1f77b4;stroke:#1f77b4;" x="107.70094" xlink:href="#m1c68c269d7" y="172.397343"/>
     <use style="fill:#1f77b4;stroke:#1f77b4;" x="103.036364" xlink:href="#m1c68c269d7" y="183.521936"/>
     <use style="fill:#1f77b4;stroke:#1f77b4;" x="98.672727" xlink:href="#m1c68c269d7" y="194.413087"/>
     <use style="fill:#1f77b4;stroke:#1f77b4;" x="94.581818" xlink:href="#m1c68c269d7" y="204.796313"/>
     <use style="fill:#1f77b4;stroke:#1f77b4;" x="90.738843" xlink:href="#m1c68c269d7" y="214.529015"/>
     <use style="fill:#1f77b4;stroke:#1f77b4;" x="87.121925" xlink:href="#m1c68c269d7" y="223.779549"/>
     <use style="fill:#1f77b4;stroke:#1f77b4;" x="83.711688" xlink:href="#m1c68c269d7" y="232.643226"/>
     <use style="fill:#1f77b4;stroke:#1f77b4;" x="80.490909" xlink:href="#m1c68c269d7" y="241.612402"/>
     <use style="fill:#1f77b4;stroke:#1f77b4;" x="77.444226" xlink:href="#m1c68c269d7" y="250.285524"/>
     <use style="fill:#1f77b4;stroke:#1f77b4;" x="74.557895" xlink:href="#m1c68c269d7" y="258.695548"/>
     <use style="fill:#1f77b4;stroke:#1f77b4;" x="71.81958" xlink:href="#m1c68c269d7" y="267.059321"/>
     <use style="fill:#1f77b4;stroke:#1f77b4;" x="69.218182" xlink:href="#m1c68c269d7" y="275.191711"/>
    </g>
   </g>
   <g id="line2d_14">
    <path clip-path="url(#paf877b4d8e)" d="M 373.581818 210.434896 
L 336.689256 182.476038 
L 305.945455 164.792349 
L 279.931469 153.703722 
L 257.633766 147.011037 
L 238.309091 143.221142 
L 221.4 141.58916 
L 206.480214 141.476554 
L 193.218182 142.500633 
L 181.352153 144.419934 
L 170.672727 146.944715 
L 161.01039 149.872479 
L 152.226446 153.206317 
L 144.206324 156.886796 
L 136.854545 160.841234 
L 130.090909 165.0903 
L 123.847552 169.661638 
L 118.066667 174.599595 
L 112.698701 179.797424 
L 107.70094 185.24514 
L 103.036364 190.993924 
L 98.672727 197.357064 
L 94.581818 203.796092 
L 90.738843 210.652659 
L 87.121925 217.423149 
L 83.711688 224.423917 
L 80.490909 231.105105 
L 77.444226 237.620124 
L 74.557895 243.888882 
L 71.81958 249.746813 
L 69.218182 255.331155 
" style="fill:none;stroke:#ff7f0e;stroke-linecap:square;stroke-width:1.5;"/>
    <defs>
     <path d="M 0 3 
C 0.795609 3 1.55874 2.683901 2.12132 2.12132 
C 2.683901 1.55874 3 0.795609 3 0 
C 3 -0.795609 2.683901 -1.55874 2.12132 -2.12132 
C 1.55874 -2.683901 0.795609 -3 0 -3 
C -0.795609 -3 -1.55874 -2.683901 -2.12132 -2.12132 
C -2.683901 -1.55874 -3 -0.795609 -3 0 
C -3 0.795609 -2.683901 1.55874 -2.12132 2.12132 
C -1.55874 2.683901 -0.795609 3 0 3 
z
" id="mda71d3fdfc" style="stroke:#ff7f0e;"/>
    </defs>
    <g clip-path="url(#paf877b4d8e)">
     <use style="fill:#ff7f0e;stroke:#ff7f0e;" x="373.581818" xlink:href="#mda71d3fdfc" y="210.434896"/>
     <use style="fill:#ff7f0e;stroke:#ff7f0e;" x="336.689256" xlink:href="#mda71d3fdfc" y="182.476038"/>
     <use style="fill:#ff7f0e;stroke:#ff7f0e;" x="305.945455" xlink:href="#mda71d3fdfc" y="164.792349"/>
     <use style="fill:#ff7f0e;stroke:#ff7f0e;" x="279.931469" xlink:href="#mda71d3fdfc" y="153.703722"/>
     <use style="fill:#ff7f0e;stroke:#ff7f0e;" x="257.633766" xlink:href="#mda71d3fdfc" y="147.011037"/>
     <use style="fill:#ff7f0e;stroke:#ff7f0e;" x="238.309091" xlink:href="#mda71d3fdfc" y="143.221142"/>
     <use style="fill:#ff7f0e;stroke:#ff7f0e;" x="221.4" xlink:href="#mda71d3fdfc" y="141.58916"/>
     <use style="fill:#ff7f0e;stroke:#ff7f0e;" x="206.480214" xlink:href="#mda71d3fdfc" y="141.476554"/>
     <use style="fill:#ff7f0e;stroke:#ff7f0e;" x="193.218182" xlink:href="#mda71d3fdfc" y="142.500633"/>
     <use style="fill:#ff7f0e;stroke:#ff7f0e;" x="181.352153" xlink:href="#mda71d3fdfc" y="144.419934"/>
     <use style="fill:#ff7f0e;stroke:#ff7f0e;" x="170.672727" xlink:href="#mda71d3fdfc" y="146.944715"/>
     <use style="fill:#ff7f0e;stroke:#ff7f0e;" x="161.01039" xlink:href="#mda71d3fdfc" y="149.872479"/>
     <use style="fill:#ff7f0e;stroke:#ff7f0e;" x="152.226446" xlink:href="#mda71d3fdfc" y="153.206317"/>
     <use style="fill:#ff7f0e;stroke:#ff7f0e;" x="144.206324" xlink:href="#mda71d3fdfc" y="156.886796"/>
     <use style="fill:#ff7f0e;stroke:#ff7f0e;" x="136.854545" xlink:href="#mda71d3fdfc" y="160.841234"/>
     <use style="fill:#ff7f0e;stroke:#ff7f0e;" x="130.090909" xlink:href="#mda71d3fdfc" y="165.0903"/>
     <use style="fill:#ff7f0e;stroke:#ff7f0e;" x="123.847552" xlink:href="#mda71d3fdfc" y="169.661638"/>
     <use style="fill:#ff7f0e;stroke:#ff7f0e;" x="118.066667" xlink:href="#mda71d3fdfc" y="174.599595"/>
     <use style="fill:#ff7f0e;stroke:#ff7f0e;" x="112.698701" xlink:href="#mda71d3fdfc" y="179.797424"/>
     <use style="fill:#ff7f0e;stroke:#ff7f0e;" x="107.70094" xlink:href="#mda71d3fdfc" y="185.24514"/>
     <use style="fill:#ff7f0e;stroke:#ff7f0e;" x="103.036364" xlink:href="#mda71d3fdfc" y="190.993924"/>
     <use style="fill:#ff7f0e;stroke:#ff7f0e;" x="98.672727" xlink:href="#mda71d3fdfc" y="197.357064"/>
     <use style="fill:#ff7f0e;stroke:#ff7f0e;" x="94.581818" xlink:href="#mda71d3fdfc" y="203.796092"/>
     <use style="fill:#ff7f0e;stroke:#ff7f0e;" x="90.738843" xlink:href="#mda71d3fdfc" y="210.652659"/>
     <use style="fill:#ff7f0e;stroke:#ff7f0e;" x="87.121925" xlink:href="#mda71d3fdfc" y="217.423149"/>
     <use style="fill:#ff7f0e;stroke:#ff7f0e;" x="83.711688" xlink:href="#mda71d3fdfc" y="224.423917"/>
     <use style="fill:#ff7f0e;stroke:#ff7f0e;" x="80.490909" xlink:href="#mda71d3fdfc" y="231.105105"/>
     <use style="fill:#ff7f0e;stroke:#ff7f0e;" x="77.444226" xlink:href="#mda71d3fdfc" y="237.620124"/>
     <use style="fill:#ff7f0e;stroke:#ff7f0e;" x="74.557895" xlink:href="#mda71d3fdfc" y="243.888882"/>
     <use style="fill:#ff7f0e;stroke:#ff7f0e;" x="71.81958" xlink:href="#mda71d3fdfc" y="249.746813"/>
     <use style="fill:#ff7f0e;stroke:#ff7f0e;" x="69.218182" xlink:href="#mda71d3fdfc" y="255.331155"/>
    </g>
   </g>
   <g id="line2d_15">
    <path clip-path="url(#paf877b4d8e)" d="M 365.668909 433 
L 336.689256 351.315522 
L 305.945455 303.398511 
L 279.931469 270.539527 
L 257.633766 247.687846 
L 238.309091 231.597113 
L 221.4 220.16172 
L 206.480214 212.071751 
L 193.218182 206.464851 
L 181.352153 202.669857 
L 170.672727 200.372664 
L 161.01039 199.171016 
L 152.226446 198.815581 
L 144.206324 199.061171 
L 136.854545 199.850339 
L 130.090909 201.127647 
L 123.847552 202.777908 
L 118.066667 204.833684 
L 112.698701 207.236771 
L 107.70094 209.989917 
L 103.036364 212.997983 
L 98.672727 216.309523 
L 94.581818 219.84511 
L 90.738843 223.729664 
L 87.121925 227.92935 
L 83.711688 232.260617 
L 80.490909 236.803632 
L 77.444226 241.590944 
L 74.557895 246.240857 
L 71.81958 251.091972 
L 69.218182 255.850402 
" style="fill:none;stroke:#2ca02c;stroke-linecap:square;stroke-width:1.5;"/>
    <defs>
     <path d="M 0 3 
C 0.795609 3 1.55874 2.683901 2.12132 2.12132 
C 2.683901 1.55874 3 0.795609 3 0 
C 3 -0.795609 2.683901 -1.55874 2.12132 -2.12132 
C 1.55874 -2.683901 0.795609 -3 0 -3 
C -0.795609 -3 -1.55874 -2.683901 -2.12132 -2.12132 
C -2.683901 -1.55874 -3 -0.795609 -3 0 
C -3 0.795609 -2.683901 1.55874 -2.12132 2.12132 
C -1.55874 2.683901 -0.795609 3 0 3 
z
" id="mee69e9dc58" style="stroke:#2ca02c;"/>
    </defs>
    <g clip-path="url(#paf877b4d8e)">
     <use style="fill:#2ca02c;stroke:#2ca02c;" x="373.581818" xlink:href="#mee69e9dc58" y="455.303989"/>
     <use style="fill:#2ca02c;stroke:#2ca02c;" x="336.689256" xlink:href="#mee69e9dc58" y="351.315522"/>
     <use style="fill:#2ca02c;stroke:#2ca02c;" x="305.945455" xlink:href="#mee69e9dc58" y="303.398511"/>
     <use style="fill:#2ca02c;stroke:#2ca02c;" x="279.931469" xlink:href="#mee69e9dc58" y="270.539527"/>
     <use style="fill:#2ca02c;stroke:#2ca02c;" x="257.633766" xlink:href="#mee69e9dc58" y="247.687846"/>
     <use style="fill:#2ca02c;stroke:#2ca02c;" x="238.309091" xlink:href="#mee69e9dc58" y="231.597113"/>
     <use style="fill:#2ca02c;stroke:#2ca02c;" x="221.4" xlink:href="#mee69e9dc58" y="220.16172"/>
     <use style="fill:#2ca02c;stroke:#2ca02c;" x="206.480214" xlink:href="#mee69e9dc58" y="212.071751"/>
     <use style="fill:#2ca02c;stroke:#2ca02c;" x="193.218182" xlink:href="#mee69e9dc58" y="206.464851"/>
     <use style="fill:#2ca02c;stroke:#2ca02c;" x="181.352153" xlink:href="#mee69e9dc58" y="202.669857"/>
     <use style="fill:#2ca02c;stroke:#2ca02c;" x="170.672727" xlink:href="#mee69e9dc58" y="200.372664"/>
     <use style="fill:#2ca02c;stroke:#2ca02c;" x="161.01039" xlink:href="#mee69e9dc58" y="199.171016"/>
     <use style="fill:#2ca02c;stroke:#2ca02c;" x="152.226446" xlink:href="#mee69e9dc58" y="198.815581"/>
     <use style="fill:#2ca02c;stroke:#2ca02c;" x="144.206324" xlink:href="#mee69e9dc58" y="199.061171"/>
     <use style="fill:#2ca02c;stroke:#2ca02c;" x="136.854545" xlink:href="#mee69e9dc58" y="199.850339"/>
     <use style="fill:#2ca02c;stroke:#2ca02c;" x="130.090909" xlink:href="#mee69e9dc58" y="201.127647"/>
     <use style="fill:#2ca02c;stroke:#2ca02c;" x="123.847552" xlink:href="#mee69e9dc58" y="202.777908"/>
     <use style="fill:#2ca02c;stroke:#2ca02c;" x="118.066667" xlink:href="#mee69e9dc58" y="204.833684"/>
     <use style="fill:#2ca02c;stroke:#2ca02c;" x="112.698701" xlink:href="#mee69e9dc58" y="207.236771"/>
     <use style="fill:#2ca02c;stroke:#2ca02c;" x="107.70094" xlink:href="#mee69e9dc58" y="209.989917"/>
     <use style="fill:#2ca02c;stroke:#2ca02c;" x="103.036364" xlink:href="#mee69e9dc58" y="212.997983"/>
     <use style="fill:#2ca02c;stroke:#2ca02c;" x="98.672727" xlink:href="#mee69e9dc58" y="216.309523"/>
     <use style="fill:#2ca02c;stroke:#2ca02c;" x="94.581818" xlink:href="#mee69e9dc58" y="219.84511"/>
     <use style="fill:#2ca02c;stroke:#2ca02c;" x="90.738843" xlink:href="#mee69e9dc58" y="223.729664"/>
     <use style="fill:#2ca02c;stroke:#2ca02c;" x="87.121925" xlink:href="#mee69e9dc58" y="227.92935"/>
     <use style="fill:#2ca02c;stroke:#2ca02c;" x="83.711688" xlink:href="#mee69e9dc58" y="232.260617"/>
     <use style="fill:#2ca02c;stroke:#2ca02c;" x="80.490909" xlink:href="#mee69e9dc58" y="236.803632"/>
     <use style="fill:#2ca02c;stroke:#2ca02c;" x="77.444226" xlink:href="#mee69e9dc58" y="241.590944"/>
     <use style="fill:#2ca02c;stroke:#2ca02c;" x="74.557895" xlink:href="#mee69e9dc58" y="246.240857"/>
     <use style="fill:#2ca02c;stroke:#2ca02c;" x="71.81958" xlink:href="#mee69e9dc58" y="251.091972"/>
     <use style="fill:#2ca02c;stroke:#2ca02c;" x="69.218182" xlink:href="#mee69e9dc58" y="255.850402"/>
    </g>
   </g>
   <g id="line2d_16">
    <path clip-path="url(#paf877b4d8e)" d="M 241.699992 433 
L 238.309091 423.923324 
L 221.4 385.001842 
L 206.480214 355.610805 
L 193.218182 332.761057 
L 181.352153 314.843686 
L 170.672727 300.745656 
L 161.01039 289.616951 
L 152.226446 280.834799 
L 144.206324 273.939219 
L 136.854545 268.507601 
L 130.090909 264.26383 
L 123.847552 260.933989 
L 118.066667 258.401043 
L 112.698701 256.571661 
L 107.70094 255.343646 
L 103.036364 254.638873 
L 98.672727 254.426256 
L 94.581818 254.684651 
L 90.738843 255.234017 
L 87.121925 256.086088 
L 83.711688 257.244038 
L 80.490909 258.66888 
L 77.444226 260.344655 
L 74.557895 262.370372 
L 71.81958 264.527293 
L 69.218182 266.798009 
" style="fill:none;stroke:#d62728;stroke-linecap:square;stroke-width:1.5;"/>
    <defs>
     <path d="M 0 3 
C 0.795609 3 1.55874 2.683901 2.12132 2.12132 
C 2.683901 1.55874 3 0.795609 3 0 
C 3 -0.795609 2.683901 -1.55874 2.12132 -2.12132 
C 1.55874 -2.683901 0.795609 -3 0 -3 
C -0.795609 -3 -1.55874 -2.683901 -2.12132 -2.12132 
C -2.683901 -1.55874 -3 -0.795609 -3 0 
C -3 0.795609 -2.683901 1.55874 -2.12132 2.12132 
C -1.55874 2.683901 -0.795609 3 0 3 
z
" id="m5c9cea8d70" style="stroke:#d62728;"/>
    </defs>
    <g clip-path="url(#paf877b4d8e)">
     <use style="fill:#d62728;stroke:#d62728;" x="373.581818" xlink:href="#m5c9cea8d70" y="874.522012"/>
     <use style="fill:#d62728;stroke:#d62728;" x="336.689256" xlink:href="#m5c9cea8d70" y="756.108037"/>
     <use style="fill:#d62728;stroke:#d62728;" x="305.945455" xlink:href="#m5c9cea8d70" y="640.989935"/>
     <use style="fill:#d62728;stroke:#d62728;" x="279.931469" xlink:href="#m5c9cea8d70" y="545.338393"/>
     <use style="fill:#d62728;stroke:#d62728;" x="257.633766" xlink:href="#m5c9cea8d70" y="475.651111"/>
     <use style="fill:#d62728;stroke:#d62728;" x="238.309091" xlink:href="#m5c9cea8d70" y="423.923324"/>
     <use style="fill:#d62728;stroke:#d62728;" x="221.4" xlink:href="#m5c9cea8d70" y="385.001842"/>
     <use style="fill:#d62728;stroke:#d62728;" x="206.480214" xlink:href="#m5c9cea8d70" y="355.610805"/>
     <use style="fill:#d62728;stroke:#d62728;" x="193.218182" xlink:href="#m5c9cea8d70" y="332.761057"/>
     <use style="fill:#d62728;stroke:#d62728;" x="181.352153" xlink:href="#m5c9cea8d70" y="314.843686"/>
     <use style="fill:#d62728;stroke:#d62728;" x="170.672727" xlink:href="#m5c9cea8d70" y="300.745656"/>
     <use style="fill:#d62728;stroke:#d62728;" x="161.01039" xlink:href="#m5c9cea8d70" y="289.616951"/>
     <use style="fill:#d62728;stroke:#d62728;" x="152.226446" xlink:href="#m5c9cea8d70" y="280.834799"/>
     <use style="fill:#d62728;stroke:#d62728;" x="144.206324" xlink:href="#m5c9cea8d70" y="273.939219"/>
     <use style="fill:#d62728;stroke:#d62728;" x="136.854545" xlink:href="#m5c9cea8d70" y="268.507601"/>
     <use style="fill:#d62728;stroke:#d62728;" x="130.090909" xlink:href="#m5c9cea8d70" y="264.26383"/>
     <use style="fill:#d62728;stroke:#d62728;" x="123.847552" xlink:href="#m5c9cea8d70" y="260.933989"/>
     <use style="fill:#d62728;stroke:#d62728;" x="118.066667" xlink:href="#m5c9cea8d70" y="258.401043"/>
     <use style="fill:#d62728;stroke:#d62728;" x="112.698701" xlink:href="#m5c9cea8d70" y="256.571661"/>
     <use style="fill:#d62728;stroke:#d62728;" x="107.70094" xlink:href="#m5c9cea8d70" y="255.343646"/>
     <use style="fill:#d62728;stroke:#d62728;" x="103.036364" xlink:href="#m5c9cea8d70" y="254.638873"/>
     <use style="fill:#d62728;stroke:#d62728;" x="98.672727" xlink:href="#m5c9cea8d70" y="254.426256"/>
     <use style="fill:#d62728;stroke:#d62728;" x="94.581818" xlink:href="#m5c9cea8d70" y="254.684651"/>
     <use style="fill:#d62728;stroke:#d62728;" x="90.738843" xlink:href="#m5c9cea8d70" y="255.234017"/>
     <use style="fill:#d62728;stroke:#d62728;" x="87.121925" xlink:href="#m5c9cea8d70" y="256.086088"/>
     <use style="fill:#d62728;stroke:#d62728;" x="83.711688" xlink:href="#m5c9cea8d70" y="257.244038"/>
     <use style="fill:#d62728;stroke:#d62728;" x="80.490909" xlink:href="#m5c9cea8d70" y="258.66888"/>
     <use style="fill:#d62728;stroke:#d62728;" x="77.444226" xlink:href="#m5c9cea8d70" y="260.344655"/>
     <use style="fill:#d62728;stroke:#d62728;" x="74.557895" xlink:href="#m5c9cea8d70" y="262.370372"/>
     <use style="fill:#d62728;stroke:#d62728;" x="71.81958" xlink:href="#m5c9cea8d70" y="264.527293"/>
     <use style="fill:#d62728;stroke:#d62728;" x="69.218182" xlink:href="#m5c9cea8d70" y="266.798009"/>
    </g>
   </g>
   <g id="line2d_17">
    <path clip-path="url(#paf877b4d8e)" d="M 171.091221 433 
L 170.672727 431.773416 
L 161.01039 406.249524 
L 152.226446 385.348912 
L 144.206324 368.137965 
L 136.854545 353.888705 
L 130.090909 342.061582 
L 123.847552 332.324316 
L 118.066667 324.158551 
L 112.698701 317.322177 
L 107.70094 311.568554 
L 103.036364 306.721052 
L 98.672727 302.675129 
L 94.581818 299.306389 
L 90.738843 296.566147 
L 87.121925 294.387627 
L 83.711688 292.673014 
L 80.490909 291.439575 
L 77.444226 290.526066 
L 74.557895 289.936044 
L 71.81958 289.649226 
L 69.218182 289.607914 
" style="fill:none;stroke:#9467bd;stroke-linecap:square;stroke-width:1.5;"/>
    <defs>
     <path d="M 0 3 
C 0.795609 3 1.55874 2.683901 2.12132 2.12132 
C 2.683901 1.55874 3 0.795609 3 0 
C 3 -0.795609 2.683901 -1.55874 2.12132 -2.12132 
C 1.55874 -2.683901 0.795609 -3 0 -3 
C -0.795609 -3 -1.55874 -2.683901 -2.12132 -2.12132 
C -2.683901 -1.55874 -3 -0.795609 -3 0 
C -3 0.795609 -2.683901 1.55874 -2.12132 2.12132 
C -1.55874 2.683901 -0.795609 3 0 3 
z
" id="m052a40cd11" style="stroke:#9467bd;"/>
    </defs>
    <g clip-path="url(#paf877b4d8e)">
     <use style="fill:#9467bd;stroke:#9467bd;" x="336.689256" xlink:href="#m052a40cd11" y="544.722888"/>
     <use style="fill:#9467bd;stroke:#9467bd;" x="305.945455" xlink:href="#m052a40cd11" y="1058.984504"/>
     <use style="fill:#9467bd;stroke:#9467bd;" x="279.931469" xlink:href="#m052a40cd11" y="929.600221"/>
     <use style="fill:#9467bd;stroke:#9467bd;" x="257.633766" xlink:href="#m052a40cd11" y="794.940456"/>
     <use style="fill:#9467bd;stroke:#9467bd;" x="238.309091" xlink:href="#m052a40cd11" y="691.556772"/>
     <use style="fill:#9467bd;stroke:#9467bd;" x="221.4" xlink:href="#m052a40cd11" y="612.303382"/>
     <use style="fill:#9467bd;stroke:#9467bd;" x="206.480214" xlink:href="#m052a40cd11" y="550.609485"/>
     <use style="fill:#9467bd;stroke:#9467bd;" x="193.218182" xlink:href="#m052a40cd11" y="501.92059"/>
     <use style="fill:#9467bd;stroke:#9467bd;" x="181.352153" xlink:href="#m052a40cd11" y="463.074227"/>
     <use style="fill:#9467bd;stroke:#9467bd;" x="170.672727" xlink:href="#m052a40cd11" y="431.773416"/>
     <use style="fill:#9467bd;stroke:#9467bd;" x="161.01039" xlink:href="#m052a40cd11" y="406.249524"/>
     <use style="fill:#9467bd;stroke:#9467bd;" x="152.226446" xlink:href="#m052a40cd11" y="385.348912"/>
     <use style="fill:#9467bd;stroke:#9467bd;" x="144.206324" xlink:href="#m052a40cd11" y="368.137965"/>
     <use style="fill:#9467bd;stroke:#9467bd;" x="136.854545" xlink:href="#m052a40cd11" y="353.888705"/>
     <use style="fill:#9467bd;stroke:#9467bd;" x="130.090909" xlink:href="#m052a40cd11" y="342.061582"/>
     <use style="fill:#9467bd;stroke:#9467bd;" x="123.847552" xlink:href="#m052a40cd11" y="332.324316"/>
     <use style="fill:#9467bd;stroke:#9467bd;" x="118.066667" xlink:href="#m052a40cd11" y="324.158551"/>
     <use style="fill:#9467bd;stroke:#9467bd;" x="112.698701" xlink:href="#m052a40cd11" y="317.322177"/>
     <use style="fill:#9467bd;stroke:#9467bd;" x="107.70094" xlink:href="#m052a40cd11" y="311.568554"/>
     <use style="fill:#9467bd;stroke:#9467bd;" x="103.036364" xlink:href="#m052a40cd11" y="306.721052"/>
     <use style="fill:#9467bd;stroke:#9467bd;" x="98.672727" xlink:href="#m052a40cd11" y="302.675129"/>
     <use style="fill:#9467bd;stroke:#9467bd;" x="94.581818" xlink:href="#m052a40cd11" y="299.306389"/>
     <use style="fill:#9467bd;stroke:#9467bd;" x="90.738843" xlink:href="#m052a40cd11" y="296.566147"/>
     <use style="fill:#9467bd;stroke:#9467bd;" x="87.121925" xlink:href="#m052a40cd11" y="294.387627"/>
     <use style="fill:#9467bd;stroke:#9467bd;" x="83.711688" xlink:href="#m052a40cd11" y="292.673014"/>
     <use style="fill:#9467bd;stroke:#9467bd;" x="80.490909" xlink:href="#m052a40cd11" y="291.439575"/>
     <use style="fill:#9467bd;stroke:#9467bd;" x="77.444226" xlink:href="#m052a40cd11" y="290.526066"/>
     <use style="fill:#9467bd;stroke:#9467bd;" x="74.557895" xlink:href="#m052a40cd11" y="289.936044"/>
     <use style="fill:#9467bd;stroke:#9467bd;" x="71.81958" xlink:href="#m052a40cd11" y="289.649226"/>
     <use style="fill:#9467bd;stroke:#9467bd;" x="69.218182" xlink:href="#m052a40cd11" y="289.607914"/>
    </g>
   </g>
   <g id="line2d_18">
    <path clip-path="url(#paf877b4d8e)" d="M 129.423342 433 
L 123.847552 416.9667 
L 118.066667 401.656402 
L 112.698701 388.518519 
L 107.70094 377.202835 
L 103.036364 367.473393 
L 98.672727 359.06658 
L 94.581818 351.789385 
L 90.738843 345.489577 
L 87.121925 340.029978 
L 83.711688 335.294824 
L 80.490909 331.183121 
L 77.444226 327.625811 
L 74.557895 324.567046 
L 71.81958 321.975724 
L 69.218182 319.774631 
" style="fill:none;stroke:#8c564b;stroke-linecap:square;stroke-width:1.5;"/>
    <defs>
     <path d="M 0 3 
C 0.795609 3 1.55874 2.683901 2.12132 2.12132 
C 2.683901 1.55874 3 0.795609 3 0 
C 3 -0.795609 2.683901 -1.55874 2.12132 -2.12132 
C 1.55874 -2.683901 0.795609 -3 0 -3 
C -0.795609 -3 -1.55874 -2.683901 -2.12132 -2.12132 
C -2.683901 -1.55874 -3 -0.795609 -3 0 
C -3 0.795609 -2.683901 1.55874 -2.12132 2.12132 
C -1.55874 2.683901 -0.795609 3 0 3 
z
" id="m0c1c731069" style="stroke:#8c564b;"/>
    </defs>
    <g clip-path="url(#paf877b4d8e)">
     <use style="fill:#8c564b;stroke:#8c564b;" x="279.931469" xlink:href="#m0c1c731069" y="1301.13793"/>
     <use style="fill:#8c564b;stroke:#8c564b;" x="257.633766" xlink:href="#m0c1c731069" y="1155.301852"/>
     <use style="fill:#8c564b;stroke:#8c564b;" x="238.309091" xlink:href="#m0c1c731069" y="995.372215"/>
     <use style="fill:#8c564b;stroke:#8c564b;" x="221.4" xlink:href="#m0c1c731069" y="883.574023"/>
     <use style="fill:#8c564b;stroke:#8c564b;" x="206.480214" xlink:href="#m0c1c731069" y="789.505305"/>
     <use style="fill:#8c564b;stroke:#8c564b;" x="193.218182" xlink:href="#m0c1c731069" y="708.468135"/>
     <use style="fill:#8c564b;stroke:#8c564b;" x="181.352153" xlink:href="#m0c1c731069" y="643.305419"/>
     <use style="fill:#8c564b;stroke:#8c564b;" x="170.672727" xlink:href="#m0c1c731069" y="590.346256"/>
     <use style="fill:#8c564b;stroke:#8c564b;" x="161.01039" xlink:href="#m0c1c731069" y="546.913366"/>
     <use style="fill:#8c564b;stroke:#8c564b;" x="152.226446" xlink:href="#m0c1c731069" y="511.024811"/>
     <use style="fill:#8c564b;stroke:#8c564b;" x="144.206324" xlink:href="#m0c1c731069" y="481.168515"/>
     <use style="fill:#8c564b;stroke:#8c564b;" x="136.854545" xlink:href="#m0c1c731069" y="456.083598"/>
     <use style="fill:#8c564b;stroke:#8c564b;" x="130.090909" xlink:href="#m0c1c731069" y="434.919603"/>
     <use style="fill:#8c564b;stroke:#8c564b;" x="123.847552" xlink:href="#m0c1c731069" y="416.9667"/>
     <use style="fill:#8c564b;stroke:#8c564b;" x="118.066667" xlink:href="#m0c1c731069" y="401.656402"/>
     <use style="fill:#8c564b;stroke:#8c564b;" x="112.698701" xlink:href="#m0c1c731069" y="388.518519"/>
     <use style="fill:#8c564b;stroke:#8c564b;" x="107.70094" xlink:href="#m0c1c731069" y="377.202835"/>
     <use style="fill:#8c564b;stroke:#8c564b;" x="103.036364" xlink:href="#m0c1c731069" y="367.473393"/>
     <use style="fill:#8c564b;stroke:#8c564b;" x="98.672727" xlink:href="#m0c1c731069" y="359.06658"/>
     <use style="fill:#8c564b;stroke:#8c564b;" x="94.581818" xlink:href="#m0c1c731069" y="351.789385"/>
     <use style="fill:#8c564b;stroke:#8c564b;" x="90.738843" xlink:href="#m0c1c731069" y="345.489577"/>
     <use style="fill:#8c564b;stroke:#8c564b;" x="87.121925" xlink:href="#m0c1c731069" y="340.029978"/>
     <use style="fill:#8c564b;stroke:#8c564b;" x="83.711688" xlink:href="#m0c1c731069" y="335.294824"/>
     <use style="fill:#8c564b;stroke:#8c564b;" x="80.490909" xlink:href="#m0c1c731069" y="331.183121"/>
     <use style="fill:#8c564b;stroke:#8c564b;" x="77.444226" xlink:href="#m0c1c731069" y="327.625811"/>
     <use style="fill:#8c564b;stroke:#8c564b;" x="74.557895" xlink:href="#m0c1c731069" y="324.567046"/>
     <use style="fill:#8c564b;stroke:#8c564b;" x="71.81958" xlink:href="#m0c1c731069" y="321.975724"/>
     <use style="fill:#8c564b;stroke:#8c564b;" x="69.218182" xlink:href="#m0c1c731069" y="319.774631"/>
    </g>
   </g>
   <g id="patch_3">
    <path d="M 54 378 
L 54 51.84 
" style="fill:none;stroke:#000000;stroke-linecap:square;stroke-linejoin:miter;stroke-width:0.8;"/>
   </g>
   <g id="patch_4">
    <path d="M 388.8 378 
L 388.8 51.84 
" style="fill:none;stroke:#000000;stroke-linecap:square;stroke-linejoin:miter;stroke-width:0.8;"/>
   </g>
   <g id="patch_5">
    <path d="M 54 378 
L 388.8 378 
" style="fill:none;stroke:#000000;stroke-linecap:square;stroke-linejoin:miter;stroke-width:0.8;"/>
   </g>
   <g id="patch_6">
    <path d="M 54 51.84 
L 388.8 51.84 
" style="fill:none;stroke:#000000;stroke-linecap:square;stroke-linejoin:miter;stroke-width:0.8;"/>
   </g>
   <g id="text_15">
    <!-- Normalised -->
    <g transform="translate(187.396875 45.84)scale(0.12 -0.12)">
     <use xlink:href="#DejaVuSans-78"/>
     <use x="74.804688" xlink:href="#DejaVuSans-111"/>
     <use x="135.986328" xlink:href="#DejaVuSans-114"/>
     <use x="175.349609" xlink:href="#DejaVuSans-109"/>
     <use x="272.761719" xlink:href="#DejaVuSans-97"/>
     <use x="334.041016" xlink:href="#DejaVuSans-108"/>
     <use x="361.824219" xlink:href="#DejaVuSans-105"/>
     <use x="389.607422" xlink:href="#DejaVuSans-115"/>
     <use x="441.707031" xlink:href="#DejaVuSans-101"/>
     <use x="503.230469" xlink:href="#DejaVuSans-100"/>
    </g>
   </g>
   <g id="legend_1">
    <g id="patch_7">
     <path d="M 306.4 154.64 
L 381.8 154.64 
Q 383.8 154.64 383.8 152.64 
L 383.8 58.84 
Q 383.8 56.84 381.8 56.84 
L 306.4 56.84 
Q 304.4 56.84 304.4 58.84 
L 304.4 152.64 
Q 304.4 154.64 306.4 154.64 
z
" style="fill:#ffffff;opacity:0.8;stroke:#cccccc;stroke-linejoin:miter;"/>
    </g>
    <g id="line2d_19">
     <path d="M 308.4 65.04 
L 328.4 65.04 
" style="fill:none;stroke:#1f77b4;stroke-linecap:square;stroke-width:1.5;"/>
    </g>
    <g id="line2d_20">
     <g>
      <use style="fill:#1f77b4;stroke:#1f77b4;" x="318.4" xlink:href="#m1c68c269d7" y="65.04"/>
     </g>
    </g>
    <g id="text_16">
     <!-- $\theta$$_p$ = 0 -->
     <g transform="translate(336.4 68.54)scale(0.1 -0.1)">
      <defs>
       <path d="M 45.515625 34.671875 
L 14.453125 34.671875 
Q 12.359375 20.0625 14.5 13.875 
Q 17.1875 6.25 24.46875 6.25 
Q 31.78125 6.25 37.359375 13.921875 
Q 42.234375 20.65625 45.515625 34.671875 
z
M 47.015625 42.96875 
Q 48.34375 56.84375 46.625 61.71875 
Q 43.953125 69.4375 36.765625 69.4375 
Q 29.296875 69.4375 23.828125 61.8125 
Q 19.53125 55.671875 16.15625 42.96875 
z
M 38.1875 76.765625 
Q 49.90625 76.765625 54.59375 66.40625 
Q 59.28125 56.109375 55.71875 37.84375 
Q 52.203125 19.625 43.453125 9.28125 
Q 34.765625 -1.125 23.046875 -1.125 
Q 11.28125 -1.125 6.640625 9.28125 
Q 2 19.625 5.515625 37.84375 
Q 9.078125 56.109375 17.71875 66.40625 
Q 26.421875 76.765625 38.1875 76.765625 
z
" id="DejaVuSans-Oblique-952"/>
       <path d="M 25 67.921875 
Q 21.09375 67.921875 18.40625 65.203125 
Q 15.71875 62.5 15.71875 58.59375 
Q 15.71875 54.734375 18.40625 52.078125 
Q 21.09375 49.421875 25 49.421875 
Q 28.90625 49.421875 31.59375 52.078125 
Q 34.28125 54.734375 34.28125 58.59375 
Q 34.28125 62.453125 31.5625 65.1875 
Q 28.859375 67.921875 25 67.921875 
z
M 25 74.21875 
Q 28.125 74.21875 31 73.015625 
Q 33.890625 71.828125 35.984375 69.578125 
Q 38.234375 67.390625 39.359375 64.59375 
Q 40.484375 61.8125 40.484375 58.59375 
Q 40.484375 52.15625 35.96875 47.6875 
Q 31.453125 43.21875 24.90625 43.21875 
Q 18.3125 43.21875 13.90625 47.609375 
Q 9.515625 52 9.515625 58.59375 
Q 9.515625 65.140625 14 69.671875 
Q 18.5 74.21875 25 74.21875 
z
" id="DejaVuSans-176"/>
      </defs>
      <use transform="translate(0 0.234375)" xlink:href="#DejaVuSans-Oblique-952"/>
      <use transform="translate(62.138672 -16.171875)scale(0.7)" xlink:href="#DejaVuSans-Oblique-112"/>
      <use transform="translate(109.306641 0.234375)" xlink:href="#DejaVuSans-32"/>
      <use transform="translate(141.09375 0.234375)" xlink:href="#DejaVuSans-61"/>
      <use transform="translate(224.882812 0.234375)" xlink:href="#DejaVuSans-32"/>
      <use transform="translate(256.669922 0.234375)" xlink:href="#DejaVuSans-48"/>
      <use transform="translate(320.292969 0.234375)" xlink:href="#DejaVuSans-176"/>
     </g>
    </g>
    <g id="line2d_21">
     <path d="M 308.4 80.84 
L 328.4 80.84 
" style="fill:none;stroke:#ff7f0e;stroke-linecap:square;stroke-width:1.5;"/>
    </g>
    <g id="line2d_22">
     <g>
      <use style="fill:#ff7f0e;stroke:#ff7f0e;" x="318.4" xlink:href="#mda71d3fdfc" y="80.84"/>
     </g>
    </g>
    <g id="text_17">
     <!-- $\theta$$_p$ = 5 -->
     <g transform="translate(336.4 84.34)scale(0.1 -0.1)">
      <defs>
       <path d="M 10.796875 72.90625 
L 49.515625 72.90625 
L 49.515625 64.59375 
L 19.828125 64.59375 
L 19.828125 46.734375 
Q 21.96875 47.46875 24.109375 47.828125 
Q 26.265625 48.1875 28.421875 48.1875 
Q 40.625 48.1875 47.75 41.5 
Q 54.890625 34.8125 54.890625 23.390625 
Q 54.890625 11.625 47.5625 5.09375 
Q 40.234375 -1.421875 26.90625 -1.421875 
Q 22.3125 -1.421875 17.546875 -0.640625 
Q 12.796875 0.140625 7.71875 1.703125 
L 7.71875 11.625 
Q 12.109375 9.234375 16.796875 8.0625 
Q 21.484375 6.890625 26.703125 6.890625 
Q 35.15625 6.890625 40.078125 11.328125 
Q 45.015625 15.765625 45.015625 23.390625 
Q 45.015625 31 40.078125 35.4375 
Q 35.15625 39.890625 26.703125 39.890625 
Q 22.75 39.890625 18.8125 39.015625 
Q 14.890625 38.140625 10.796875 36.28125 
z
" id="DejaVuSans-53"/>
      </defs>
      <use transform="translate(0 0.234375)" xlink:href="#DejaVuSans-Oblique-952"/>
      <use transform="translate(62.138672 -16.171875)scale(0.7)" xlink:href="#DejaVuSans-Oblique-112"/>
      <use transform="translate(109.306641 0.234375)" xlink:href="#DejaVuSans-32"/>
      <use transform="translate(141.09375 0.234375)" xlink:href="#DejaVuSans-61"/>
      <use transform="translate(224.882812 0.234375)" xlink:href="#DejaVuSans-32"/>
      <use transform="translate(256.669922 0.234375)" xlink:href="#DejaVuSans-53"/>
      <use transform="translate(320.292969 0.234375)" xlink:href="#DejaVuSans-176"/>
     </g>
    </g>
    <g id="line2d_23">
     <path d="M 308.4 96.64 
L 328.4 96.64 
" style="fill:none;stroke:#2ca02c;stroke-linecap:square;stroke-width:1.5;"/>
    </g>
    <g id="line2d_24">
     <g>
      <use style="fill:#2ca02c;stroke:#2ca02c;" x="318.4" xlink:href="#mee69e9dc58" y="96.64"/>
     </g>
    </g>
    <g id="text_18">
     <!-- $\theta$$_p$ = 8 -->
     <g transform="translate(336.4 100.14)scale(0.1 -0.1)">
      <use transform="translate(0 0.234375)" xlink:href="#DejaVuSans-Oblique-952"/>
      <use transform="translate(62.138672 -16.171875)scale(0.7)" xlink:href="#DejaVuSans-Oblique-112"/>
      <use transform="translate(109.306641 0.234375)" xlink:href="#DejaVuSans-32"/>
      <use transform="translate(141.09375 0.234375)" xlink:href="#DejaVuSans-61"/>
      <use transform="translate(224.882812 0.234375)" xlink:href="#DejaVuSans-32"/>
      <use transform="translate(256.669922 0.234375)" xlink:href="#DejaVuSans-56"/>
      <use transform="translate(320.292969 0.234375)" xlink:href="#DejaVuSans-176"/>
     </g>
    </g>
    <g id="line2d_25">
     <path d="M 308.4 112.44 
L 328.4 112.44 
" style="fill:none;stroke:#d62728;stroke-linecap:square;stroke-width:1.5;"/>
    </g>
    <g id="line2d_26">
     <g>
      <use style="fill:#d62728;stroke:#d62728;" x="318.4" xlink:href="#m5c9cea8d70" y="112.44"/>
     </g>
    </g>
    <g id="text_19">
     <!-- $\theta$$_p$ = 12 -->
     <g transform="translate(336.4 115.94)scale(0.1 -0.1)">
      <use transform="translate(0 0.234375)" xlink:href="#DejaVuSans-Oblique-952"/>
      <use transform="translate(62.138672 -16.171875)scale(0.7)" xlink:href="#DejaVuSans-Oblique-112"/>
      <use transform="translate(109.306641 0.234375)" xlink:href="#DejaVuSans-32"/>
      <use transform="translate(141.09375 0.234375)" xlink:href="#DejaVuSans-61"/>
      <use transform="translate(224.882812 0.234375)" xlink:href="#DejaVuSans-32"/>
      <use transform="translate(256.669922 0.234375)" xlink:href="#DejaVuSans-49"/>
      <use transform="translate(320.292969 0.234375)" xlink:href="#DejaVuSans-50"/>
      <use transform="translate(383.916016 0.234375)" xlink:href="#DejaVuSans-176"/>
     </g>
    </g>
    <g id="line2d_27">
     <path d="M 308.4 128.24 
L 328.4 128.24 
" style="fill:none;stroke:#9467bd;stroke-linecap:square;stroke-width:1.5;"/>
    </g>
    <g id="line2d_28">
     <g>
      <use style="fill:#9467bd;stroke:#9467bd;" x="318.4" xlink:href="#m052a40cd11" y="128.24"/>
     </g>
    </g>
    <g id="text_20">
     <!-- $\theta$$_p$ = 16 -->
     <g transform="translate(336.4 131.74)scale(0.1 -0.1)">
      <use transform="translate(0 0.234375)" xlink:href="#DejaVuSans-Oblique-952"/>
      <use transform="translate(62.138672 -16.171875)scale(0.7)" xlink:href="#DejaVuSans-Oblique-112"/>
      <use transform="translate(109.306641 0.234375)" xlink:href="#DejaVuSans-32"/>
      <use transform="translate(141.09375 0.234375)" xlink:href="#DejaVuSans-61"/>
      <use transform="translate(224.882812 0.234375)" xlink:href="#DejaVuSans-32"/>
      <use transform="translate(256.669922 0.234375)" xlink:href="#DejaVuSans-49"/>
      <use transform="translate(320.292969 0.234375)" xlink:href="#DejaVuSans-54"/>
      <use transform="translate(383.916016 0.234375)" xlink:href="#DejaVuSans-176"/>
     </g>
    </g>
    <g id="line2d_29">
     <path d="M 308.4 144.04 
L 328.4 144.04 
" style="fill:none;stroke:#8c564b;stroke-linecap:square;stroke-width:1.5;"/>
    </g>
    <g id="line2d_30">
     <g>
      <use style="fill:#8c564b;stroke:#8c564b;" x="318.4" xlink:href="#m0c1c731069" y="144.04"/>
     </g>
    </g>
    <g id="text_21">
     <!-- $\theta$$_p$ = 20 -->
     <g transform="translate(336.4 147.54)scale(0.1 -0.1)">
      <use transform="translate(0 0.234375)" xlink:href="#DejaVuSans-Oblique-952"/>
      <use transform="translate(62.138672 -16.171875)scale(0.7)" xlink:href="#DejaVuSans-Oblique-112"/>
      <use transform="translate(109.306641 0.234375)" xlink:href="#DejaVuSans-32"/>
      <use transform="translate(141.09375 0.234375)" xlink:href="#DejaVuSans-61"/>
      <use transform="translate(224.882812 0.234375)" xlink:href="#DejaVuSans-32"/>
      <use transform="translate(256.669922 0.234375)" xlink:href="#DejaVuSans-50"/>
      <use transform="translate(320.292969 0.234375)" xlink:href="#DejaVuSans-48"/>
      <use transform="translate(383.916016 0.234375)" xlink:href="#DejaVuSans-176"/>
     </g>
    </g>
   </g>
  </g>
 </g>
 <defs>
  <clipPath id="paf877b4d8e">
   <rect height="326.16" width="334.8" x="54" y="51.84"/>
  </clipPath>
 </defs>
</svg>
